<?xml version="1.0" encoding="UTF-8"?>
<svg width="1100px" height="550px" viewBox="0 0 1100 550" version="1.1" xmlns="http://www.w3.org/2000/svg" xmlns:xlink="http://www.w3.org/1999/xlink">
    <title>Artboard</title>
    <g id="Artboard" stroke="none" stroke-width="1" fill="none" fill-rule="evenodd">
        <line x1="-217" y1="355.25" x2="1500" y2="354.5" id="Path-2" stroke="#4A4A4A" stroke-width="31.2181818"></line>
        <rect id="Rectangle" fill="#1A242F" x="192" y="329" width="8" height="50"></rect>
        <g id="Group" transform="translate(161.000000, 78.000000)">
            <path d="M35,1.36319394 C44.2885475,1.36319394 52.697749,5.1281217 58.7848137,11.2151863 C64.8718783,17.302251 68.6368061,25.7114525 68.6368061,35 L68.6368061,35 L68.6368061,169 C68.6368061,178.288548 64.8718783,186.697749 58.7848137,192.784814 C52.697749,198.871878 44.2885475,202.636806 35,202.636806 C25.7114525,202.636806 17.302251,198.871878 11.2151863,192.784814 C5.1281217,186.697749 1.36319394,178.288548 1.36319394,169 L1.36319394,169 L1.36319394,35 C1.36319394,25.7114525 5.1281217,17.302251 11.2151863,11.2151863 C17.302251,5.1281217 25.7114525,1.36319394 35,1.36319394 Z" id="Combined-Shape" stroke="#4A4A4A" stroke-width="2.72638788" fill="#000000"></path>
            <ellipse id="Oval" fill="#2F2F2F" cx="35" cy="81.6" rx="13.4615385" ry="13.6"></ellipse>
            <ellipse id="Oval" fill="#0046FF" cx="35" cy="40.8" rx="13.4615385" ry="13.6"></ellipse>
            <ellipse id="Oval" fill="#2F2F2F" cx="35" cy="122.4" rx="13.4615385" ry="13.6"></ellipse>
            <ellipse id="Oval" fill="#FF0000" cx="35" cy="163.2" rx="13.4615385" ry="13.6"></ellipse>
        </g>
        <rect id="Rectangle" fill="#FFFFFF" x="550" y="309" width="314" height="45"></rect>
        <path id="Line" d="M515.975989,409.048107 L550,426 L516.024079,443.048073 L516.004,429.047 L230.504,429.452 L230.524011,443.451893 L196.5,426.5 L230.475921,409.451927 L230.495,423.452 L515.995,423.047 L515.975989,409.048107 Z" fill="#FFFFFF" fill-rule="nonzero"></path>
        <path d="M327.861954,475.570404 L342.73996,470.061447 L342.73996,466.774475 L327.861954,461.265518 L327.861954,464.138672 L340.044,468.453 L327.861954,472.766602 L327.861954,475.570404 Z M360.675312,477.356827 C362.193867,477.356827 363.537022,477.049438 364.704777,476.434662 C365.872532,475.819885 366.787182,474.964668 367.448727,473.869011 C368.110271,472.773354 368.441044,471.510803 368.441044,470.08136 L368.441044,470.052063 C368.441044,468.703491 368.141628,467.507469 367.542797,466.463997 C366.943966,465.420525 366.121899,464.598267 365.076595,463.997223 C364.031292,463.396179 362.8326,463.095657 361.480518,463.095657 C360.437275,463.095657 359.497524,463.287918 358.661266,463.67244 C357.825008,464.056961 357.167698,464.605667 356.689335,465.318558 L356.619984,465.318558 L357.265202,458.635666 L367.210346,458.635666 L367.210346,455.862305 L354.603077,455.862305 L353.562122,468.049576 L356.447178,468.049576 C356.578403,467.812607 356.729923,467.592918 356.901737,467.390511 C357.073551,467.188103 357.255817,467.001678 357.448536,466.831238 C357.877918,466.451752 358.370472,466.167786 358.926197,465.97934 C359.481922,465.790894 360.084034,465.696671 360.732533,465.696671 C361.605488,465.696671 362.378689,465.885612 363.052135,466.263496 C363.725582,466.64138 364.255482,467.161896 364.641834,467.825043 C365.028187,468.48819 365.221363,469.249603 365.221363,470.109283 L365.221363,470.13858 C365.221363,471.014282 365.03017,471.788589 364.647785,472.461502 C364.2654,473.134415 363.733974,473.660271 363.053509,474.03907 C362.373043,474.41787 361.588322,474.607269 360.699345,474.607269 C359.920383,474.607269 359.218594,474.459602 358.593975,474.164268 C357.969357,473.868935 357.460514,473.465111 357.067448,472.952797 C356.674381,472.440483 356.430317,471.868088 356.335255,471.235611 L356.31786,471.123688 L353.177372,471.123688 L353.19202,471.303589 C353.292271,472.458832 353.666492,473.492805 354.314686,474.40551 C354.962879,475.318214 355.831104,476.038277 356.919361,476.565697 C358.007618,477.093117 359.259602,477.356827 360.675312,477.356827 Z M379.208432,477.356827 C380.890409,477.356827 382.335263,476.912491 383.542996,476.023819 C384.75073,475.135147 385.677625,473.874962 386.323682,472.243263 C386.969739,470.611565 387.292768,468.676636 387.292768,466.438477 L387.292768,466.40918 C387.292768,464.171021 386.969739,462.236092 386.323682,460.604393 C385.677625,458.972694 384.75073,457.714951 383.542996,456.831161 C382.335263,455.947372 380.890409,455.505478 379.208432,455.505478 C377.526456,455.505478 376.083127,455.947372 374.878446,456.831161 C373.673764,457.714951 372.749921,458.972694 372.106915,460.604393 C371.46391,462.236092 371.142407,464.171021 371.142407,466.40918 L371.142407,466.438477 C371.142407,468.676636 371.46391,470.611565 372.106915,472.243263 C372.749921,473.874962 373.673764,475.135147 374.878446,476.023819 C376.083127,476.912491 377.526456,477.356827 379.208432,477.356827 Z M379.208432,474.603149 C378.205777,474.603149 377.349988,474.274628 376.641065,473.617584 C375.932141,472.960541 375.391828,472.021515 375.020123,470.800507 C374.648419,469.579498 374.462567,468.125488 374.462567,466.438477 L374.462567,466.40918 C374.462567,464.722168 374.648419,463.270599 375.020123,462.054474 C375.391828,460.838348 375.932141,459.903748 376.641065,459.250671 C377.349988,458.597595 378.205777,458.271057 379.208432,458.271057 C380.210935,458.271057 381.068173,458.597595 381.780149,459.250671 C382.492124,459.903748 383.035985,460.838348 383.411733,462.054474 C383.78748,463.270599 383.975354,464.722168 383.975354,466.40918 L383.975354,466.438477 C383.975354,468.125488 383.78748,469.579498 383.411733,470.800507 C383.035985,472.021515 382.492124,472.960541 381.780149,473.617584 C381.068173,474.274628 380.210935,474.603149 379.208432,474.603149 Z M400.189644,477 L400.189644,467.475998 C400.189644,466.807968 400.327583,466.215317 400.603462,465.698044 C400.879341,465.180771 401.257454,464.77153 401.737801,464.470322 C402.218147,464.169113 402.77021,464.018509 403.39399,464.018509 C404.285713,464.018509 404.992844,464.281189 405.515381,464.806549 C406.037918,465.331909 406.299187,466.044113 406.299187,466.943161 L406.299187,477 L409.425484,477 L409.425484,467.368423 C409.425484,466.714432 409.558998,466.135246 409.826027,465.630867 C410.093056,465.126488 410.46476,464.731667 410.941139,464.446404 C411.417519,464.16114 411.967522,464.018509 412.591148,464.018509 C413.532616,464.018509 414.258629,464.294693 414.769188,464.847061 C415.279747,465.399429 415.535027,466.172974 415.535027,467.167694 L415.535027,477 L418.717628,477 L418.717628,466.401855 C418.717628,465.370056 418.508965,464.472572 418.091637,463.709404 C417.674309,462.946236 417.08963,462.352211 416.337601,461.92733 C415.585571,461.502449 414.702202,461.290009 413.687492,461.290009 C412.954918,461.290009 412.272736,461.413033 411.640945,461.659081 C411.009155,461.905128 410.456902,462.254364 409.984184,462.706787 C409.511467,463.15921 409.142433,463.702042 408.877083,464.335281 L408.807732,464.335281 C408.609062,463.685104 408.305984,463.134224 407.898499,462.68264 C407.491013,462.231056 407.002045,461.886055 406.431595,461.647636 C405.861145,461.409218 405.221153,461.290009 404.51162,461.290009 C403.508202,461.290009 402.631775,461.535828 401.882339,462.027466 C401.132904,462.519104 400.591789,463.167755 400.258995,463.973419 L400.189644,463.973419 L400.189644,461.593735 L397.007042,461.593735 L397.007042,477 L400.189644,477 Z" id="&gt;50m" fill="#FFFFFF" fill-rule="nonzero"></path>
    </g>
</svg>