<?xml version="1.0" encoding="UTF-8"?>
<svg width="1100px" height="550px" viewBox="0 0 1100 550" version="1.1" xmlns="http://www.w3.org/2000/svg" xmlns:xlink="http://www.w3.org/1999/xlink">
    <title>Artboard</title>
    <defs>
        <rect id="path-1" x="0" y="0" width="107" height="107"></rect>
        <rect id="path-3" x="0" y="0" width="107" height="107"></rect>
        <rect id="path-5" x="0" y="0" width="107" height="107"></rect>
    </defs>
    <g id="Artboard" stroke="none" stroke-width="1" fill="none" fill-rule="evenodd">
        <line x1="0" y1="145.5" x2="1100" y2="145" id="Path-2" stroke="#4A4A4A" stroke-width="20"></line>
        <line x1="0" y1="405.5" x2="1100" y2="405" id="Path-2" stroke="#4A4A4A" stroke-width="20"></line>
        <path d="M24.6816406,191 L24.6816406,182.679688 L33.2729492,182.679688 L33.2729492,179.178711 L24.6816406,179.178711 L24.6816406,173.509766 L34.1005859,173.509766 L34.1005859,169.862305 L20.2578125,169.862305 L20.2578125,191 L24.6816406,191 Z M38.9492188,173.282715 C39.59375,173.282715 40.1357422,173.062988 40.5751953,172.623535 C41.0146484,172.184082 41.234375,171.661621 41.234375,171.056152 C41.234375,170.440918 41.0146484,169.916016 40.5751953,169.481445 C40.1357422,169.046875 39.59375,168.82959 38.9492188,168.82959 C38.3095703,168.82959 37.7687988,169.046875 37.3269043,169.481445 C36.8850098,169.916016 36.6640625,170.440918 36.6640625,171.056152 C36.6640625,171.661621 36.8850098,172.184082 37.3269043,172.623535 C37.7687988,173.062988 38.3095703,173.282715 38.9492188,173.282715 Z M41.0878906,191 L41.0878906,175.296875 L36.8105469,175.296875 L36.8105469,191 L41.0878906,191 Z M47.7675781,191 L50.7192383,185.558105 L50.8071289,185.558105 L53.7880859,191 L58.4389648,191 L53.5683594,183.067871 L58.4755859,175.296875 L53.824707,175.296875 L51.0341797,180.606934 L50.9462891,180.606934 L48.1264648,175.296875 L43.3071289,175.296875 L48.1923828,183.177734 L43.2705078,191 L47.7675781,191 Z M67.2792969,191.322266 C68.3974609,191.322266 69.3752441,191.175781 70.2126465,190.882812 C71.0500488,190.589844 71.7592773,190.199219 72.340332,189.710938 C72.9213867,189.222656 73.3815918,188.686768 73.7209473,188.103271 C74.0603027,187.519775 74.2910156,186.939941 74.4130859,186.36377 L74.449707,186.195312 L70.5239258,186.195312 L70.4946289,186.283203 C70.3969727,186.581055 70.2126465,186.871582 69.9416504,187.154785 C69.6706543,187.437988 69.3203125,187.671143 68.890625,187.854248 C68.4609375,188.037354 67.953125,188.128906 67.3671875,188.128906 C66.625,188.128906 65.9853516,187.965332 65.4482422,187.638184 C64.9111328,187.311035 64.4973145,186.839844 64.2067871,186.224609 C63.9525757,185.686279 63.8095818,185.05262 63.7778053,184.323631 L63.774,184.167 L74.581543,184.166504 L74.581543,182.848145 C74.581543,181.266113 74.2775879,179.884277 73.6696777,178.702637 C73.0617676,177.520996 72.1987305,176.604248 71.0805664,175.952393 C69.9624023,175.300537 68.6367188,174.974609 67.1035156,174.974609 C65.5703125,174.974609 64.2385254,175.310303 63.1081543,175.981689 C61.9777832,176.653076 61.1025391,177.601562 60.4824219,178.827148 C59.8623047,180.052734 59.5522461,181.498047 59.5522461,183.163086 L59.5522461,183.177734 C59.5522461,184.847656 59.8623047,186.292969 60.4824219,187.513672 C61.1025391,188.734375 61.9899902,189.674316 63.1447754,190.333496 C64.2995605,190.992676 65.6777344,191.322266 67.2792969,191.322266 Z M70.484,181.472 L63.822,181.472 L63.8570783,181.231662 C63.9288134,180.802156 64.045383,180.414469 64.2067871,180.068604 C64.4973145,179.446045 64.8989258,178.973633 65.4116211,178.651367 C65.9243164,178.329102 66.5126953,178.167969 67.1767578,178.167969 C67.8408203,178.167969 68.4243164,178.324219 68.9272461,178.636719 C69.4301758,178.949219 69.8232422,179.415527 70.1064453,180.035645 C70.2637804,180.380154 70.3774113,180.770628 70.447338,181.207067 L70.484,181.472 Z M82.9897461,191.322266 C84.1225586,191.322266 85.1064453,191.056152 85.9414062,190.523926 C86.7763672,189.991699 87.4038086,189.259277 87.8237305,188.32666 L87.9116211,188.32666 L87.9116211,191 L92.1889648,191 L92.1889648,169.862305 L87.9116211,169.862305 L87.9116211,178.028809 L87.8237305,178.028809 C87.394043,177.07666 86.7592773,176.32959 85.9194336,175.787598 C85.0795898,175.245605 84.1005859,174.974609 82.9824219,174.974609 C81.6689453,174.974609 80.5349121,175.299316 79.5803223,175.94873 C78.6257324,176.598145 77.8896484,177.531982 77.3720703,178.750244 C76.8544922,179.968506 76.5957031,181.429688 76.5957031,183.133789 L76.5957031,183.148438 C76.5957031,184.847656 76.8532715,186.307617 77.3684082,187.52832 C77.8835449,188.749023 78.6196289,189.686523 79.5766602,190.34082 C80.5336914,190.995117 81.6713867,191.322266 82.9897461,191.322266 Z M84.4179688,187.777344 C83.7099609,187.777344 83.0947266,187.590576 82.5722656,187.217041 C82.0498047,186.843506 81.6481934,186.310059 81.3674316,185.616699 C81.0866699,184.92334 80.9462891,184.100586 80.9462891,183.148438 L80.9462891,183.133789 C80.9462891,182.176758 81.0878906,181.354004 81.3710938,180.665527 C81.6542969,179.977051 82.0559082,179.447266 82.5759277,179.076172 C83.0959473,178.705078 83.7099609,178.519531 84.4179688,178.519531 C85.1113281,178.519531 85.7192383,178.70752 86.2416992,179.083496 C86.7641602,179.459473 87.1743164,179.99292 87.472168,180.683838 C87.7700195,181.374756 87.9189453,182.193848 87.9189453,183.141113 L87.9189453,183.155762 C87.9189453,184.098145 87.7724609,184.916016 87.4794922,185.609375 C87.1865234,186.302734 86.7763672,186.837402 86.2490234,187.213379 C85.7216797,187.589355 85.1113281,187.777344 84.4179688,187.777344 Z M111.063477,191.322266 C112.381836,191.322266 113.519531,190.995117 114.476562,190.34082 C115.433594,189.686523 116.169678,188.749023 116.684814,187.52832 C117.199951,186.307617 117.45752,184.847656 117.45752,183.148438 L117.45752,183.133789 C117.45752,181.429688 117.19873,179.968506 116.681152,178.750244 C116.163574,177.531982 115.428711,176.598145 114.476562,175.94873 C113.524414,175.299316 112.38916,174.974609 111.070801,174.974609 C109.95752,174.974609 108.979736,175.245605 108.137451,175.787598 C107.295166,176.32959 106.65918,177.07666 106.229492,178.028809 L106.141602,178.028809 L106.141602,169.862305 L101.864258,169.862305 L101.864258,191 L106.141602,191 L106.141602,188.32666 L106.229492,188.32666 C106.654297,189.259277 107.282959,189.991699 108.115479,190.523926 C108.947998,191.056152 109.930664,191.322266 111.063477,191.322266 Z M109.635254,187.777344 C108.941895,187.777344 108.332764,187.589355 107.807861,187.213379 C107.282959,186.837402 106.872803,186.302734 106.577393,185.609375 C106.281982,184.916016 106.134277,184.098145 106.134277,183.155762 L106.134277,183.141113 C106.134277,182.193848 106.283203,181.374756 106.581055,180.683838 C106.878906,179.99292 107.290283,179.459473 107.815186,179.083496 C108.340088,178.70752 108.946777,178.519531 109.635254,178.519531 C110.343262,178.519531 110.957275,178.705078 111.477295,179.076172 C111.997314,179.447266 112.398926,179.977051 112.682129,180.665527 C112.965332,181.354004 113.106934,182.176758 113.106934,183.133789 L113.106934,183.148438 C113.106934,184.100586 112.966553,184.92334 112.685791,185.616699 C112.405029,186.310059 112.004639,186.843506 111.484619,187.217041 C110.9646,187.590576 110.348145,187.777344 109.635254,187.777344 Z M124.4375,191 L124.4375,169.862305 L120.160156,169.862305 L120.160156,191 L124.4375,191 Z M134.918457,191.322266 C136.505371,191.322266 137.879883,190.997559 139.041992,190.348145 C140.204102,189.69873 141.10376,188.764893 141.740967,187.546631 C142.378174,186.328369 142.696777,184.864746 142.696777,183.155762 L142.696777,183.126465 C142.696777,181.427246 142.374512,179.969727 141.72998,178.753906 C141.085449,177.538086 140.180908,176.604248 139.016357,175.952393 C137.851807,175.300537 136.483398,174.974609 134.911133,174.974609 C133.348633,174.974609 131.985107,175.301758 130.820557,175.956055 C129.656006,176.610352 128.751465,177.546631 128.106934,178.764893 C127.462402,179.983154 127.140137,181.437012 127.140137,183.126465 L127.140137,183.155762 C127.140137,184.85498 127.45752,186.314941 128.092285,187.535645 C128.727051,188.756348 129.626709,189.692627 130.79126,190.344482 C131.955811,190.996338 133.331543,191.322266 134.918457,191.322266 Z M134.933105,187.967773 C134.22998,187.967773 133.62085,187.779785 133.105713,187.403809 C132.590576,187.027832 132.192627,186.480957 131.911865,185.763184 C131.631104,185.04541 131.490723,184.17627 131.490723,183.155762 L131.490723,183.126465 C131.490723,182.11084 131.632324,181.246582 131.915527,180.533691 C132.19873,179.820801 132.5979,179.275146 133.113037,178.896729 C133.628174,178.518311 134.227539,178.329102 134.911133,178.329102 C135.604492,178.329102 136.20874,178.51709 136.723877,178.893066 C137.239014,179.269043 137.638184,179.814697 137.921387,180.530029 C138.20459,181.245361 138.346191,182.11084 138.346191,183.126465 L138.346191,183.155762 C138.346191,184.17627 138.207031,185.04541 137.928711,185.763184 C137.650391,186.480957 137.256104,187.027832 136.74585,187.403809 C136.235596,187.779785 135.631348,187.967773 134.933105,187.967773 Z M152.467285,191.322266 C153.868652,191.322266 155.088135,191.057373 156.125732,190.527588 C157.16333,189.997803 157.97998,189.278809 158.575684,188.370605 C159.171387,187.462402 159.503418,186.437012 159.571777,185.294434 L159.579102,185.199219 L155.594727,185.199219 L155.572754,185.331055 C155.431152,186.126953 155.099121,186.765381 154.57666,187.246338 C154.054199,187.727295 153.363281,187.967773 152.503906,187.967773 C151.800781,187.967773 151.19165,187.779785 150.676514,187.403809 C150.161377,187.027832 149.764648,186.480957 149.486328,185.763184 C149.208008,185.04541 149.068848,184.17627 149.068848,183.155762 L149.068848,183.141113 C149.068848,182.140137 149.208008,181.280762 149.486328,180.562988 C149.764648,179.845215 150.160156,179.293457 150.672852,178.907715 C151.185547,178.521973 151.791016,178.329102 152.489258,178.329102 C153.373047,178.329102 154.074951,178.581787 154.594971,179.087158 C155.11499,179.592529 155.438477,180.21875 155.56543,180.96582 L155.587402,181.097656 L159.564453,181.097656 L159.557129,180.995117 C159.503418,179.862305 159.181152,178.841797 158.590332,177.933594 C157.999512,177.025391 157.18042,176.305176 156.133057,175.772949 C155.085693,175.240723 153.851562,174.974609 152.430664,174.974609 C150.863281,174.974609 149.502197,175.304199 148.347412,175.963379 C147.192627,176.622559 146.299072,177.561279 145.666748,178.779541 C145.034424,179.997803 144.718262,181.444336 144.718262,183.119141 L144.718262,183.133789 C144.718262,184.818359 145.031982,186.273438 145.659424,187.499023 C146.286865,188.724609 147.18042,189.668213 148.340088,190.329834 C149.499756,190.991455 150.875488,191.322266 152.467285,191.322266 Z M166.449219,169.862305 L162.171875,169.862305 L162.171875,191 L166.449219,191 L166.449,185.805 L167.562,184.578 L172.052246,191 L176.981445,191 L170.766,182.045 L176.688477,175.296875 L171.839844,175.296875 L166.537109,181.581055 L166.449,181.582 L166.449219,169.862305 Z" id="Fixedblock" fill="#000000" fill-rule="nonzero"></path>
        <path d="M24.1982422,451 L24.1982422,436.710449 L24.319,436.711 L30.0283203,451 L32.8041992,451 L38.512,436.711 L38.6342773,436.710449 L38.6342773,451 L42.574707,451 L42.574707,429.862305 L37.4624023,429.862305 L31.4638672,445.060059 L31.3686523,445.060059 L25.3701172,429.862305 L20.2578125,429.862305 L20.2578125,451 L24.1982422,451 Z M53.3193359,451.322266 C54.90625,451.322266 56.2807617,450.997559 57.4428711,450.348145 C58.6049805,449.69873 59.5046387,448.764893 60.1418457,447.546631 C60.7790527,446.328369 61.0976562,444.864746 61.0976562,443.155762 L61.0976562,443.126465 C61.0976562,441.427246 60.7753906,439.969727 60.1308594,438.753906 C59.4863281,437.538086 58.5817871,436.604248 57.4172363,435.952393 C56.2526855,435.300537 54.8842773,434.974609 53.3120117,434.974609 C51.7495117,434.974609 50.3859863,435.301758 49.2214355,435.956055 C48.0568848,436.610352 47.1523438,437.546631 46.5078125,438.764893 C45.8632812,439.983154 45.5410156,441.437012 45.5410156,443.126465 L45.5410156,443.155762 C45.5410156,444.85498 45.8583984,446.314941 46.4931641,447.535645 C47.1279297,448.756348 48.0275879,449.692627 49.1921387,450.344482 C50.3566895,450.996338 51.7324219,451.322266 53.3193359,451.322266 Z M53.3339844,447.967773 C52.6308594,447.967773 52.0217285,447.779785 51.5065918,447.403809 C50.9914551,447.027832 50.5935059,446.480957 50.3127441,445.763184 C50.0319824,445.04541 49.8916016,444.17627 49.8916016,443.155762 L49.8916016,443.126465 C49.8916016,442.11084 50.0332031,441.246582 50.3164062,440.533691 C50.5996094,439.820801 50.9987793,439.275146 51.513916,438.896729 C52.0290527,438.518311 52.628418,438.329102 53.3120117,438.329102 C54.0053711,438.329102 54.6096191,438.51709 55.1247559,438.893066 C55.6398926,439.269043 56.0390625,439.814697 56.3222656,440.530029 C56.6054688,441.245361 56.7470703,442.11084 56.7470703,443.126465 L56.7470703,443.155762 C56.7470703,444.17627 56.6079102,445.04541 56.3295898,445.763184 C56.0512695,446.480957 55.6569824,447.027832 55.1467285,447.403809 C54.6364746,447.779785 54.0322266,447.967773 53.3339844,447.967773 Z M72.1132812,451 L77.5039062,435.296875 L73.0361328,435.296875 L69.7915039,447.220703 L69.7036133,447.220703 L66.4296875,435.296875 L61.8520508,435.296875 L67.2866211,451 L72.1132812,451 Z M81.6054688,433.282715 C82.25,433.282715 82.7919922,433.062988 83.2314453,432.623535 C83.6708984,432.184082 83.890625,431.661621 83.890625,431.056152 C83.890625,430.440918 83.6708984,429.916016 83.2314453,429.481445 C82.7919922,429.046875 82.25,428.82959 81.6054688,428.82959 C80.9658203,428.82959 80.4250488,429.046875 79.9831543,429.481445 C79.5412598,429.916016 79.3203125,430.440918 79.3203125,431.056152 C79.3203125,431.661621 79.5412598,432.184082 79.9831543,432.623535 C80.4250488,433.062988 80.9658203,433.282715 81.6054688,433.282715 Z M83.7441406,451 L83.7441406,435.296875 L79.4667969,435.296875 L79.4667969,451 L83.7441406,451 Z M91.2807617,451 L91.2807617,441.976562 C91.2807617,441.288086 91.4089355,440.685059 91.6652832,440.16748 C91.9216309,439.649902 92.2841797,439.24585 92.7529297,438.955322 C93.2216797,438.664795 93.7734375,438.519531 94.4082031,438.519531 C95.3701172,438.519531 96.0915527,438.801514 96.5725098,439.365479 C97.0534668,439.929443 97.2939453,440.724121 97.2939453,441.749512 L97.2939453,451 L101.571289,451 L101.571289,440.863281 C101.571289,439.022461 101.100098,437.580811 100.157715,436.53833 C99.215332,435.49585 97.8823242,434.974609 96.1586914,434.974609 C94.972168,434.974609 93.9785156,435.233398 93.1777344,435.750977 C92.3769531,436.268555 91.7739258,436.979004 91.3686523,437.882324 L91.2807617,437.882324 L91.2807617,435.296875 L87.003418,435.296875 L87.003418,451 L91.2807617,451 Z M112.008301,456.449219 C113.580566,456.449219 114.94043,456.201416 116.087891,455.705811 C117.235352,455.210205 118.120361,454.520508 118.74292,453.636719 C119.365479,452.75293 119.676758,451.727539 119.676758,450.560547 L119.676758,435.296875 L115.399414,435.296875 L115.399414,437.984863 L115.304199,437.984863 C115.020996,437.369629 114.647461,436.837402 114.183594,436.388184 C113.719727,435.938965 113.180176,435.591064 112.564941,435.344482 C111.949707,435.0979 111.270996,434.974609 110.528809,434.974609 C109.205566,434.974609 108.064209,435.293213 107.104736,435.93042 C106.145264,436.567627 105.404297,437.480713 104.881836,438.669678 C104.359375,439.858643 104.098145,441.290527 104.098145,442.965332 L104.098145,442.97998 C104.098145,444.601074 104.354492,445.993896 104.867188,447.158447 C105.379883,448.322998 106.113525,449.217773 107.068115,449.842773 C108.022705,450.467773 109.154297,450.780273 110.462891,450.780273 C111.219727,450.780273 111.913086,450.67041 112.542969,450.450684 C113.172852,450.230957 113.723389,449.922119 114.19458,449.52417 C114.665771,449.126221 115.038086,448.651367 115.311523,448.099609 L115.399414,448.099609 L115.399414,450.509277 C115.399414,451.383301 115.111328,452.083984 114.535156,452.611328 C113.958984,453.138672 113.119141,453.402344 112.015625,453.402344 C111.12207,453.402344 110.396973,453.25708 109.840332,452.966553 C109.283691,452.676025 108.919922,452.337891 108.749023,451.952148 L108.705078,451.849609 L104.537598,451.849609 L104.55957,451.981445 C104.696289,452.821289 105.07959,453.579346 105.709473,454.255615 C106.339355,454.931885 107.187744,455.466553 108.254639,455.859619 C109.321533,456.252686 110.572754,456.449219 112.008301,456.449219 Z M111.942383,447.645508 C111.234375,447.645508 110.616699,447.461182 110.089355,447.092529 C109.562012,446.723877 109.156738,446.197754 108.873535,445.51416 C108.590332,444.830566 108.44873,444.017578 108.44873,443.075195 L108.44873,443.060547 C108.44873,442.118164 108.591553,441.308838 108.877197,440.632568 C109.162842,439.956299 109.568115,439.435059 110.093018,439.068848 C110.61792,438.702637 111.234375,438.519531 111.942383,438.519531 C112.635742,438.519531 113.242432,438.703857 113.762451,439.07251 C114.282471,439.441162 114.687744,439.964844 114.978271,440.643555 C115.268799,441.322266 115.414062,442.130371 115.414062,443.067871 L115.414062,443.08252 C115.414062,444.015137 115.27002,444.823242 114.981934,445.506836 C114.693848,446.19043 114.289795,446.717773 113.769775,447.088867 C113.249756,447.459961 112.640625,447.645508 111.942383,447.645508 Z M138.492676,451.322266 C139.811035,451.322266 140.94873,450.995117 141.905762,450.34082 C142.862793,449.686523 143.598877,448.749023 144.114014,447.52832 C144.62915,446.307617 144.886719,444.847656 144.886719,443.148438 L144.886719,443.133789 C144.886719,441.429688 144.62793,439.968506 144.110352,438.750244 C143.592773,437.531982 142.85791,436.598145 141.905762,435.94873 C140.953613,435.299316 139.818359,434.974609 138.5,434.974609 C137.386719,434.974609 136.408936,435.245605 135.56665,435.787598 C134.724365,436.32959 134.088379,437.07666 133.658691,438.028809 L133.570801,438.028809 L133.570801,429.862305 L129.293457,429.862305 L129.293457,451 L133.570801,451 L133.570801,448.32666 L133.658691,448.32666 C134.083496,449.259277 134.712158,449.991699 135.544678,450.523926 C136.377197,451.056152 137.359863,451.322266 138.492676,451.322266 Z M137.064453,447.777344 C136.371094,447.777344 135.761963,447.589355 135.237061,447.213379 C134.712158,446.837402 134.302002,446.302734 134.006592,445.609375 C133.711182,444.916016 133.563477,444.098145 133.563477,443.155762 L133.563477,443.141113 C133.563477,442.193848 133.712402,441.374756 134.010254,440.683838 C134.308105,439.99292 134.719482,439.459473 135.244385,439.083496 C135.769287,438.70752 136.375977,438.519531 137.064453,438.519531 C137.772461,438.519531 138.386475,438.705078 138.906494,439.076172 C139.426514,439.447266 139.828125,439.977051 140.111328,440.665527 C140.394531,441.354004 140.536133,442.176758 140.536133,443.133789 L140.536133,443.148438 C140.536133,444.100586 140.395752,444.92334 140.11499,445.616699 C139.834229,446.310059 139.433838,446.843506 138.913818,447.217041 C138.393799,447.590576 137.777344,447.777344 137.064453,447.777344 Z M151.866699,451 L151.866699,429.862305 L147.589355,429.862305 L147.589355,451 L151.866699,451 Z M162.347656,451.322266 C163.93457,451.322266 165.309082,450.997559 166.471191,450.348145 C167.633301,449.69873 168.532959,448.764893 169.170166,447.546631 C169.807373,446.328369 170.125977,444.864746 170.125977,443.155762 L170.125977,443.126465 C170.125977,441.427246 169.803711,439.969727 169.15918,438.753906 C168.514648,437.538086 167.610107,436.604248 166.445557,435.952393 C165.281006,435.300537 163.912598,434.974609 162.340332,434.974609 C160.777832,434.974609 159.414307,435.301758 158.249756,435.956055 C157.085205,436.610352 156.180664,437.546631 155.536133,438.764893 C154.891602,439.983154 154.569336,441.437012 154.569336,443.126465 L154.569336,443.155762 C154.569336,444.85498 154.886719,446.314941 155.521484,447.535645 C156.15625,448.756348 157.055908,449.692627 158.220459,450.344482 C159.38501,450.996338 160.760742,451.322266 162.347656,451.322266 Z M162.362305,447.967773 C161.65918,447.967773 161.050049,447.779785 160.534912,447.403809 C160.019775,447.027832 159.621826,446.480957 159.341064,445.763184 C159.060303,445.04541 158.919922,444.17627 158.919922,443.155762 L158.919922,443.126465 C158.919922,442.11084 159.061523,441.246582 159.344727,440.533691 C159.62793,439.820801 160.0271,439.275146 160.542236,438.896729 C161.057373,438.518311 161.656738,438.329102 162.340332,438.329102 C163.033691,438.329102 163.637939,438.51709 164.153076,438.893066 C164.668213,439.269043 165.067383,439.814697 165.350586,440.530029 C165.633789,441.245361 165.775391,442.11084 165.775391,443.126465 L165.775391,443.155762 C165.775391,444.17627 165.63623,445.04541 165.35791,445.763184 C165.07959,446.480957 164.685303,447.027832 164.175049,447.403809 C163.664795,447.779785 163.060547,447.967773 162.362305,447.967773 Z M179.896484,451.322266 C181.297852,451.322266 182.517334,451.057373 183.554932,450.527588 C184.592529,449.997803 185.40918,449.278809 186.004883,448.370605 C186.600586,447.462402 186.932617,446.437012 187.000977,445.294434 L187.008301,445.199219 L183.023926,445.199219 L183.001953,445.331055 C182.860352,446.126953 182.52832,446.765381 182.005859,447.246338 C181.483398,447.727295 180.79248,447.967773 179.933105,447.967773 C179.22998,447.967773 178.62085,447.779785 178.105713,447.403809 C177.590576,447.027832 177.193848,446.480957 176.915527,445.763184 C176.637207,445.04541 176.498047,444.17627 176.498047,443.155762 L176.498047,443.141113 C176.498047,442.140137 176.637207,441.280762 176.915527,440.562988 C177.193848,439.845215 177.589355,439.293457 178.102051,438.907715 C178.614746,438.521973 179.220215,438.329102 179.918457,438.329102 C180.802246,438.329102 181.50415,438.581787 182.02417,439.087158 C182.544189,439.592529 182.867676,440.21875 182.994629,440.96582 L183.016602,441.097656 L186.993652,441.097656 L186.986328,440.995117 C186.932617,439.862305 186.610352,438.841797 186.019531,437.933594 C185.428711,437.025391 184.609619,436.305176 183.562256,435.772949 C182.514893,435.240723 181.280762,434.974609 179.859863,434.974609 C178.29248,434.974609 176.931396,435.304199 175.776611,435.963379 C174.621826,436.622559 173.728271,437.561279 173.095947,438.779541 C172.463623,439.997803 172.147461,441.444336 172.147461,443.119141 L172.147461,443.133789 C172.147461,444.818359 172.461182,446.273438 173.088623,447.499023 C173.716064,448.724609 174.609619,449.668213 175.769287,450.329834 C176.928955,450.991455 178.304688,451.322266 179.896484,451.322266 Z M193.878418,429.862305 L189.601074,429.862305 L189.601074,451 L193.878418,451 L193.878,445.805 L194.991,444.578 L199.481445,451 L204.410645,451 L198.196,442.045 L204.117676,435.296875 L199.269043,435.296875 L193.966309,441.581055 L193.878,441.582 L193.878418,429.862305 Z" id="Movingblock" fill="#000000" fill-rule="nonzero"></path>
        <rect id="Rectangle" fill="#888888" x="62" y="116" width="201" height="29"></rect>
        <path d="M317.5,27.675 C322.146095,27.675 326.352345,29.5582023 329.397072,32.6029284 C332.441798,35.6476545 334.325,39.8539045 334.325,44.5 L334.325,44.5 L334.325,90.5 C334.325,95.1460955 332.441798,99.3523455 329.397072,102.397072 C326.352345,105.441798 322.146095,107.325 317.5,107.325 C312.853905,107.325 308.647655,105.441798 305.602928,102.397072 C302.558202,99.3523455 300.675,95.1460955 300.675,90.5 L300.675,90.5 L300.675,44.5 C300.675,39.8539045 302.558202,35.6476545 305.602928,32.6029284 C308.647655,29.5582023 312.853905,27.675 317.5,27.675 Z" id="Combined-Shape" stroke="#4A4A4A" stroke-width="1.35" fill="#000000"></path>
        <circle id="Oval" fill="#FFD600" cx="317" cy="88" r="7"></circle>
        <circle id="Oval" fill="#2F2F2F" cx="317" cy="68" r="7"></circle>
        <circle id="Oval" fill="#2F2F2F" cx="317" cy="47" r="7"></circle>
        <path d="M652.5,27.675 C657.146095,27.675 661.352345,29.5582023 664.397072,32.6029284 C667.441798,35.6476545 669.325,39.8539045 669.325,44.5 L669.325,44.5 L669.325,90.5 C669.325,95.1460955 667.441798,99.3523455 664.397072,102.397072 C661.352345,105.441798 657.146095,107.325 652.5,107.325 C647.853905,107.325 643.647655,105.441798 640.602928,102.397072 C637.558202,99.3523455 635.675,95.1460955 635.675,90.5 L635.675,90.5 L635.675,44.5 C635.675,39.8539045 637.558202,35.6476545 640.602928,32.6029284 C643.647655,29.5582023 647.853905,27.675 652.5,27.675 L652.5,27.675 Z" id="Combined-Shape" stroke="#4A4A4A" stroke-width="1.35" fill="#000000"></path>
        <circle id="Oval" fill="#2F2F20" cx="652" cy="88" r="7"></circle>
        <circle id="Oval" fill="#2F2F2F" cx="652" cy="68" r="7"></circle>
        <circle id="Oval" fill="#FF0000" cx="652" cy="47" r="7"></circle>
        <path d="M976.5,27.675 C981.146095,27.675 985.352345,29.5582023 988.397072,32.6029284 C991.441798,35.6476545 993.325,39.8539045 993.325,44.5 L993.325,44.5 L993.325,90.5 C993.325,95.1460955 991.441798,99.3523455 988.397072,102.397072 C985.352345,105.441798 981.146095,107.325 976.5,107.325 C971.853905,107.325 967.647655,105.441798 964.602928,102.397072 C961.558202,99.3523455 959.675,95.1460955 959.675,90.5 L959.675,90.5 L959.675,44.5 C959.675,39.8539045 961.558202,35.6476545 964.602928,32.6029284 C967.647655,29.5582023 971.853905,27.675 976.5,27.675 L976.5,27.675 Z" id="Combined-Shape" stroke="#4A4A4A" stroke-width="1.35" fill="#000000"></path>
        <circle id="Oval" fill="#2F2F2F" cx="976" cy="88" r="7"></circle>
        <circle id="Oval" fill="#2F2F2F" cx="976" cy="68" r="7"></circle>
        <circle id="Oval" fill="#FF0000" cx="976" cy="47" r="7"></circle>
        <rect id="Rectangle" fill="#F2F2F2" x="315" y="130" width="5" height="32"></rect>
        <rect id="Rectangle" fill="#F2F2F2" x="650" y="129" width="5" height="32"></rect>
        <rect id="Rectangle" fill="#F2F2F2" x="974" y="129" width="5" height="32"></rect>
        <rect id="Rectangle" fill="#888888" x="839" y="116" width="201" height="29"></rect>
        <rect id="Rectangle" fill="#888888" x="839" y="377" width="201" height="29"></rect>
        <rect id="Rectangle" fill="#888888" x="499" y="377" width="201" height="29"></rect>
        <g id="Oval" transform="translate(700.000000, 299.000000)">
            <mask id="mask-2" fill="white">
                <use xlink:href="#path-1"></use>
            </mask>
            <g id="Mask"></g>
            <circle stroke="#000000" stroke-width="5" mask="url(#mask-2)" cx="0" cy="107" r="104.5"></circle>
        </g>
        <line x1="935.5" y1="458.5" x2="1079.5" y2="458.5" id="Line" stroke="#000000" stroke-width="5" stroke-linecap="square"></line>
        <path d="M902.202271,492 L902.202271,479.023354 L902.305,479.024 L907.589005,492 L909.61232,492 L914.896,479.024 L914.998863,479.023354 L914.998863,492 L917.501686,492 L917.501686,474.385254 L914.332626,474.385254 L908.647202,488.428871 L908.554504,488.428871 L902.868507,474.385254 L899.699448,474.385254 L899.699448,492 L902.202271,492 Z M924.187912,492.230026 C924.761769,492.230026 925.299324,492.139173 925.800575,491.957466 C926.301826,491.775759 926.751166,491.517568 927.148594,491.182892 C927.546021,490.848216 927.868332,490.453458 928.115524,489.998619 L928.193344,489.998619 L928.193344,492 L930.843032,492 L930.843032,483.121483 C930.843032,482.253639 930.633669,481.500141 930.214943,480.860989 C929.796216,480.221836 929.202999,479.727006 928.435291,479.376499 C927.667583,479.025992 926.75533,478.850739 925.698532,478.850739 C924.653813,478.850739 923.748776,479.020079 922.983421,479.358761 C922.218066,479.697442 921.616488,480.158385 921.178688,480.741589 C920.740888,481.324792 920.486002,481.985657 920.414032,482.724182 L920.401825,482.85598 L922.903885,482.85598 L922.926963,482.753555 C923.043947,482.243785 923.333324,481.831034 923.795093,481.515305 C924.256862,481.199575 924.865529,481.04171 925.621093,481.04171 C926.449518,481.04171 927.085333,481.24249 927.528537,481.644051 C927.971742,482.045611 928.193344,482.599759 928.193344,483.306496 L928.193,484.299 L924.691452,484.506218 C923.16481,484.595482 921.982158,484.97053 921.143497,485.631363 C920.304836,486.292196 919.885505,487.188204 919.885505,488.319389 L919.885505,488.341896 C919.885505,489.113355 920.06699,489.791958 920.429958,490.377705 C920.792926,490.963451 921.297865,491.418608 921.944774,491.743176 C922.591683,492.067743 923.339396,492.230026 924.187912,492.230026 Z M924.911369,490.108864 C924.201327,490.108864 923.630648,489.94445 923.199333,489.615623 C922.768018,489.286797 922.55236,488.837934 922.55236,488.269035 L922.55236,488.246529 C922.55236,487.693906 922.766301,487.252673 923.194183,486.922829 C923.622065,486.592985 924.238584,486.404666 925.043739,486.357872 L928.193,486.161 L928.193344,487.181084 C928.193344,487.735614 928.04918,488.234608 927.760852,488.678066 C927.472525,489.121525 927.081487,489.470856 926.587738,489.726059 C926.093989,489.981262 925.535199,490.108864 924.911369,490.108864 Z M935.592134,492 L938.441903,487.268631 L938.519723,487.268631 L941.363008,492 L944.291551,492 L940.091951,485.472862 L944.327791,479.103653 L941.405542,479.103653 L938.634164,483.754723 L938.556535,483.754723 L935.754258,479.103653 L932.766778,479.103653 L936.985071,485.563271 L932.722909,492 L935.592134,492 Z M947.687243,477.074615 C948.124916,477.074615 948.493956,476.923267 948.794364,476.620571 C949.094771,476.317875 949.244975,475.955638 949.244975,475.533859 C949.244975,475.103943 949.094771,474.739639 948.794364,474.440948 C948.493956,474.142258 948.124916,473.992912 947.687243,473.992912 C947.256437,473.992912 946.889113,474.142258 946.585273,474.440948 C946.281432,474.739639 946.129512,475.103943 946.129512,475.533859 C946.129512,475.955638 946.281432,476.317875 946.585273,476.620571 C946.889113,476.923267 947.256437,477.074615 947.687243,477.074615 Z M949.012088,492 L949.012088,479.103653 L946.359919,479.103653 L946.359919,492 L949.012088,492 Z M954.661943,492 L954.661943,484.036247 C954.661943,483.47625 954.777655,482.978082 955.00908,482.541744 C955.240505,482.105406 955.557856,481.760113 955.961133,481.505863 C956.36441,481.251614 956.826593,481.124489 957.34768,481.124489 C958.09587,481.124489 958.689214,481.343739 959.127714,481.782238 C959.566213,482.220737 959.785463,482.815163 959.785463,483.565514 L959.785463,492 L962.397004,492 L962.397004,483.924667 C962.397004,483.381073 962.508839,482.898514 962.732507,482.47699 C962.956176,482.055466 963.267963,481.724668 963.667871,481.484596 C964.067778,481.244525 964.530501,481.124489 965.056039,481.124489 C965.851149,481.124489 966.461151,481.354324 966.886045,481.813995 C967.310939,482.273666 967.523385,482.923627 967.523385,483.763878 L967.523385,492 L970.175554,492 L970.175554,483.12606 C970.175554,482.257708 970.002462,481.504528 969.656278,480.86652 C969.310094,480.228512 968.823275,479.733046 968.195821,479.380123 C967.568367,479.0272 966.828475,478.850739 965.976144,478.850739 C965.365665,478.850739 964.796958,478.952655 964.270021,479.156487 C963.743084,479.360319 963.282364,479.64925 962.887861,480.023281 C962.493357,480.397312 962.185289,480.844744 961.963655,481.365578 L961.885835,481.365578 C961.716081,480.832283 961.461005,480.379002 961.120607,480.005733 C960.780209,479.632465 960.372004,479.346649 959.895994,479.148285 C959.419983,478.949921 958.885766,478.850739 958.293344,478.850739 C957.452457,478.850739 956.719718,479.054952 956.095125,479.463379 C955.470532,479.871806 955.018744,480.415527 954.739763,481.094543 L954.661943,481.094543 L954.661943,479.103653 L952.009775,479.103653 L952.009775,492 L954.661943,492 Z M977.387238,492.252914 C978.363038,492.252914 979.178493,492.05188 979.833603,491.649811 C980.488714,491.247742 980.98418,490.716609 981.32,490.056412 L981.39782,490.056412 L981.39782,492 L984.049988,492 L984.049988,479.103653 L981.39782,479.103653 L981.39782,486.632149 C981.39782,487.299212 981.272634,487.885022 981.022263,488.38958 C980.771892,488.894137 980.416521,489.285207 979.956151,489.56279 C979.49578,489.840373 978.950692,489.979164 978.320885,489.979164 C977.400017,489.979164 976.714389,489.717317 976.264,489.193623 C975.813612,488.669928 975.588418,487.915476 975.588418,486.930267 L975.588418,479.103653 L972.936249,479.103653 L972.936249,487.455933 C972.936249,488.445847 973.109691,489.299894 973.456574,490.018074 C973.803457,490.736254 974.308809,491.288273 974.97263,491.674129 C975.636451,492.059986 976.44132,492.252914 977.387238,492.252914 Z M989.599741,492 L989.599741,484.036247 C989.599741,483.47625 989.715454,482.978082 989.946879,482.541744 C990.178304,482.105406 990.495655,481.760113 990.898932,481.505863 C991.302209,481.251614 991.764391,481.124489 992.285479,481.124489 C993.033668,481.124489 993.627013,481.343739 994.065512,481.782238 C994.504012,482.220737 994.723261,482.815163 994.723261,483.565514 L994.723261,492 L997.334803,492 L997.334803,483.924667 C997.334803,483.381073 997.446637,482.898514 997.670306,482.47699 C997.893974,482.055466 998.205762,481.724668 998.60567,481.484596 C999.005577,481.244525 999.4683,481.124489 999.993838,481.124489 C1000.78895,481.124489 1001.39895,481.354324 1001.82384,481.813995 C1002.24874,482.273666 1002.46118,482.923627 1002.46118,483.763878 L1002.46118,492 L1005.11335,492 L1005.11335,483.12606 C1005.11335,482.257708 1004.94026,481.504528 1004.59408,480.86652 C1004.24789,480.228512 1003.76107,479.733046 1003.13362,479.380123 C1002.50617,479.0272 1001.76627,478.850739 1000.91394,478.850739 C1000.30346,478.850739 999.734756,478.952655 999.20782,479.156487 C998.680883,479.360319 998.220163,479.64925 997.825659,480.023281 C997.431156,480.397312 997.123087,480.844744 996.901454,481.365578 L996.823634,481.365578 C996.65388,480.832283 996.398804,480.379002 996.058405,480.005733 C995.718007,479.632465 995.309803,479.346649 994.833792,479.148285 C994.357782,478.949921 993.823565,478.850739 993.231143,478.850739 C992.390256,478.850739 991.657516,479.054952 991.032923,479.463379 C990.40833,479.871806 989.956543,480.415527 989.677561,481.094543 L989.599741,481.094543 L989.599741,479.103653 L986.947573,479.103653 L986.947573,492 L989.599741,492 Z M1019.69707,492.315285 C1021.0869,492.315285 1022.28433,492.100136 1023.28938,491.669838 C1024.29442,491.23954 1025.06753,490.62833 1025.60871,489.836208 C1026.14989,489.044086 1026.42048,488.108182 1026.42048,487.028496 L1026.42048,487.016289 C1026.42048,485.664233 1026.0089,484.597167 1025.18576,483.81509 C1024.36261,483.033014 1023.03837,482.447235 1021.21304,482.057755 L1019.29348,481.64901 C1018.18976,481.412244 1017.38006,481.083481 1016.86438,480.66272 C1016.34869,480.241959 1016.09085,479.703005 1016.09085,479.04586 L1016.09085,479.033653 C1016.09085,478.51371 1016.23842,478.060969 1016.53355,477.67543 C1016.82868,477.289892 1017.24496,476.989643 1017.78238,476.774685 C1018.31981,476.559727 1018.94806,476.452248 1019.66713,476.452248 C1020.36687,476.451358 1020.98183,476.556325 1021.51201,476.767151 C1022.04219,476.977976 1022.47023,477.276318 1022.79613,477.662174 C1023.12204,478.048031 1023.32434,478.512184 1023.40305,479.054634 L1023.42556,479.215424 L1026.09261,479.215424 L1026.0804,479.021446 C1026.01796,478.045011 1025.714,477.184542 1025.1685,476.440041 C1024.62299,475.695539 1023.8831,475.114401 1022.94882,474.696629 C1022.01454,474.278856 1020.93355,474.069969 1019.70585,474.069969 C1018.4662,474.069969 1017.36598,474.284705 1016.40518,474.714176 C1015.44439,475.143648 1014.69108,475.739058 1014.14526,476.500408 C1013.59944,477.261758 1013.32322,478.1468 1013.31661,479.155533 L1013.31661,479.16774 C1013.31661,480.468424 1013.73709,481.524206 1014.57804,482.335083 C1015.41899,483.14596 1016.70546,483.736984 1018.43746,484.108154 L1020.35702,484.515564 C1021.52635,484.767715 1022.36689,485.104458 1022.87863,485.525791 C1023.39037,485.947124 1023.64624,486.509379 1023.64624,487.212555 L1023.64624,487.224762 C1023.64624,487.769628 1023.48853,488.246306 1023.17312,488.654797 C1022.85771,489.063287 1022.4133,489.378445 1021.83989,489.600269 C1021.26647,489.822094 1020.58914,489.933006 1019.80789,489.933006 C1019.02639,489.933006 1018.33342,489.825718 1017.72898,489.611141 C1017.12454,489.396564 1016.63848,489.093201 1016.27081,488.70105 C1015.90314,488.308899 1015.67823,487.844777 1015.59608,487.308685 L1015.57339,487.153236 L1012.90215,487.153236 L1012.91435,487.331573 C1012.98772,488.35493 1013.31197,489.240035 1013.8871,489.986889 C1014.46223,490.733743 1015.24494,491.308523 1016.23524,491.711227 C1017.22553,492.113932 1018.37948,492.315285 1019.69707,492.315285 Z M1031.49178,496.292107 L1031.49178,489.846031 L1031.5696,489.846031 C1031.82493,490.341942 1032.15255,490.76922 1032.55246,491.127865 C1032.95236,491.48651 1033.41432,491.763076 1033.93834,491.957561 C1034.46235,492.152047 1035.0268,492.24929 1035.63168,492.24929 C1036.71442,492.24929 1037.65601,491.976889 1038.45646,491.432087 C1039.25691,490.887285 1039.87893,490.115063 1040.32252,489.115421 C1040.7661,488.11578 1040.9879,486.931348 1040.9879,485.562126 L1040.9879,485.548203 C1040.9879,484.178853 1040.76674,482.992991 1040.32442,481.990616 C1039.88211,480.988241 1039.2572,480.214938 1038.44969,479.670708 C1037.64218,479.126478 1036.69102,478.854362 1035.5962,478.854362 C1034.98661,478.854362 1034.42423,478.952972 1033.90906,479.150192 C1033.39388,479.347412 1032.9399,479.626521 1032.54712,479.987518 C1032.15433,480.348516 1031.82913,480.782374 1031.57151,481.289093 L1031.49178,481.289093 L1031.49178,479.103653 L1028.83961,479.103653 L1028.83961,496.292107 L1031.49178,496.292107 Z M1034.89315,489.97554 C1034.21846,489.97554 1033.6255,489.793897 1033.11427,489.430611 C1032.60303,489.067324 1032.20173,488.555297 1031.91035,487.894527 C1031.61897,487.233758 1031.47328,486.4568 1031.47328,485.563652 L1031.47328,485.549919 C1031.47328,484.648633 1031.61751,483.867956 1031.90596,483.207886 C1032.19441,482.547816 1032.59601,482.03617 1033.11074,481.672947 C1033.62547,481.309724 1034.21961,481.128113 1034.89315,481.128113 C1035.59061,481.128113 1036.19301,481.305242 1036.70037,481.6595 C1037.20772,482.013758 1037.59822,482.520986 1037.87186,483.181183 C1038.1455,483.84138 1038.28232,484.630386 1038.28232,485.548203 L1038.28232,485.562126 C1038.28232,486.466082 1038.14582,487.248381 1037.87281,487.909023 C1037.59981,488.569665 1037.20963,489.079245 1036.70227,489.437763 C1036.19492,489.796281 1035.59188,489.97554 1034.89315,489.97554 Z M1048.81184,492.252914 C1049.6011,492.252914 1050.31359,492.147088 1050.94931,491.935436 C1051.58503,491.723784 1052.13819,491.434408 1052.6088,491.067307 C1053.07941,490.700205 1053.46018,490.285421 1053.75111,489.822952 C1054.04205,489.360484 1054.23996,488.880976 1054.34487,488.38443 L1054.37157,488.258354 L1051.84433,488.258736 L1051.81057,488.355247 C1051.70414,488.664874 1051.51939,488.951103 1051.2563,489.213936 C1050.99321,489.476768 1050.66111,489.687689 1050.26,489.846699 C1049.85888,490.005708 1049.39543,490.085213 1048.86963,490.085213 C1048.15438,490.085213 1047.53535,489.927284 1047.01254,489.611427 C1046.48974,489.29557 1046.08659,488.840795 1045.80309,488.247101 C1045.55504,487.727619 1045.4155,487.11526 1045.3845,486.410026 L1045.38,486.23 L1054.51233,486.229507 L1054.51233,485.327332 C1054.51233,484.034276 1054.277,482.901248 1053.80633,481.928246 C1053.33566,480.955243 1052.6638,480.199075 1051.79074,479.65974 C1050.91768,479.120406 1049.87849,478.850739 1048.67318,478.850739 C1047.4685,478.850739 1046.42098,479.131119 1045.53063,479.691879 C1044.64028,480.25264 1043.9501,481.037895 1043.46011,482.047646 C1042.97011,483.057396 1042.72511,484.234675 1042.72511,485.579483 L1042.72511,485.59169 C1042.72511,486.948578 1042.96903,488.126111 1043.45686,489.12429 C1043.9447,490.12247 1044.64359,490.893452 1045.55352,491.437237 C1046.46345,491.981022 1047.54956,492.252914 1048.81184,492.252914 Z M1051.894,484.352 L1045.414,484.352 L1045.42563,484.240567 C1045.48934,483.716992 1045.61675,483.254001 1045.80786,482.851593 C1046.09454,482.247981 1046.48755,481.791552 1046.98689,481.482307 C1047.48623,481.173063 1048.05323,481.01844 1048.68786,481.01844 C1049.3225,481.01844 1049.88304,481.166419 1050.36948,481.462376 C1050.85591,481.758333 1051.23726,482.206242 1051.51351,482.806103 C1051.69767,483.20601 1051.82045,483.674907 1051.88184,484.212794 L1051.894,484.352 Z M1062.32789,492.252914 C1063.11715,492.252914 1063.82964,492.147088 1064.46536,491.935436 C1065.10108,491.723784 1065.65424,491.434408 1066.12485,491.067307 C1066.59546,490.700205 1066.97623,490.285421 1067.26716,489.822952 C1067.5581,489.360484 1067.75601,488.880976 1067.86092,488.38443 L1067.88762,488.258354 L1065.36038,488.258736 L1065.32662,488.355247 C1065.22019,488.664874 1065.03544,488.951103 1064.77235,489.213936 C1064.50926,489.476768 1064.17716,489.687689 1063.77605,489.846699 C1063.37493,490.005708 1062.91148,490.085213 1062.38568,490.085213 C1061.67043,490.085213 1061.0514,489.927284 1060.52859,489.611427 C1060.00579,489.29557 1059.60264,488.840795 1059.31914,488.247101 C1059.07109,487.727619 1058.93155,487.11526 1058.90055,486.410026 L1058.896,486.23 L1068.02838,486.229507 L1068.02838,485.327332 C1068.02838,484.034276 1067.79305,482.901248 1067.32238,481.928246 C1066.85171,480.955243 1066.17985,480.199075 1065.30679,479.65974 C1064.43373,479.120406 1063.39454,478.850739 1062.18923,478.850739 C1060.98455,478.850739 1059.93703,479.131119 1059.04668,479.691879 C1058.15633,480.25264 1057.46616,481.037895 1056.97616,482.047646 C1056.48616,483.057396 1056.24116,484.234675 1056.24116,485.579483 L1056.24116,485.59169 C1056.24116,486.948578 1056.48508,488.126111 1056.97291,489.12429 C1057.46075,490.12247 1058.15964,490.893452 1059.06957,491.437237 C1059.9795,491.981022 1061.06561,492.252914 1062.32789,492.252914 Z M1065.41,484.352 L1058.93,484.352 L1058.94168,484.240567 C1059.00539,483.716992 1059.1328,483.254001 1059.32391,482.851593 C1059.61059,482.247981 1060.0036,481.791552 1060.50294,481.482307 C1061.00228,481.173063 1061.56928,481.01844 1062.20391,481.01844 C1062.83855,481.01844 1063.39909,481.166419 1063.88553,481.462376 C1064.37197,481.758333 1064.75331,482.206242 1065.02956,482.806103 C1065.21372,483.20601 1065.3365,483.674907 1065.39789,484.212794 L1065.41,484.352 Z M1075.14509,492.24929 C1076.06952,492.24929 1076.87785,492.034396 1077.57009,491.604607 C1078.26233,491.174817 1078.79874,490.58462 1079.17932,489.834015 L1079.25714,489.834015 L1079.25714,492 L1081.90931,492 L1081.90931,474.270622 L1079.25714,474.270622 L1079.25714,481.273071 L1079.17932,481.273071 C1078.80001,480.524119 1078.25636,479.933763 1077.54835,479.502003 C1076.84034,479.070243 1076.03194,478.854362 1075.12315,478.854362 C1074.04474,478.854362 1073.10324,479.126128 1072.29866,479.669659 C1071.49407,480.213189 1070.86935,480.984776 1070.4245,481.984417 C1069.97964,482.984058 1069.75721,484.169126 1069.75721,485.539619 L1069.75721,485.553543 C1069.75721,486.921366 1069.97837,488.106752 1070.42068,489.109699 C1070.863,490.112647 1071.48816,490.886649 1072.29618,491.431705 C1073.10419,491.976762 1074.05383,492.24929 1075.14509,492.24929 Z M1075.85176,489.97554 C1075.15533,489.97554 1074.55289,489.797775 1074.04445,489.442245 C1073.53602,489.086716 1073.1453,488.577199 1072.87229,487.913696 C1072.59929,487.250193 1072.46278,486.463476 1072.46278,485.553543 L1072.46278,485.539619 C1072.46278,484.62778 1072.59961,483.843192 1072.87325,483.185856 C1073.14689,482.52852 1073.53764,482.021229 1074.0455,481.663982 C1074.55337,481.306736 1075.15545,481.128113 1075.85176,481.128113 C1076.52671,481.128113 1077.11974,481.309756 1077.63084,481.673042 C1078.14195,482.036329 1078.54322,482.548102 1078.83466,483.208363 C1079.12611,483.868623 1079.27183,484.646472 1079.27183,485.541908 L1079.27183,485.555832 C1079.27183,486.448853 1079.12792,487.227114 1078.8401,487.890617 C1078.55228,488.55412 1078.15107,489.067483 1077.63647,489.430706 C1077.12187,489.793929 1076.52696,489.97554 1075.85176,489.97554 Z" id="MaximumSpeed" fill="#000000" fill-rule="nonzero"></path>
        <rect id="Rectangle" fill="#888888" x="159" y="377" width="201" height="29"></rect>
        <g id="Oval" transform="translate(360.000000, 299.000000)">
            <mask id="mask-4" fill="white">
                <use xlink:href="#path-3"></use>
            </mask>
            <g id="Mask"></g>
            <circle stroke="#000000" stroke-width="5" mask="url(#mask-4)" cx="0" cy="107" r="104.5"></circle>
        </g>
        <rect id="Rectangle" fill="#888888" x="-181" y="376" width="201" height="29"></rect>
        <g id="Oval" transform="translate(20.000000, 298.000000)">
            <mask id="mask-6" fill="white">
                <use xlink:href="#path-5"></use>
            </mask>
            <g id="Mask"></g>
            <circle stroke="#000000" stroke-width="5" mask="url(#mask-6)" cx="0" cy="107" r="104.5"></circle>
        </g>
    </g>
</svg>