<?xml version="1.0" encoding="UTF-8"?>
<svg width="1100px" height="550px" viewBox="0 0 1100 550" version="1.1" xmlns="http://www.w3.org/2000/svg" xmlns:xlink="http://www.w3.org/1999/xlink">
    <title>Artboard</title>
    <g id="Artboard" stroke="none" stroke-width="1" fill="none" fill-rule="evenodd">
        <line x1="0" y1="419.25" x2="1650" y2="418.5" id="Path-2" stroke="#4A4A4A" stroke-width="30"></line>
        <rect id="Rectangle" fill="#FFFFFF" x="131" y="323" width="288" height="96"></rect>
        <rect id="Rectangle" fill="#1A242F" x="546" y="395" width="8" height="48"></rect>
        <rect id="Rectangle" fill="#FFFFFF" x="131" y="323" width="288" height="96"></rect>
        <g id="Group" transform="translate(522.000000, 108.000000)">
            <path d="M28.5,1.11260682 C36.0628198,1.11260682 42.9096681,4.17804522 47.8658114,9.13418856 C52.8219548,14.0903319 55.8873932,20.9371802 55.8873932,28.5 L55.8873932,28.5 L55.8873932,138.5 C55.8873932,146.06282 52.8219548,152.909668 47.8658114,157.865811 C42.9096681,162.821955 36.0628198,165.887393 28.5,165.887393 C20.9371802,165.887393 14.0903319,162.821955 9.13418856,157.865811 C4.17804522,152.909668 1.11260682,146.06282 1.11260682,138.5 L1.11260682,138.5 L1.11260682,28.5 C1.11260682,20.9371802 4.17804522,14.0903319 9.13418856,9.13418856 C14.0903319,4.17804522 20.9371802,1.11260682 28.5,1.11260682 Z" id="Combined-Shape" stroke="#4A4A4A" stroke-width="2.22521364" fill="#000000"></path>
            <ellipse id="Oval" fill="#2F2F2F" cx="28.5" cy="66.8" rx="10.9615385" ry="11.1333333"></ellipse>
            <ellipse id="Oval" fill="#0046FF" cx="28.5" cy="33.4" rx="10.9615385" ry="11.1333333"></ellipse>
            <ellipse id="Oval" fill="#2F2F2F" cx="28.5" cy="100.2" rx="10.9615385" ry="11.1333333"></ellipse>
            <ellipse id="Oval" fill="#FF0000" cx="28.5" cy="133.6" rx="10.9615385" ry="11.1333333"></ellipse>
        </g>
        <rect id="Rectangle" fill="#FFFFFF" x="680" y="323" width="288" height="96"></rect>
        <rect id="Rectangle" fill="#FFFFFF" x="680" y="323" width="288" height="96"></rect>
        <path d="M726.397654,362 L726.397654,358.449471 L713.726755,358.449471 L713.726755,350.263798 L725.720163,350.263798 L725.720163,346.82399 L713.726755,346.82399 L713.726755,339.12841 L726.397654,339.12841 L726.397654,335.577881 L709.611746,335.577881 L709.611746,362 L726.397654,362 Z M747.791932,368.408691 L747.791932,342.742168 L743.813679,342.742168 L743.813679,346.042072 L743.723557,346.042072 C743.346474,345.307171 742.864154,344.666969 742.276595,344.121468 C741.689036,343.575966 741.014598,343.151438 740.253279,342.847883 C739.491961,342.544329 738.65516,342.392551 737.742875,342.392551 C736.115906,342.392551 734.695981,342.798435 733.483098,343.610203 C732.270215,344.42197 731.3256,345.569765 730.649254,347.053587 C729.972909,348.537409 729.634736,350.298798 729.634736,352.337753 L729.634736,352.356064 C729.634736,354.392921 729.966805,356.160748 730.630944,357.659542 C731.295083,359.158337 732.230542,360.314714 733.437321,361.128675 C734.644101,361.942636 736.053727,362.349617 737.666199,362.349617 C738.59298,362.349617 739.446185,362.205898 740.225814,361.918461 C741.005442,361.631023 741.692612,361.224234 742.287324,360.698092 C742.882035,360.171949 743.361924,359.54982 743.72699,358.831703 L743.813679,358.831703 L743.813679,368.408691 L747.791932,368.408691 Z M738.784859,358.938992 C737.749169,358.938992 736.847613,358.673632 736.080191,358.142912 C735.31277,357.612192 734.723065,356.854164 734.311078,355.868828 C733.89909,354.883492 733.693097,353.71257 733.693097,352.356064 L733.693097,352.337753 C733.693097,350.999176 733.899663,349.842131 734.312794,348.866617 C734.725926,347.891104 735.315631,347.136652 736.081908,346.603262 C736.848185,346.069872 737.749169,345.803177 738.784859,345.803177 C739.782975,345.803177 740.660212,346.072399 741.416571,346.610844 C742.17293,347.149288 742.762635,347.906219 743.185685,348.881638 C743.608735,349.857056 743.82026,351.010239 743.82026,352.341187 L743.82026,352.359497 C743.82026,353.688156 743.609307,354.847681 743.187401,355.838072 C742.765496,356.828463 742.178319,357.59288 741.42587,358.131325 C740.673421,358.669769 739.793084,358.938992 738.784859,358.938992 Z M758.603867,362.379658 C760.069855,362.379658 761.293658,362.077438 762.275275,361.473 C763.256892,360.868561 764.001855,360.077106 764.510163,359.098637 L764.596852,359.098637 L764.596852,362 L768.575104,362 L768.575104,342.742168 L764.596852,342.742168 L764.596852,353.975117 C764.596852,354.966557 764.408597,355.839073 764.032086,356.592667 C763.655575,357.34626 763.124665,357.930719 762.439355,358.346045 C761.754044,358.76137 760.947808,358.969032 760.020646,358.969032 C758.652123,358.969032 757.627638,358.578836 756.947192,357.798445 C756.266745,357.018053 755.926522,355.902016 755.926522,354.450333 L755.926522,342.742168 L751.948269,342.742168 L751.948269,355.215942 C751.948269,356.687653 752.209338,357.959854 752.731474,359.032547 C753.253611,360.10524 754.011019,360.931265 755.003699,361.510622 C755.996379,362.089979 757.196435,362.379658 758.603867,362.379658 Z M774.991409,339.778149 C775.642578,339.778149 776.190607,339.553701 776.635496,339.104807 C777.080385,338.655912 777.302829,338.118755 777.302829,337.493336 C777.302829,336.855709 777.080385,336.315548 776.635496,335.872852 C776.190607,335.430157 775.642578,335.208809 774.991409,335.208809 C774.350349,335.208809 773.804847,335.430157 773.354904,335.872852 C772.90496,336.315548 772.679988,336.855709 772.679988,337.493336 C772.679988,338.118755 772.90496,338.655912 773.354904,339.104807 C773.804847,339.553701 774.350349,339.778149 774.991409,339.778149 Z M776.980678,362 L776.980678,342.742168 L773.002139,342.742168 L773.002139,362 L776.980678,362 Z M785.386158,368.408691 L785.386158,358.75703 L785.472847,358.75703 C785.860039,359.505093 786.352945,360.149633 786.951566,360.690653 C787.550188,361.231672 788.241792,361.648428 789.02638,361.94092 C789.810968,362.233412 790.656639,362.379658 791.563392,362.379658 C793.178154,362.379658 794.583393,361.97263 795.77911,361.158573 C796.974827,360.344517 797.904707,359.190571 798.56875,357.696735 C799.232794,356.2029 799.564815,354.43269 799.564815,352.386105 L799.564815,352.367794 C799.564815,350.318729 799.234176,348.5448 798.572899,347.046005 C797.911621,345.547211 796.97702,344.39193 795.769096,343.580162 C794.561172,342.768394 793.138767,342.362511 791.50188,342.362511 C790.589596,342.362511 789.747787,342.511808 788.976455,342.810404 C788.205124,343.108999 787.525678,343.531048 786.93812,344.07655 C786.350561,344.622051 785.863281,345.277225 785.47628,346.042072 L785.386158,346.042072 L785.386158,342.742168 L781.407905,342.742168 L781.407905,368.408691 L785.386158,368.408691 Z M790.45961,358.969032 C789.461494,358.969032 788.581777,358.69733 787.820459,358.153927 C787.059141,357.610523 786.459471,356.846106 786.021448,355.860674 C785.583425,354.875242 785.364414,353.718102 785.364414,352.389252 L785.364414,352.370941 C785.364414,351.030075 785.580946,349.866926 786.014009,348.881495 C786.447073,347.896063 787.047315,347.131645 787.814737,346.588242 C788.582159,346.044838 789.463783,345.773136 790.45961,345.773136 C791.4953,345.773136 792.391325,346.037399 793.147684,346.565926 C793.904043,347.094452 794.486261,347.851383 794.894338,348.83672 C795.302416,349.822056 795.506454,350.999081 795.506454,352.367794 L795.506454,352.386105 C795.506454,353.732502 795.302988,354.898417 794.896055,355.883848 C794.489122,356.86928 793.907476,357.629835 793.151117,358.165514 C792.394758,358.701193 791.497589,358.969032 790.45961,358.969032 Z M806.956036,368.408691 L806.956036,358.75703 L807.042725,358.75703 C807.429916,359.505093 807.922823,360.149633 808.521444,360.690653 C809.120066,361.231672 809.81167,361.648428 810.596258,361.94092 C811.380846,362.233412 812.226517,362.379658 813.13327,362.379658 C814.748032,362.379658 816.153271,361.97263 817.348988,361.158573 C818.544704,360.344517 819.474585,359.190571 820.138628,357.696735 C820.802671,356.2029 821.134693,354.43269 821.134693,352.386105 L821.134693,352.367794 C821.134693,350.318729 820.804054,348.5448 820.142777,347.046005 C819.481499,345.547211 818.546898,344.39193 817.338974,343.580162 C816.13105,342.768394 814.708645,342.362511 813.071758,342.362511 C812.159473,342.362511 811.317665,342.511808 810.546333,342.810404 C809.775002,343.108999 809.095556,343.531048 808.507998,344.07655 C807.920439,344.622051 807.433159,345.277225 807.046158,346.042072 L806.956036,346.042072 L806.956036,342.742168 L802.977783,342.742168 L802.977783,368.408691 L806.956036,368.408691 Z M812.029488,358.969032 C811.031372,358.969032 810.151655,358.69733 809.390337,358.153927 C808.629019,357.610523 808.029348,356.846106 807.591326,355.860674 C807.153303,354.875242 806.934292,353.718102 806.934292,352.389252 L806.934292,352.370941 C806.934292,351.030075 807.150824,349.866926 807.583887,348.881495 C808.016951,347.896063 808.617193,347.131645 809.384615,346.588242 C810.152037,346.044838 811.033661,345.773136 812.029488,345.773136 C813.065178,345.773136 813.961203,346.037399 814.717562,346.565926 C815.473921,347.094452 816.056139,347.851383 816.464216,348.83672 C816.872294,349.822056 817.076332,350.999081 817.076332,352.367794 L817.076332,352.386105 C817.076332,353.732502 816.872866,354.898417 816.465933,355.883848 C816.059,356.86928 815.477354,357.629835 814.720995,358.165514 C813.964636,358.701193 813.067467,358.969032 812.029488,358.969032 Z M832.787407,362.379658 C833.956993,362.379658 835.015858,362.221682 835.964001,361.905729 C836.912144,361.589777 837.739743,361.155617 838.446797,360.603249 C839.153851,360.05088 839.726246,359.424507 840.163983,358.724129 C840.601719,358.02375 840.898789,357.294094 841.055191,356.53516 L841.095246,356.342041 L837.312687,356.342041 L837.264622,356.486809 C837.103833,356.971085 836.826027,357.413446 836.431206,357.813894 C836.036385,358.214342 835.539521,358.533823 834.940613,358.772337 C834.341706,359.010851 833.652867,359.130108 832.874096,359.130108 C831.807125,359.130108 830.883826,358.894693 830.104197,358.423864 C829.324568,357.953035 828.723229,357.275116 828.300179,356.390106 C827.919434,355.593597 827.710024,354.650704 827.67195,353.561427 L827.668,353.383 L841.306389,353.382885 L841.306389,352.036201 C841.306389,350.105202 840.954483,348.412764 840.250672,346.958887 C839.54686,345.505011 838.54245,344.375479 837.237442,343.570292 C835.932434,342.765104 834.379662,342.362511 832.579125,342.362511 C830.778588,342.362511 829.213417,342.781174 827.883614,343.6185 C826.55381,344.455826 825.522555,345.628893 824.789847,347.137701 C824.057139,348.646509 823.690785,350.404846 823.690785,352.412712 L823.690785,352.431023 C823.690785,354.456436 824.055184,356.214725 824.783982,357.705891 C825.51278,359.197056 826.557387,360.348808 827.917803,361.161148 C829.278219,361.973488 830.901421,362.379658 832.787407,362.379658 Z M837.383,350.571 L827.72,350.571 L827.75029,350.309468 C827.849091,349.572192 828.034342,348.917197 828.306044,348.344481 C828.733004,347.444498 829.319084,346.764099 830.064286,346.303284 C830.809487,345.842468 831.65511,345.612061 832.601155,345.612061 C833.5472,345.612061 834.382857,345.832502 835.108126,346.273386 C835.833395,346.71427 836.402024,347.382175 836.814011,348.277103 C837.076185,348.846603 837.254939,349.509524 837.350275,350.265867 L837.383,350.571 Z M851.908629,362.379658 C853.293746,362.379658 854.504292,362.054741 855.540269,361.404907 C856.576245,360.755074 857.379859,359.864628 857.95111,358.73357 L858.037799,358.73357 L858.037799,362 L862.016337,362 L862.016337,335.577881 L858.037799,335.577881 L858.037799,346.012032 L857.95111,346.012032 C857.375472,344.879829 856.558888,343.988525 855.501359,343.33812 C854.44383,342.687714 853.233569,342.362511 851.870578,342.362511 C850.263446,342.362511 848.858445,342.768394 847.655576,343.580162 C846.452706,344.39193 845.518105,345.544731 844.851773,347.038567 C844.185441,348.532402 843.852275,350.303757 843.852275,352.352631 L843.852275,352.370941 C843.852275,354.417717 844.182961,356.190502 844.844335,357.689297 C845.505708,359.188091 846.440309,360.344517 847.648137,361.158573 C848.855966,361.97263 850.27613,362.379658 851.908629,362.379658 Z M852.957767,358.969032 C851.921885,358.969032 851.025241,358.703672 850.267833,358.172953 C849.510425,357.642233 848.928206,356.881678 848.521178,355.891287 C848.11415,354.900896 847.910636,353.727448 847.910636,352.370941 L847.910636,352.352631 C847.910636,350.994026 848.114722,349.824535 848.522895,348.844158 C848.931067,347.863781 849.513286,347.10685 850.269549,346.573364 C851.025813,346.039879 851.921885,345.773136 852.957767,345.773136 C853.955882,345.773136 854.835599,346.044838 855.596917,346.588242 C856.358235,347.131645 856.957906,347.896063 857.395928,348.881495 C857.833951,349.866926 858.052962,351.025116 858.052962,352.356064 L858.052962,352.374374 C858.052962,353.703224 857.837003,354.862844 857.405084,355.853235 C856.973165,356.843626 856.373494,357.610523 855.606072,358.153927 C854.838651,358.69733 853.955882,358.969032 852.957767,358.969032 Z M882.275397,362 L886.281402,347.575581 L886.368091,347.575581 L890.398986,362 L894.539744,362 L899.809463,342.742168 L895.877845,342.742168 L892.374808,357.89386 L892.288119,357.89386 L888.265807,342.742168 L884.440906,342.742168 L880.440051,357.89386 L880.353362,357.89386 L876.850326,342.742168 L872.87007,342.742168 L878.161532,362 L882.275397,362 Z M904.7415,339.778149 C905.392668,339.778149 905.940697,339.553701 906.385586,339.104807 C906.830475,338.655912 907.05292,338.118755 907.05292,337.493336 C907.05292,336.855709 906.830475,336.315548 906.385586,335.872852 C905.940697,335.430157 905.392668,335.208809 904.7415,335.208809 C904.10044,335.208809 903.554938,335.430157 903.104994,335.872852 C902.655051,336.315548 902.430079,336.855709 902.430079,337.493336 C902.430079,338.118755 902.655051,338.655912 903.104994,339.104807 C903.554938,339.553701 904.10044,339.778149 904.7415,339.778149 Z M906.730769,362 L906.730769,342.742168 L902.75223,342.742168 L902.75223,362 L906.730769,362 Z M917.937762,362.379658 C918.342311,362.379658 918.722636,362.362158 919.078738,362.327158 C919.43484,362.292158 919.729526,362.257969 919.962794,362.22459 L919.962794,359.156143 C919.817454,359.170448 919.655139,359.186756 919.475848,359.205067 C919.296557,359.223377 919.101436,359.232533 918.890483,359.232533 C918.051631,359.232533 917.41863,359.053051 916.991479,358.694088 C916.564328,358.335125 916.350753,357.666981 916.350753,356.689655 L916.350753,345.889294 L919.962794,345.889294 L919.962794,342.742168 L916.350753,342.742168 L916.350753,337.72794 L912.282664,337.72794 L912.282664,342.742168 L909.519774,342.742168 L909.519774,345.889294 L912.282664,345.889294 L912.282664,356.915962 C912.282664,358.837807 912.749059,360.228884 913.681848,361.089193 C914.614636,361.949503 916.033275,362.379658 917.937762,362.379658 Z M927.693363,362 L927.693363,350.841724 C927.693363,349.838268 927.881619,348.957788 928.258129,348.200285 C928.63464,347.442781 929.163595,346.848881 929.844996,346.418583 C930.526396,345.988285 931.319614,345.773136 932.224651,345.773136 C933.613201,345.773136 934.690043,346.220648 935.455175,347.115671 C936.220308,348.010695 936.602875,349.253857 936.602875,350.845158 L936.602875,362 L940.581127,362 L940.581127,350.094425 C940.581127,348.540699 940.297648,347.185671 939.730688,346.029341 C939.163729,344.873011 938.369461,343.97279 937.347885,343.328678 C936.326309,342.684566 935.125729,342.362511 933.746143,342.362511 C932.310101,342.362511 931.084343,342.672216 930.068871,343.291628 C929.053398,343.911039 928.290459,344.784748 927.780052,345.912754 L927.693363,345.912754 L927.693363,335.577881 L923.715111,335.577881 L923.715111,362 L927.693363,362 Z M790.089615,407.446033 C792.04026,407.446033 793.797691,407.078535 795.361908,406.343538 C796.926124,405.608541 798.212631,404.57905 799.221428,403.255064 C800.230224,401.931078 800.869186,400.392086 801.138313,398.638088 L801.168068,398.45155 L797.083671,398.45155 L797.03532,398.623211 C796.710689,399.740345 796.225078,400.683624 795.578487,401.453049 C794.931896,402.222473 794.148548,402.80636 793.228443,403.20471 C792.308338,403.60306 791.263206,403.802235 790.093048,403.802235 C788.472755,403.802235 787.057646,403.390772 785.847719,402.567846 C784.637792,401.744921 783.702619,400.581724 783.0422,399.078257 C782.38178,397.574789 782.051571,395.807487 782.051571,393.776352 L782.051571,393.758041 C782.051571,391.719276 782.38178,389.954836 783.0422,388.46472 C783.702619,386.974604 784.634741,385.820562 785.838564,385.002596 C787.042387,384.184629 788.459404,383.775646 790.089615,383.775646 C791.283233,383.775646 792.34205,383.97649 793.266065,384.378178 C794.19008,384.779865 794.965084,385.350496 795.591076,386.090071 C796.217068,386.829645 796.676357,387.718613 796.968944,388.756973 L797.076805,389.126331 L801.161487,389.126331 L801.131447,388.946373 C800.86232,387.200195 800.222547,385.667068 799.212129,384.346992 C798.201711,383.026917 796.915014,381.994373 795.352037,381.249363 C793.78906,380.504353 792.03492,380.131847 790.089615,380.131847 C787.593468,380.131847 785.428102,380.685837 783.593519,381.793816 C781.758936,382.901794 780.340536,384.474499 779.33832,386.511929 C778.336103,388.549358 777.834995,390.965874 777.834995,393.761475 L777.834995,393.779785 C777.834995,396.575386 778.335531,398.994953 779.336603,401.038486 C780.337675,403.08202 781.75803,404.660828 783.597668,405.77491 C785.437305,406.888992 787.601288,407.446033 790.089615,407.446033 Z M805.241758,380.577881 L805.241758,407 L809.356,407 L815.852147,407 C817.734128,407 819.346029,406.700069 820.687848,406.100208 C822.029668,405.500347 823.06264,404.644663 823.786765,403.533155 C824.51089,402.421648 824.872953,401.093037 824.872953,399.547321 L824.872953,399.5107 C824.872953,398.343212 824.618751,397.298653 824.110347,396.377022 C823.601943,395.455391 822.88273,394.704992 821.952707,394.125826 C821.022683,393.546659 819.930726,393.194992 818.676835,393.070824 L818.676835,392.984135 C819.61239,392.849857 820.449811,392.503387 821.1891,391.944725 C821.928388,391.386063 822.511131,390.692837 822.937328,389.865047 C823.363525,389.037258 823.576623,388.155491 823.576623,387.219746 L823.576623,387.183125 C823.576623,385.851414 823.254758,384.690601 822.611028,383.700687 C821.967298,382.710773 821.063834,381.942827 819.900638,381.396849 C818.737441,380.85087 817.371064,380.577881 815.801507,380.577881 L809.356767,380.577881 L807.299119,380.577881 L805.241758,380.577881 Z M809.356,383.928997 L814.802152,383.928997 C816.289502,383.928997 817.439634,384.253151 818.252546,384.901459 C819.065458,385.549767 819.471914,386.47998 819.471914,387.692101 L819.471914,387.728722 C819.471914,389.051849 818.995887,390.067751 818.043834,390.776426 C817.091781,391.485102 815.711957,391.839439 813.904363,391.839439 L809.356,391.84 L809.356,383.928997 Z M809.356,395.014 L814.73406,395.013458 C816.03716,395.013458 817.128164,395.173151 818.00707,395.492537 C818.885976,395.811922 819.547254,396.289904 819.990903,396.926481 C820.434552,397.563059 820.656377,398.354847 820.656377,399.301846 L820.656377,399.338467 C820.656377,400.744755 820.175344,401.81473 819.213277,402.548391 C818.25121,403.282053 816.853029,403.648884 815.018731,403.648884 L809.356,403.649 L809.356,395.014 Z M839.423758,407 L839.423758,384.12841 L847.503287,384.12841 L847.503287,380.577881 L827.22922,380.577881 L827.22922,384.12841 L835.308748,384.12841 L835.308748,407 L839.423758,407 Z M860.916442,407.446033 C862.867087,407.446033 864.624518,407.078535 866.188735,406.343538 C867.752951,405.608541 869.039458,404.57905 870.048255,403.255064 C871.057051,401.931078 871.696013,400.392086 871.96514,398.638088 L871.994895,398.45155 L867.910498,398.45155 L867.862147,398.623211 C867.537516,399.740345 867.051905,400.683624 866.405314,401.453049 C865.758723,402.222473 864.975375,402.80636 864.05527,403.20471 C863.135165,403.60306 862.090033,403.802235 860.919875,403.802235 C859.299582,403.802235 857.884473,403.390772 856.674546,402.567846 C855.464619,401.744921 854.529446,400.581724 853.869027,399.078257 C853.208607,397.574789 852.878398,395.807487 852.878398,393.776352 L852.878398,393.758041 C852.878398,391.719276 853.208607,389.954836 853.869027,388.46472 C854.529446,386.974604 855.461568,385.820562 856.665391,385.002596 C857.869214,384.184629 859.286231,383.775646 860.916442,383.775646 C862.11006,383.775646 863.168877,383.97649 864.092892,384.378178 C865.016907,384.779865 865.791911,385.350496 866.417903,386.090071 C867.043895,386.829645 867.503184,387.718613 867.795771,388.756973 L867.903632,389.126331 L871.988314,389.126331 L871.958274,388.946373 C871.689147,387.200195 871.049374,385.667068 870.038956,384.346992 C869.028538,383.026917 867.741841,381.994373 866.178864,381.249363 C864.615887,380.504353 862.861747,380.131847 860.916442,380.131847 C858.420295,380.131847 856.254929,380.685837 854.420346,381.793816 C852.585763,382.901794 851.167363,384.474499 850.165147,386.511929 C849.16293,388.549358 848.661822,390.965874 848.661822,393.761475 L848.661822,393.779785 C848.661822,396.575386 849.162358,398.994953 850.16343,401.038486 C851.164502,403.08202 852.584857,404.660828 854.424495,405.77491 C856.264132,406.888992 858.428115,407.446033 860.916442,407.446033 Z" id="EquippedwithCBTC" fill="#000000" fill-rule="nonzero"></path>
        <path d="M176.397654,362 L176.397654,358.449471 L163.726755,358.449471 L163.726755,350.263798 L175.720163,350.263798 L175.720163,346.82399 L163.726755,346.82399 L163.726755,339.12841 L176.397654,339.12841 L176.397654,335.577881 L159.611746,335.577881 L159.611746,362 L176.397654,362 Z M197.791932,368.408691 L197.791932,342.742168 L193.813679,342.742168 L193.813679,346.042072 L193.723557,346.042072 C193.346474,345.307171 192.864154,344.666969 192.276595,344.121468 C191.689036,343.575966 191.014598,343.151438 190.253279,342.847883 C189.491961,342.544329 188.65516,342.392551 187.742875,342.392551 C186.115906,342.392551 184.695981,342.798435 183.483098,343.610203 C182.270215,344.42197 181.3256,345.569765 180.649254,347.053587 C179.972909,348.537409 179.634736,350.298798 179.634736,352.337753 L179.634736,352.356064 C179.634736,354.392921 179.966805,356.160748 180.630944,357.659542 C181.295083,359.158337 182.230542,360.314714 183.437321,361.128675 C184.644101,361.942636 186.053727,362.349617 187.666199,362.349617 C188.59298,362.349617 189.446185,362.205898 190.225814,361.918461 C191.005442,361.631023 191.692612,361.224234 192.287324,360.698092 C192.882035,360.171949 193.361924,359.54982 193.72699,358.831703 L193.813679,358.831703 L193.813679,368.408691 L197.791932,368.408691 Z M188.784859,358.938992 C187.749169,358.938992 186.847613,358.673632 186.080191,358.142912 C185.31277,357.612192 184.723065,356.854164 184.311078,355.868828 C183.89909,354.883492 183.693097,353.71257 183.693097,352.356064 L183.693097,352.337753 C183.693097,350.999176 183.899663,349.842131 184.312794,348.866617 C184.725926,347.891104 185.315631,347.136652 186.081908,346.603262 C186.848185,346.069872 187.749169,345.803177 188.784859,345.803177 C189.782975,345.803177 190.660212,346.072399 191.416571,346.610844 C192.17293,347.149288 192.762635,347.906219 193.185685,348.881638 C193.608735,349.857056 193.82026,351.010239 193.82026,352.341187 L193.82026,352.359497 C193.82026,353.688156 193.609307,354.847681 193.187401,355.838072 C192.765496,356.828463 192.178319,357.59288 191.42587,358.131325 C190.673421,358.669769 189.793084,358.938992 188.784859,358.938992 Z M208.603867,362.379658 C210.069855,362.379658 211.293658,362.077438 212.275275,361.473 C213.256892,360.868561 214.001855,360.077106 214.510163,359.098637 L214.596852,359.098637 L214.596852,362 L218.575104,362 L218.575104,342.742168 L214.596852,342.742168 L214.596852,353.975117 C214.596852,354.966557 214.408597,355.839073 214.032086,356.592667 C213.655575,357.34626 213.124665,357.930719 212.439355,358.346045 C211.754044,358.76137 210.947808,358.969032 210.020646,358.969032 C208.652123,358.969032 207.627638,358.578836 206.947192,357.798445 C206.266745,357.018053 205.926522,355.902016 205.926522,354.450333 L205.926522,342.742168 L201.948269,342.742168 L201.948269,355.215942 C201.948269,356.687653 202.209338,357.959854 202.731474,359.032547 C203.253611,360.10524 204.011019,360.931265 205.003699,361.510622 C205.996379,362.089979 207.196435,362.379658 208.603867,362.379658 Z M224.991409,339.778149 C225.642578,339.778149 226.190607,339.553701 226.635496,339.104807 C227.080385,338.655912 227.302829,338.118755 227.302829,337.493336 C227.302829,336.855709 227.080385,336.315548 226.635496,335.872852 C226.190607,335.430157 225.642578,335.208809 224.991409,335.208809 C224.350349,335.208809 223.804847,335.430157 223.354904,335.872852 C222.90496,336.315548 222.679988,336.855709 222.679988,337.493336 C222.679988,338.118755 222.90496,338.655912 223.354904,339.104807 C223.804847,339.553701 224.350349,339.778149 224.991409,339.778149 Z M226.980678,362 L226.980678,342.742168 L223.002139,342.742168 L223.002139,362 L226.980678,362 Z M235.386158,368.408691 L235.386158,358.75703 L235.472847,358.75703 C235.860039,359.505093 236.352945,360.149633 236.951566,360.690653 C237.550188,361.231672 238.241792,361.648428 239.02638,361.94092 C239.810968,362.233412 240.656639,362.379658 241.563392,362.379658 C243.178154,362.379658 244.583393,361.97263 245.77911,361.158573 C246.974827,360.344517 247.904707,359.190571 248.56875,357.696735 C249.232794,356.2029 249.564815,354.43269 249.564815,352.386105 L249.564815,352.367794 C249.564815,350.318729 249.234176,348.5448 248.572899,347.046005 C247.911621,345.547211 246.97702,344.39193 245.769096,343.580162 C244.561172,342.768394 243.138767,342.362511 241.50188,342.362511 C240.589596,342.362511 239.747787,342.511808 238.976455,342.810404 C238.205124,343.108999 237.525678,343.531048 236.93812,344.07655 C236.350561,344.622051 235.863281,345.277225 235.47628,346.042072 L235.386158,346.042072 L235.386158,342.742168 L231.407905,342.742168 L231.407905,368.408691 L235.386158,368.408691 Z M240.45961,358.969032 C239.461494,358.969032 238.581777,358.69733 237.820459,358.153927 C237.059141,357.610523 236.459471,356.846106 236.021448,355.860674 C235.583425,354.875242 235.364414,353.718102 235.364414,352.389252 L235.364414,352.370941 C235.364414,351.030075 235.580946,349.866926 236.014009,348.881495 C236.447073,347.896063 237.047315,347.131645 237.814737,346.588242 C238.582159,346.044838 239.463783,345.773136 240.45961,345.773136 C241.4953,345.773136 242.391325,346.037399 243.147684,346.565926 C243.904043,347.094452 244.486261,347.851383 244.894338,348.83672 C245.302416,349.822056 245.506454,350.999081 245.506454,352.367794 L245.506454,352.386105 C245.506454,353.732502 245.302988,354.898417 244.896055,355.883848 C244.489122,356.86928 243.907476,357.629835 243.151117,358.165514 C242.394758,358.701193 241.497589,358.969032 240.45961,358.969032 Z M256.956036,368.408691 L256.956036,358.75703 L257.042725,358.75703 C257.429916,359.505093 257.922823,360.149633 258.521444,360.690653 C259.120066,361.231672 259.81167,361.648428 260.596258,361.94092 C261.380846,362.233412 262.226517,362.379658 263.13327,362.379658 C264.748032,362.379658 266.153271,361.97263 267.348988,361.158573 C268.544704,360.344517 269.474585,359.190571 270.138628,357.696735 C270.802671,356.2029 271.134693,354.43269 271.134693,352.386105 L271.134693,352.367794 C271.134693,350.318729 270.804054,348.5448 270.142777,347.046005 C269.481499,345.547211 268.546898,344.39193 267.338974,343.580162 C266.13105,342.768394 264.708645,342.362511 263.071758,342.362511 C262.159473,342.362511 261.317665,342.511808 260.546333,342.810404 C259.775002,343.108999 259.095556,343.531048 258.507998,344.07655 C257.920439,344.622051 257.433159,345.277225 257.046158,346.042072 L256.956036,346.042072 L256.956036,342.742168 L252.977783,342.742168 L252.977783,368.408691 L256.956036,368.408691 Z M262.029488,358.969032 C261.031372,358.969032 260.151655,358.69733 259.390337,358.153927 C258.629019,357.610523 258.029348,356.846106 257.591326,355.860674 C257.153303,354.875242 256.934292,353.718102 256.934292,352.389252 L256.934292,352.370941 C256.934292,351.030075 257.150824,349.866926 257.583887,348.881495 C258.016951,347.896063 258.617193,347.131645 259.384615,346.588242 C260.152037,346.044838 261.033661,345.773136 262.029488,345.773136 C263.065178,345.773136 263.961203,346.037399 264.717562,346.565926 C265.473921,347.094452 266.056139,347.851383 266.464216,348.83672 C266.872294,349.822056 267.076332,350.999081 267.076332,352.367794 L267.076332,352.386105 C267.076332,353.732502 266.872866,354.898417 266.465933,355.883848 C266.059,356.86928 265.477354,357.629835 264.720995,358.165514 C263.964636,358.701193 263.067467,358.969032 262.029488,358.969032 Z M282.787407,362.379658 C283.956993,362.379658 285.015858,362.221682 285.964001,361.905729 C286.912144,361.589777 287.739743,361.155617 288.446797,360.603249 C289.153851,360.05088 289.726246,359.424507 290.163983,358.724129 C290.601719,358.02375 290.898789,357.294094 291.055191,356.53516 L291.095246,356.342041 L287.312687,356.342041 L287.264622,356.486809 C287.103833,356.971085 286.826027,357.413446 286.431206,357.813894 C286.036385,358.214342 285.539521,358.533823 284.940613,358.772337 C284.341706,359.010851 283.652867,359.130108 282.874096,359.130108 C281.807125,359.130108 280.883826,358.894693 280.104197,358.423864 C279.324568,357.953035 278.723229,357.275116 278.300179,356.390106 C277.919434,355.593597 277.710024,354.650704 277.67195,353.561427 L277.668,353.383 L291.306389,353.382885 L291.306389,352.036201 C291.306389,350.105202 290.954483,348.412764 290.250672,346.958887 C289.54686,345.505011 288.54245,344.375479 287.237442,343.570292 C285.932434,342.765104 284.379662,342.362511 282.579125,342.362511 C280.778588,342.362511 279.213417,342.781174 277.883614,343.6185 C276.55381,344.455826 275.522555,345.628893 274.789847,347.137701 C274.057139,348.646509 273.690785,350.404846 273.690785,352.412712 L273.690785,352.431023 C273.690785,354.456436 274.055184,356.214725 274.783982,357.705891 C275.51278,359.197056 276.557387,360.348808 277.917803,361.161148 C279.278219,361.973488 280.901421,362.379658 282.787407,362.379658 Z M287.383,350.571 L277.72,350.571 L277.75029,350.309468 C277.849091,349.572192 278.034342,348.917197 278.306044,348.344481 C278.733004,347.444498 279.319084,346.764099 280.064286,346.303284 C280.809487,345.842468 281.65511,345.612061 282.601155,345.612061 C283.5472,345.612061 284.382857,345.832502 285.108126,346.273386 C285.833395,346.71427 286.402024,347.382175 286.814011,348.277103 C287.076185,348.846603 287.254939,349.509524 287.350275,350.265867 L287.383,350.571 Z M301.908629,362.379658 C303.293746,362.379658 304.504292,362.054741 305.540269,361.404907 C306.576245,360.755074 307.379859,359.864628 307.95111,358.73357 L308.037799,358.73357 L308.037799,362 L312.016337,362 L312.016337,335.577881 L308.037799,335.577881 L308.037799,346.012032 L307.95111,346.012032 C307.375472,344.879829 306.558888,343.988525 305.501359,343.33812 C304.44383,342.687714 303.233569,342.362511 301.870578,342.362511 C300.263446,342.362511 298.858445,342.768394 297.655576,343.580162 C296.452706,344.39193 295.518105,345.544731 294.851773,347.038567 C294.185441,348.532402 293.852275,350.303757 293.852275,352.352631 L293.852275,352.370941 C293.852275,354.417717 294.182961,356.190502 294.844335,357.689297 C295.505708,359.188091 296.440309,360.344517 297.648137,361.158573 C298.855966,361.97263 300.27613,362.379658 301.908629,362.379658 Z M302.957767,358.969032 C301.921885,358.969032 301.025241,358.703672 300.267833,358.172953 C299.510425,357.642233 298.928206,356.881678 298.521178,355.891287 C298.11415,354.900896 297.910636,353.727448 297.910636,352.370941 L297.910636,352.352631 C297.910636,350.994026 298.114722,349.824535 298.522895,348.844158 C298.931067,347.863781 299.513286,347.10685 300.269549,346.573364 C301.025813,346.039879 301.921885,345.773136 302.957767,345.773136 C303.955882,345.773136 304.835599,346.044838 305.596917,346.588242 C306.358235,347.131645 306.957906,347.896063 307.395928,348.881495 C307.833951,349.866926 308.052962,351.025116 308.052962,352.356064 L308.052962,352.374374 C308.052962,353.703224 307.837003,354.862844 307.405084,355.853235 C306.973165,356.843626 306.373494,357.610523 305.606072,358.153927 C304.838651,358.69733 303.955882,358.969032 302.957767,358.969032 Z M332.275397,362 L336.281402,347.575581 L336.368091,347.575581 L340.398986,362 L344.539744,362 L349.809463,342.742168 L345.877845,342.742168 L342.374808,357.89386 L342.288119,357.89386 L338.265807,342.742168 L334.440906,342.742168 L330.440051,357.89386 L330.353362,357.89386 L326.850326,342.742168 L322.87007,342.742168 L328.161532,362 L332.275397,362 Z M354.7415,339.778149 C355.392668,339.778149 355.940697,339.553701 356.385586,339.104807 C356.830475,338.655912 357.05292,338.118755 357.05292,337.493336 C357.05292,336.855709 356.830475,336.315548 356.385586,335.872852 C355.940697,335.430157 355.392668,335.208809 354.7415,335.208809 C354.10044,335.208809 353.554938,335.430157 353.104994,335.872852 C352.655051,336.315548 352.430079,336.855709 352.430079,337.493336 C352.430079,338.118755 352.655051,338.655912 353.104994,339.104807 C353.554938,339.553701 354.10044,339.778149 354.7415,339.778149 Z M356.730769,362 L356.730769,342.742168 L352.75223,342.742168 L352.75223,362 L356.730769,362 Z M367.937762,362.379658 C368.342311,362.379658 368.722636,362.362158 369.078738,362.327158 C369.43484,362.292158 369.729526,362.257969 369.962794,362.22459 L369.962794,359.156143 C369.817454,359.170448 369.655139,359.186756 369.475848,359.205067 C369.296557,359.223377 369.101436,359.232533 368.890483,359.232533 C368.051631,359.232533 367.41863,359.053051 366.991479,358.694088 C366.564328,358.335125 366.350753,357.666981 366.350753,356.689655 L366.350753,345.889294 L369.962794,345.889294 L369.962794,342.742168 L366.350753,342.742168 L366.350753,337.72794 L362.282664,337.72794 L362.282664,342.742168 L359.519774,342.742168 L359.519774,345.889294 L362.282664,345.889294 L362.282664,356.915962 C362.282664,358.837807 362.749059,360.228884 363.681848,361.089193 C364.614636,361.949503 366.033275,362.379658 367.937762,362.379658 Z M377.693363,362 L377.693363,350.841724 C377.693363,349.838268 377.881619,348.957788 378.258129,348.200285 C378.63464,347.442781 379.163595,346.848881 379.844996,346.418583 C380.526396,345.988285 381.319614,345.773136 382.224651,345.773136 C383.613201,345.773136 384.690043,346.220648 385.455175,347.115671 C386.220308,348.010695 386.602875,349.253857 386.602875,350.845158 L386.602875,362 L390.581127,362 L390.581127,350.094425 C390.581127,348.540699 390.297648,347.185671 389.730688,346.029341 C389.163729,344.873011 388.369461,343.97279 387.347885,343.328678 C386.326309,342.684566 385.125729,342.362511 383.746143,342.362511 C382.310101,342.362511 381.084343,342.672216 380.068871,343.291628 C379.053398,343.911039 378.290459,344.784748 377.780052,345.912754 L377.693363,345.912754 L377.693363,335.577881 L373.715111,335.577881 L373.715111,362 L377.693363,362 Z M240.089615,407.446033 C242.04026,407.446033 243.797691,407.078535 245.361908,406.343538 C246.926124,405.608541 248.212631,404.57905 249.221428,403.255064 C250.230224,401.931078 250.869186,400.392086 251.138313,398.638088 L251.168068,398.45155 L247.083671,398.45155 L247.03532,398.623211 C246.710689,399.740345 246.225078,400.683624 245.578487,401.453049 C244.931896,402.222473 244.148548,402.80636 243.228443,403.20471 C242.308338,403.60306 241.263206,403.802235 240.093048,403.802235 C238.472755,403.802235 237.057646,403.390772 235.847719,402.567846 C234.637792,401.744921 233.702619,400.581724 233.0422,399.078257 C232.38178,397.574789 232.051571,395.807487 232.051571,393.776352 L232.051571,393.758041 C232.051571,391.719276 232.38178,389.954836 233.0422,388.46472 C233.702619,386.974604 234.634741,385.820562 235.838564,385.002596 C237.042387,384.184629 238.459404,383.775646 240.089615,383.775646 C241.283233,383.775646 242.34205,383.97649 243.266065,384.378178 C244.19008,384.779865 244.965084,385.350496 245.591076,386.090071 C246.217068,386.829645 246.676357,387.718613 246.968944,388.756973 L247.076805,389.126331 L251.161487,389.126331 L251.131447,388.946373 C250.86232,387.200195 250.222547,385.667068 249.212129,384.346992 C248.201711,383.026917 246.915014,381.994373 245.352037,381.249363 C243.78906,380.504353 242.03492,380.131847 240.089615,380.131847 C237.593468,380.131847 235.428102,380.685837 233.593519,381.793816 C231.758936,382.901794 230.340536,384.474499 229.33832,386.511929 C228.336103,388.549358 227.834995,390.965874 227.834995,393.761475 L227.834995,393.779785 C227.834995,396.575386 228.335531,398.994953 229.336603,401.038486 C230.337675,403.08202 231.75803,404.660828 233.597668,405.77491 C235.437305,406.888992 237.601288,407.446033 240.089615,407.446033 Z M255.241758,380.577881 L255.241758,407 L259.356,407 L265.852147,407 C267.734128,407 269.346029,406.700069 270.687848,406.100208 C272.029668,405.500347 273.06264,404.644663 273.786765,403.533155 C274.51089,402.421648 274.872953,401.093037 274.872953,399.547321 L274.872953,399.5107 C274.872953,398.343212 274.618751,397.298653 274.110347,396.377022 C273.601943,395.455391 272.88273,394.704992 271.952707,394.125826 C271.022683,393.546659 269.930726,393.194992 268.676835,393.070824 L268.676835,392.984135 C269.61239,392.849857 270.449811,392.503387 271.1891,391.944725 C271.928388,391.386063 272.511131,390.692837 272.937328,389.865047 C273.363525,389.037258 273.576623,388.155491 273.576623,387.219746 L273.576623,387.183125 C273.576623,385.851414 273.254758,384.690601 272.611028,383.700687 C271.967298,382.710773 271.063834,381.942827 269.900638,381.396849 C268.737441,380.85087 267.371064,380.577881 265.801507,380.577881 L259.356767,380.577881 L257.299119,380.577881 L255.241758,380.577881 Z M259.356,383.928997 L264.802152,383.928997 C266.289502,383.928997 267.439634,384.253151 268.252546,384.901459 C269.065458,385.549767 269.471914,386.47998 269.471914,387.692101 L269.471914,387.728722 C269.471914,389.051849 268.995887,390.067751 268.043834,390.776426 C267.091781,391.485102 265.711957,391.839439 263.904363,391.839439 L259.356,391.84 L259.356,383.928997 Z M259.356,395.014 L264.73406,395.013458 C266.03716,395.013458 267.128164,395.173151 268.00707,395.492537 C268.885976,395.811922 269.547254,396.289904 269.990903,396.926481 C270.434552,397.563059 270.656377,398.354847 270.656377,399.301846 L270.656377,399.338467 C270.656377,400.744755 270.175344,401.81473 269.213277,402.548391 C268.25121,403.282053 266.853029,403.648884 265.018731,403.648884 L259.356,403.649 L259.356,395.014 Z M289.423758,407 L289.423758,384.12841 L297.503287,384.12841 L297.503287,380.577881 L277.22922,380.577881 L277.22922,384.12841 L285.308748,384.12841 L285.308748,407 L289.423758,407 Z M310.916442,407.446033 C312.867087,407.446033 314.624518,407.078535 316.188735,406.343538 C317.752951,405.608541 319.039458,404.57905 320.048255,403.255064 C321.057051,401.931078 321.696013,400.392086 321.96514,398.638088 L321.994895,398.45155 L317.910498,398.45155 L317.862147,398.623211 C317.537516,399.740345 317.051905,400.683624 316.405314,401.453049 C315.758723,402.222473 314.975375,402.80636 314.05527,403.20471 C313.135165,403.60306 312.090033,403.802235 310.919875,403.802235 C309.299582,403.802235 307.884473,403.390772 306.674546,402.567846 C305.464619,401.744921 304.529446,400.581724 303.869027,399.078257 C303.208607,397.574789 302.878398,395.807487 302.878398,393.776352 L302.878398,393.758041 C302.878398,391.719276 303.208607,389.954836 303.869027,388.46472 C304.529446,386.974604 305.461568,385.820562 306.665391,385.002596 C307.869214,384.184629 309.286231,383.775646 310.916442,383.775646 C312.11006,383.775646 313.168877,383.97649 314.092892,384.378178 C315.016907,384.779865 315.791911,385.350496 316.417903,386.090071 C317.043895,386.829645 317.503184,387.718613 317.795771,388.756973 L317.903632,389.126331 L321.988314,389.126331 L321.958274,388.946373 C321.689147,387.200195 321.049374,385.667068 320.038956,384.346992 C319.028538,383.026917 317.741841,381.994373 316.178864,381.249363 C314.615887,380.504353 312.861747,380.131847 310.916442,380.131847 C308.420295,380.131847 306.254929,380.685837 304.420346,381.793816 C302.585763,382.901794 301.167363,384.474499 300.165147,386.511929 C299.16293,388.549358 298.661822,390.965874 298.661822,393.761475 L298.661822,393.779785 C298.661822,396.575386 299.162358,398.994953 300.16343,401.038486 C301.164502,403.08202 302.584857,404.660828 304.424495,405.77491 C306.264132,406.888992 308.428115,407.446033 310.916442,407.446033 Z" id="EquippedwithCBTC" fill="#000000" fill-rule="nonzero"></path>
    </g>
</svg>