<?xml version="1.0" encoding="UTF-8"?>
<svg width="1100px" height="550px" viewBox="0 0 1100 550" version="1.1" xmlns="http://www.w3.org/2000/svg" xmlns:xlink="http://www.w3.org/1999/xlink">
    <title>Artboard</title>
    <g id="Artboard" stroke="none" stroke-width="1" fill="none" fill-rule="evenodd">
        <line x1="0" y1="419.25" x2="1650" y2="418.5" id="Path-2" stroke="#4A4A4A" stroke-width="30"></line>
        <rect id="Rectangle" fill="#FFFFFF" x="131" y="323" width="288" height="96"></rect>
        <rect id="Rectangle" fill="#F2F2F2" x="546" y="395" width="8" height="48"></rect>
        <rect id="Rectangle" fill="#888888" x="131" y="323" width="288" height="96"></rect>
        <path d="M170.187292,335.577881 L166.385565,335.577881 L166.385565,362 L170.470534,362 L170.470534,342.450344 L170.574,342.451 L184.167395,362 L187.955962,362 L187.955962,335.577881 L183.870707,335.577881 L183.870707,355.087482 L183.768,355.088 L170.187292,335.577881 Z M200.997514,362.379658 C202.838297,362.379658 204.442472,361.975681 205.810041,361.167728 C207.17761,360.359776 208.241291,359.208881 209.001083,357.715046 C209.760875,356.22121 210.140772,354.440987 210.140772,352.374374 L210.140772,352.337753 C210.140772,350.275528 209.759207,348.500025 208.996076,347.011244 C208.232946,345.522463 207.165069,344.375479 205.792446,343.570292 C204.419822,342.765104 202.816553,342.362511 200.982637,342.362511 C199.160928,342.362511 197.56381,342.765629 196.191282,343.571865 C194.818754,344.378101 193.750877,345.52623 192.987652,347.016251 C192.224426,348.506271 191.842813,350.280106 191.842813,352.337753 L191.842813,352.374374 C191.842813,354.42878 192.222185,356.205427 192.980928,357.704317 C193.739671,359.203207 194.805307,360.357153 196.177835,361.166155 C197.550363,361.975157 199.156923,362.379658 200.997514,362.379658 Z M201.015825,359.056293 C199.982424,359.056293 199.08287,358.794224 198.317165,358.270084 C197.55146,357.745945 196.957369,356.985056 196.534891,355.987417 C196.112413,354.989779 195.901174,353.785431 195.901174,352.374374 L195.901174,352.337753 C195.901174,350.929176 196.112985,349.73098 196.536608,348.743164 C196.96023,347.755348 197.554893,346.998846 198.320598,346.473658 C199.086303,345.948469 199.97365,345.685875 200.982637,345.685875 C202.011652,345.685875 202.909012,345.94599 203.674717,346.466219 C204.440422,346.986448 205.03313,347.74295 205.452842,348.735725 C205.872555,349.7285 206.082411,350.929176 206.082411,352.337753 L206.082411,352.374374 C206.082411,353.785431 205.873699,354.989779 205.456276,355.987417 C205.038852,356.985056 204.452247,357.745945 203.69646,358.270084 C202.940674,358.794224 202.047128,359.056293 201.015825,359.056293 Z M220.326675,362.379658 C220.731224,362.379658 221.111549,362.362158 221.467651,362.327158 C221.823753,362.292158 222.118438,362.257969 222.351707,362.22459 L222.351707,359.156143 C222.206367,359.170448 222.044052,359.186756 221.864761,359.205067 C221.68547,359.223377 221.490348,359.232533 221.279396,359.232533 C220.440544,359.232533 219.807542,359.053051 219.380392,358.694088 C218.953241,358.335125 218.739666,357.666981 218.739666,356.689655 L218.739666,345.889294 L222.351707,345.889294 L222.351707,342.742168 L218.739666,342.742168 L218.739666,337.72794 L214.671577,337.72794 L214.671577,342.742168 L211.908687,342.742168 L211.908687,345.889294 L214.671577,345.889294 L214.671577,356.915962 C214.671577,358.837807 215.137971,360.228884 216.07076,361.089193 C217.003549,361.949503 218.422187,362.379658 220.326675,362.379658 Z M242.148345,362.379658 C243.317931,362.379658 244.376796,362.221682 245.324939,361.905729 C246.273082,361.589777 247.100681,361.155617 247.807735,360.603249 C248.514789,360.05088 249.087184,359.424507 249.524921,358.724129 C249.962657,358.02375 250.259727,357.294094 250.416129,356.53516 L250.456184,356.342041 L246.673625,356.342041 L246.62556,356.486809 C246.46477,356.971085 246.186965,357.413446 245.792144,357.813894 C245.397323,358.214342 244.900459,358.533823 244.301551,358.772337 C243.702644,359.010851 243.013805,359.130108 242.235034,359.130108 C241.168063,359.130108 240.244764,358.894693 239.465135,358.423864 C238.685506,357.953035 238.084167,357.275116 237.661117,356.390106 C237.280372,355.593597 237.070962,354.650704 237.032888,353.561427 L237.029,353.383 L250.667327,353.382885 L250.667327,352.036201 C250.667327,350.105202 250.315421,348.412764 249.61161,346.958887 C248.907798,345.505011 247.903388,344.375479 246.59838,343.570292 C245.293372,342.765104 243.7406,342.362511 241.940063,342.362511 C240.139526,342.362511 238.574355,342.781174 237.244552,343.6185 C235.914748,344.455826 234.883493,345.628893 234.150785,347.137701 C233.418077,348.646509 233.051723,350.404846 233.051723,352.412712 L233.051723,352.431023 C233.051723,354.456436 233.416122,356.214725 234.14492,357.705891 C234.873717,359.197056 235.918325,360.348808 237.278741,361.161148 C238.639157,361.973488 240.262359,362.379658 242.148345,362.379658 Z M246.743,350.571 L237.081,350.571 L237.111228,350.309468 C237.210029,349.572192 237.39528,348.917197 237.666982,348.344481 C238.093942,347.444498 238.680022,346.764099 239.425224,346.303284 C240.170425,345.842468 241.016048,345.612061 241.962093,345.612061 C242.908138,345.612061 243.743795,345.832502 244.469064,346.273386 C245.194333,346.71427 245.762962,347.382175 246.174949,348.277103 C246.437123,348.846603 246.615877,349.509524 246.711213,350.265867 L246.743,350.571 Z M271.370409,368.408691 L271.370409,342.742168 L267.392156,342.742168 L267.392156,346.042072 L267.302034,346.042072 C266.924951,345.307171 266.442631,344.666969 265.855072,344.121468 C265.267513,343.575966 264.593075,343.151438 263.831756,342.847883 C263.070438,342.544329 262.233637,342.392551 261.321352,342.392551 C259.694384,342.392551 258.274458,342.798435 257.061575,343.610203 C255.848692,344.42197 254.904077,345.569765 254.227732,347.053587 C253.551386,348.537409 253.213213,350.298798 253.213213,352.337753 L253.213213,352.356064 C253.213213,354.392921 253.545282,356.160748 254.209421,357.659542 C254.87356,359.158337 255.809019,360.314714 257.015798,361.128675 C258.222578,361.942636 259.632204,362.349617 261.244676,362.349617 C262.171457,362.349617 263.024662,362.205898 263.804291,361.918461 C264.583919,361.631023 265.271089,361.224234 265.865801,360.698092 C266.460512,360.171949 266.940401,359.54982 267.305467,358.831703 L267.392156,358.831703 L267.392156,368.408691 L271.370409,368.408691 Z M262.363336,358.938992 C261.327646,358.938992 260.42609,358.673632 259.658668,358.142912 C258.891247,357.612192 258.301542,356.854164 257.889555,355.868828 C257.477568,354.883492 257.271574,353.71257 257.271574,352.356064 L257.271574,352.337753 C257.271574,350.999176 257.47814,349.842131 257.891271,348.866617 C258.304403,347.891104 258.894108,347.136652 259.660385,346.603262 C260.426662,346.069872 261.327646,345.803177 262.363336,345.803177 C263.361452,345.803177 264.238689,346.072399 264.995048,346.610844 C265.751408,347.149288 266.341112,347.906219 266.764162,348.881638 C267.187212,349.857056 267.398737,351.010239 267.398737,352.341187 L267.398737,352.359497 C267.398737,353.688156 267.187784,354.847681 266.765879,355.838072 C266.343973,356.828463 265.756796,357.59288 265.004347,358.131325 C264.251898,358.669769 263.371561,358.938992 262.363336,358.938992 Z M282.182344,362.379658 C283.648332,362.379658 284.872135,362.077438 285.853752,361.473 C286.835369,360.868561 287.580332,360.077106 288.08864,359.098637 L288.175329,359.098637 L288.175329,362 L292.153581,362 L292.153581,342.742168 L288.175329,342.742168 L288.175329,353.975117 C288.175329,354.966557 287.987074,355.839073 287.610563,356.592667 C287.234052,357.34626 286.703142,357.930719 286.017832,358.346045 C285.332521,358.76137 284.526285,358.969032 283.599123,358.969032 C282.2306,358.969032 281.206116,358.578836 280.525669,357.798445 C279.845222,357.018053 279.504999,355.902016 279.504999,354.450333 L279.504999,342.742168 L275.526747,342.742168 L275.526747,355.215942 C275.526747,356.687653 275.787815,357.959854 276.309952,359.032547 C276.832088,360.10524 277.589496,360.931265 278.582176,361.510622 C279.574856,362.089979 280.774912,362.379658 282.182344,362.379658 Z M298.569886,339.778149 C299.221055,339.778149 299.769084,339.553701 300.213973,339.104807 C300.658862,338.655912 300.881306,338.118755 300.881306,337.493336 C300.881306,336.855709 300.658862,336.315548 300.213973,335.872852 C299.769084,335.430157 299.221055,335.208809 298.569886,335.208809 C297.928826,335.208809 297.383324,335.430157 296.933381,335.872852 C296.483437,336.315548 296.258465,336.855709 296.258465,337.493336 C296.258465,338.118755 296.483437,338.655912 296.933381,339.104807 C297.383324,339.553701 297.928826,339.778149 298.569886,339.778149 Z M300.559155,362 L300.559155,342.742168 L296.580617,342.742168 L296.580617,362 L300.559155,362 Z M308.964635,368.408691 L308.964635,358.75703 L309.051324,358.75703 C309.438516,359.505093 309.931422,360.149633 310.530044,360.690653 C311.128665,361.231672 311.82027,361.648428 312.604857,361.94092 C313.389445,362.233412 314.235116,362.379658 315.14187,362.379658 C316.756631,362.379658 318.16187,361.97263 319.357587,361.158573 C320.553304,360.344517 321.483184,359.190571 322.147227,357.696735 C322.811271,356.2029 323.143292,354.43269 323.143292,352.386105 L323.143292,352.367794 C323.143292,350.318729 322.812654,348.5448 322.151376,347.046005 C321.490098,345.547211 320.555497,344.39193 319.347573,343.580162 C318.139649,342.768394 316.717244,342.362511 315.080358,342.362511 C314.168073,342.362511 313.326264,342.511808 312.554933,342.810404 C311.783601,343.108999 311.104156,343.531048 310.516597,344.07655 C309.929038,344.622051 309.441758,345.277225 309.054757,346.042072 L308.964635,346.042072 L308.964635,342.742168 L304.986382,342.742168 L304.986382,368.408691 L308.964635,368.408691 Z M314.038087,358.969032 C313.039971,358.969032 312.160254,358.69733 311.398936,358.153927 C310.637618,357.610523 310.037948,356.846106 309.599925,355.860674 C309.161902,354.875242 308.942891,353.718102 308.942891,352.389252 L308.942891,352.370941 C308.942891,351.030075 309.159423,349.866926 309.592486,348.881495 C310.02555,347.896063 310.625793,347.131645 311.393214,346.588242 C312.160636,346.044838 313.04226,345.773136 314.038087,345.773136 C315.073777,345.773136 315.969802,346.037399 316.726161,346.565926 C317.48252,347.094452 318.064738,347.851383 318.472816,348.83672 C318.880893,349.822056 319.084931,350.999081 319.084931,352.367794 L319.084931,352.386105 C319.084931,353.732502 318.881465,354.898417 318.474532,355.883848 C318.067599,356.86928 317.485953,357.629835 316.729594,358.165514 C315.973235,358.701193 315.076066,358.969032 314.038087,358.969032 Z M330.534513,368.408691 L330.534513,358.75703 L330.621202,358.75703 C331.008394,359.505093 331.5013,360.149633 332.099921,360.690653 C332.698543,361.231672 333.390147,361.648428 334.174735,361.94092 C334.959323,362.233412 335.804994,362.379658 336.711747,362.379658 C338.326509,362.379658 339.731748,361.97263 340.927465,361.158573 C342.123182,360.344517 343.053062,359.190571 343.717105,357.696735 C344.381149,356.2029 344.71317,354.43269 344.71317,352.386105 L344.71317,352.367794 C344.71317,350.318729 344.382531,348.5448 343.721254,347.046005 C343.059976,345.547211 342.125375,344.39193 340.917451,343.580162 C339.709527,342.768394 338.287122,342.362511 336.650235,342.362511 C335.737951,342.362511 334.896142,342.511808 334.12481,342.810404 C333.353479,343.108999 332.674033,343.531048 332.086475,344.07655 C331.498916,344.622051 331.011636,345.277225 330.624635,346.042072 L330.534513,346.042072 L330.534513,342.742168 L326.55626,342.742168 L326.55626,368.408691 L330.534513,368.408691 Z M335.607965,358.969032 C334.609849,358.969032 333.730132,358.69733 332.968814,358.153927 C332.207496,357.610523 331.607826,356.846106 331.169803,355.860674 C330.73178,354.875242 330.512769,353.718102 330.512769,352.389252 L330.512769,352.370941 C330.512769,351.030075 330.729301,349.866926 331.162364,348.881495 C331.595428,347.896063 332.19567,347.131645 332.963092,346.588242 C333.730514,346.044838 334.612138,345.773136 335.607965,345.773136 C336.643655,345.773136 337.53968,346.037399 338.296039,346.565926 C339.052398,347.094452 339.634616,347.851383 340.042693,348.83672 C340.450771,349.822056 340.654809,350.999081 340.654809,352.367794 L340.654809,352.386105 C340.654809,353.732502 340.451343,354.898417 340.04441,355.883848 C339.637477,356.86928 339.055831,357.629835 338.299472,358.165514 C337.543113,358.701193 336.645944,358.969032 335.607965,358.969032 Z M356.365884,362.379658 C357.53547,362.379658 358.594335,362.221682 359.542478,361.905729 C360.490621,361.589777 361.31822,361.155617 362.025274,360.603249 C362.732328,360.05088 363.304723,359.424507 363.74246,358.724129 C364.180196,358.02375 364.477266,357.294094 364.633668,356.53516 L364.673723,356.342041 L360.891164,356.342041 L360.843099,356.486809 C360.68231,356.971085 360.404504,357.413446 360.009683,357.813894 C359.614862,358.214342 359.117998,358.533823 358.51909,358.772337 C357.920183,359.010851 357.231344,359.130108 356.452573,359.130108 C355.385602,359.130108 354.462303,358.894693 353.682674,358.423864 C352.903045,357.953035 352.301706,357.275116 351.878656,356.390106 C351.497911,355.593597 351.288501,354.650704 351.250427,353.561427 L351.247,353.383 L364.884866,353.382885 L364.884866,352.036201 C364.884866,350.105202 364.53296,348.412764 363.829149,346.958887 C363.125337,345.505011 362.120927,344.375479 360.815919,343.570292 C359.510911,342.765104 357.958139,342.362511 356.157602,342.362511 C354.357065,342.362511 352.791894,342.781174 351.462091,343.6185 C350.132288,344.455826 349.101032,345.628893 348.368324,347.137701 C347.635616,348.646509 347.269262,350.404846 347.269262,352.412712 L347.269262,352.431023 C347.269262,354.456436 347.633661,356.214725 348.362459,357.705891 C349.091257,359.197056 350.135864,360.348808 351.49628,361.161148 C352.856697,361.973488 354.479898,362.379658 356.365884,362.379658 Z M360.961,350.571 L351.298,350.571 L351.328767,350.309468 C351.427568,349.572192 351.612819,348.917197 351.884521,348.344481 C352.311481,347.444498 352.897562,346.764099 353.642763,346.303284 C354.387964,345.842468 355.233587,345.612061 356.179632,345.612061 C357.125677,345.612061 357.961334,345.832502 358.686603,346.273386 C359.411872,346.71427 359.980501,347.382175 360.392488,348.277103 C360.654662,348.846603 360.833417,349.509524 360.928752,350.265867 L360.961,350.571 Z M375.487107,362.379658 C376.872223,362.379658 378.08277,362.054741 379.118746,361.404907 C380.154722,360.755074 380.958336,359.864628 381.529587,358.73357 L381.616276,358.73357 L381.616276,362 L385.594814,362 L385.594814,335.577881 L381.616276,335.577881 L381.616276,346.012032 L381.529587,346.012032 C380.953949,344.879829 380.137366,343.988525 379.079836,343.33812 C378.022307,342.687714 376.812046,342.362511 375.449055,342.362511 C373.841923,342.362511 372.436922,342.768394 371.234053,343.580162 C370.031183,344.39193 369.096583,345.544731 368.43025,347.038567 C367.763918,348.532402 367.430752,350.303757 367.430752,352.352631 L367.430752,352.370941 C367.430752,354.417717 367.761439,356.190502 368.422812,357.689297 C369.084185,359.188091 370.018786,360.344517 371.226614,361.158573 C372.434443,361.97263 373.854607,362.379658 375.487107,362.379658 Z M376.536244,358.969032 C375.500363,358.969032 374.603718,358.703672 373.84631,358.172953 C373.088902,357.642233 372.506684,356.881678 372.099655,355.891287 C371.692627,354.900896 371.489113,353.727448 371.489113,352.370941 L371.489113,352.352631 C371.489113,350.994026 371.693199,349.824535 372.101372,348.844158 C372.509545,347.863781 373.091763,347.10685 373.848026,346.573364 C374.60429,346.039879 375.500363,345.773136 376.536244,345.773136 C377.534359,345.773136 378.414076,346.044838 379.175394,346.588242 C379.936712,347.131645 380.536383,347.896063 380.974405,348.881495 C381.412428,349.866926 381.631439,351.025116 381.631439,352.356064 L381.631439,352.374374 C381.631439,353.703224 381.41548,354.862844 380.983561,355.853235 C380.551642,356.843626 379.951971,357.610523 379.18455,358.153927 C378.417128,358.69733 377.534359,358.969032 376.536244,358.969032 Z M198.038783,407 L202.044787,392.575581 L202.131476,392.575581 L206.162372,407 L210.30313,407 L215.572848,387.742168 L211.641231,387.742168 L208.138194,402.89386 L208.051505,402.89386 L204.029193,387.742168 L200.204291,387.742168 L196.203437,402.89386 L196.116748,402.89386 L192.613711,387.742168 L188.633456,387.742168 L193.924918,407 L198.038783,407 Z M220.504885,384.778149 C221.156054,384.778149 221.704083,384.553701 222.148972,384.104807 C222.593861,383.655912 222.816306,383.118755 222.816306,382.493336 C222.816306,381.855709 222.593861,381.315548 222.148972,380.872852 C221.704083,380.430157 221.156054,380.208809 220.504885,380.208809 C219.863826,380.208809 219.318324,380.430157 218.86838,380.872852 C218.418437,381.315548 218.193465,381.855709 218.193465,382.493336 C218.193465,383.118755 218.418437,383.655912 218.86838,384.104807 C219.318324,384.553701 219.863826,384.778149 220.504885,384.778149 Z M222.494155,407 L222.494155,387.742168 L218.515616,387.742168 L218.515616,407 L222.494155,407 Z M233.701148,407.379658 C234.105697,407.379658 234.486022,407.362158 234.842124,407.327158 C235.198226,407.292158 235.492911,407.257969 235.72618,407.22459 L235.72618,404.156143 C235.58084,404.170448 235.418525,404.186756 235.239234,404.205067 C235.059943,404.223377 234.864821,404.232533 234.653869,404.232533 C233.815017,404.232533 233.182015,404.053051 232.754865,403.694088 C232.327714,403.335125 232.114139,402.666981 232.114139,401.689655 L232.114139,390.889294 L235.72618,390.889294 L235.72618,387.742168 L232.114139,387.742168 L232.114139,382.72794 L228.04605,382.72794 L228.04605,387.742168 L225.28316,387.742168 L225.28316,390.889294 L228.04605,390.889294 L228.04605,401.915962 C228.04605,403.837807 228.512445,405.228884 229.445233,406.089193 C230.378022,406.949503 231.79666,407.379658 233.701148,407.379658 Z M243.456749,407 L243.456749,395.841724 C243.456749,394.838268 243.645004,393.957788 244.021515,393.200285 C244.398026,392.442781 244.926981,391.848881 245.608381,391.418583 C246.289782,390.988285 247.083,390.773136 247.988037,390.773136 C249.376587,390.773136 250.453428,391.220648 251.218561,392.115671 C251.983694,393.010695 252.366261,394.253857 252.366261,395.845158 L252.366261,407 L256.344513,407 L256.344513,395.094425 C256.344513,393.540699 256.061033,392.185671 255.494074,391.029341 C254.927115,389.873011 254.132847,388.97279 253.111271,388.328678 C252.089695,387.684566 250.889114,387.362511 249.509529,387.362511 C248.073486,387.362511 246.847729,387.672216 245.832256,388.291628 C244.816784,388.911039 244.053845,389.784748 243.543438,390.912754 L243.456749,390.912754 L243.456749,380.577881 L239.478497,380.577881 L239.478497,407 L243.456749,407 Z M280.265763,407.446033 C282.216408,407.446033 283.973839,407.078535 285.538056,406.343538 C287.102273,405.608541 288.388779,404.57905 289.397576,403.255064 C290.406373,401.931078 291.045334,400.392086 291.314461,398.638088 L291.344216,398.45155 L287.25982,398.45155 L287.211468,398.623211 C286.886838,399.740345 286.401227,400.683624 285.754635,401.453049 C285.108044,402.222473 284.324696,402.80636 283.404591,403.20471 C282.484486,403.60306 281.439354,403.802235 280.269196,403.802235 C278.648903,403.802235 277.233794,403.390772 276.023867,402.567846 C274.813941,401.744921 273.878768,400.581724 273.218348,399.078257 C272.557929,397.574789 272.227719,395.807487 272.227719,393.776352 L272.227719,393.758041 C272.227719,391.719276 272.557929,389.954836 273.218348,388.46472 C273.878768,386.974604 274.810889,385.820562 276.014712,385.002596 C277.218535,384.184629 278.635552,383.775646 280.265763,383.775646 C281.459382,383.775646 282.518199,383.97649 283.442214,384.378178 C284.366229,384.779865 285.141232,385.350496 285.767224,386.090071 C286.393216,386.829645 286.852505,387.718613 287.145093,388.756973 L287.252953,389.126331 L291.337636,389.126331 L291.307595,388.946373 C291.038468,387.200195 290.398696,385.667068 289.388278,384.346992 C288.37786,383.026917 287.091162,381.994373 285.528185,381.249363 C283.965209,380.504353 282.211068,380.131847 280.265763,380.131847 C277.769616,380.131847 275.60425,380.685837 273.769667,381.793816 C271.935084,382.901794 270.516684,384.474499 269.514468,386.511929 C268.512251,388.549358 268.011143,390.965874 268.011143,393.761475 L268.011143,393.779785 C268.011143,396.575386 268.511679,398.994953 269.512751,401.038486 C270.513823,403.08202 271.934178,404.660828 273.773816,405.77491 C275.613453,406.888992 277.777436,407.446033 280.265763,407.446033 Z M295.417906,380.577881 L295.417906,407 L299.532,407 L306.028296,407 C307.910276,407 309.522177,406.700069 310.863997,406.100208 C312.205816,405.500347 313.238789,404.644663 313.962914,403.533155 C314.687038,402.421648 315.049101,401.093037 315.049101,399.547321 L315.049101,399.5107 C315.049101,398.343212 314.794899,397.298653 314.286495,396.377022 C313.778091,395.455391 313.058878,394.704992 312.128855,394.125826 C311.198832,393.546659 310.106874,393.194992 308.852983,393.070824 L308.852983,392.984135 C309.788538,392.849857 310.625959,392.503387 311.365248,391.944725 C312.104536,391.386063 312.687279,390.692837 313.113476,389.865047 C313.539673,389.037258 313.752771,388.155491 313.752771,387.219746 L313.752771,387.183125 C313.752771,385.851414 313.430906,384.690601 312.787176,383.700687 C312.143446,382.710773 311.239983,381.942827 310.076786,381.396849 C308.913589,380.85087 307.547213,380.577881 305.977655,380.577881 L299.532915,380.577881 L297.475267,380.577881 L295.417906,380.577881 Z M299.532,383.928997 L304.9783,383.928997 C306.465651,383.928997 307.615782,384.253151 308.428694,384.901459 C309.241606,385.549767 309.648062,386.47998 309.648062,387.692101 L309.648062,387.728722 C309.648062,389.051849 309.172035,390.067751 308.219982,390.776426 C307.267929,391.485102 305.888105,391.839439 304.080511,391.839439 L299.532,391.84 L299.532,383.928997 Z M299.532,395.014 L304.910208,395.013458 C306.213308,395.013458 307.304312,395.173151 308.183218,395.492537 C309.062124,395.811922 309.723402,396.289904 310.167051,396.926481 C310.610701,397.563059 310.832525,398.354847 310.832525,399.301846 L310.832525,399.338467 C310.832525,400.744755 310.351492,401.81473 309.389425,402.548391 C308.427359,403.282053 307.029177,403.648884 305.19488,403.648884 L299.532,403.649 L299.532,395.014 Z M329.599906,407 L329.599906,384.12841 L337.679435,384.12841 L337.679435,380.577881 L317.405368,380.577881 L317.405368,384.12841 L325.484897,384.12841 L325.484897,407 L329.599906,407 Z M351.09259,407.446033 C353.043235,407.446033 354.800666,407.078535 356.364883,406.343538 C357.9291,405.608541 359.215606,404.57905 360.224403,403.255064 C361.2332,401.931078 361.872161,400.392086 362.141288,398.638088 L362.171043,398.45155 L358.086647,398.45155 L358.038295,398.623211 C357.713665,399.740345 357.228054,400.683624 356.581462,401.453049 C355.934871,402.222473 355.151523,402.80636 354.231418,403.20471 C353.311313,403.60306 352.266181,403.802235 351.096023,403.802235 C349.47573,403.802235 348.060621,403.390772 346.850694,402.567846 C345.640768,401.744921 344.705595,400.581724 344.045175,399.078257 C343.384756,397.574789 343.054546,395.807487 343.054546,393.776352 L343.054546,393.758041 C343.054546,391.719276 343.384756,389.954836 344.045175,388.46472 C344.705595,386.974604 345.637716,385.820562 346.841539,385.002596 C348.045362,384.184629 349.462379,383.775646 351.09259,383.775646 C352.286209,383.775646 353.345026,383.97649 354.269041,384.378178 C355.193056,384.779865 355.968059,385.350496 356.594051,386.090071 C357.220043,386.829645 357.679332,387.718613 357.97192,388.756973 L358.07978,389.126331 L362.164463,389.126331 L362.134422,388.946373 C361.865295,387.200195 361.225523,385.667068 360.215105,384.346992 C359.204687,383.026917 357.917989,381.994373 356.355012,381.249363 C354.792036,380.504353 353.037895,380.131847 351.09259,380.131847 C348.596443,380.131847 346.431077,380.685837 344.596494,381.793816 C342.761911,382.901794 341.343511,384.474499 340.341295,386.511929 C339.339078,388.549358 338.83797,390.965874 338.83797,393.761475 L338.83797,393.779785 C338.83797,396.575386 339.338506,398.994953 340.339578,401.038486 C341.34065,403.08202 342.761005,404.660828 344.600643,405.77491 C346.44028,406.888992 348.604263,407.446033 351.09259,407.446033 Z" id="NotequippedwithCBTC" fill="#FFFFFF" fill-rule="nonzero"></path>
        <g id="Group" transform="translate(522.000000, 108.000000)">
            <path d="M28.5,1.11260682 C36.0628198,1.11260682 42.9096681,4.17804522 47.8658114,9.13418856 C52.8219548,14.0903319 55.8873932,20.9371802 55.8873932,28.5 L55.8873932,28.5 L55.8873932,138.5 C55.8873932,146.06282 52.8219548,152.909668 47.8658114,157.865811 C42.9096681,162.821955 36.0628198,165.887393 28.5,165.887393 C20.9371802,165.887393 14.0903319,162.821955 9.13418856,157.865811 C4.17804522,152.909668 1.11260682,146.06282 1.11260682,138.5 L1.11260682,138.5 L1.11260682,28.5 C1.11260682,20.9371802 4.17804522,14.0903319 9.13418856,9.13418856 C14.0903319,4.17804522 20.9371802,1.11260682 28.5,1.11260682 Z" id="Combined-Shape" stroke="#4A4A4A" stroke-width="2.22521364" fill="#000000"></path>
            <ellipse id="Oval" fill="#2F2F2F" cx="28.5" cy="66.8" rx="10.9615385" ry="11.1333333"></ellipse>
            <ellipse id="Oval" fill="#0046FF" cx="28.5" cy="33.4" rx="10.9615385" ry="11.1333333"></ellipse>
            <ellipse id="Oval" fill="#2F2F2F" cx="28.5" cy="100.2" rx="10.9615385" ry="11.1333333"></ellipse>
            <ellipse id="Oval" fill="#FF0000" cx="28.5" cy="133.6" rx="10.9615385" ry="11.1333333"></ellipse>
        </g>
        <rect id="Rectangle" fill="#FFFFFF" x="680" y="323" width="288" height="96"></rect>
        <rect id="Rectangle" fill="#888888" x="680" y="323" width="288" height="96"></rect>
        <path d="M726.397654,362 L726.397654,358.449471 L713.726755,358.449471 L713.726755,350.263798 L725.720163,350.263798 L725.720163,346.82399 L713.726755,346.82399 L713.726755,339.12841 L726.397654,339.12841 L726.397654,335.577881 L709.611746,335.577881 L709.611746,362 L726.397654,362 Z M747.791932,368.408691 L747.791932,342.742168 L743.813679,342.742168 L743.813679,346.042072 L743.723557,346.042072 C743.346474,345.307171 742.864154,344.666969 742.276595,344.121468 C741.689036,343.575966 741.014598,343.151438 740.253279,342.847883 C739.491961,342.544329 738.65516,342.392551 737.742875,342.392551 C736.115906,342.392551 734.695981,342.798435 733.483098,343.610203 C732.270215,344.42197 731.3256,345.569765 730.649254,347.053587 C729.972909,348.537409 729.634736,350.298798 729.634736,352.337753 L729.634736,352.356064 C729.634736,354.392921 729.966805,356.160748 730.630944,357.659542 C731.295083,359.158337 732.230542,360.314714 733.437321,361.128675 C734.644101,361.942636 736.053727,362.349617 737.666199,362.349617 C738.59298,362.349617 739.446185,362.205898 740.225814,361.918461 C741.005442,361.631023 741.692612,361.224234 742.287324,360.698092 C742.882035,360.171949 743.361924,359.54982 743.72699,358.831703 L743.813679,358.831703 L743.813679,368.408691 L747.791932,368.408691 Z M738.784859,358.938992 C737.749169,358.938992 736.847613,358.673632 736.080191,358.142912 C735.31277,357.612192 734.723065,356.854164 734.311078,355.868828 C733.89909,354.883492 733.693097,353.71257 733.693097,352.356064 L733.693097,352.337753 C733.693097,350.999176 733.899663,349.842131 734.312794,348.866617 C734.725926,347.891104 735.315631,347.136652 736.081908,346.603262 C736.848185,346.069872 737.749169,345.803177 738.784859,345.803177 C739.782975,345.803177 740.660212,346.072399 741.416571,346.610844 C742.17293,347.149288 742.762635,347.906219 743.185685,348.881638 C743.608735,349.857056 743.82026,351.010239 743.82026,352.341187 L743.82026,352.359497 C743.82026,353.688156 743.609307,354.847681 743.187401,355.838072 C742.765496,356.828463 742.178319,357.59288 741.42587,358.131325 C740.673421,358.669769 739.793084,358.938992 738.784859,358.938992 Z M758.603867,362.379658 C760.069855,362.379658 761.293658,362.077438 762.275275,361.473 C763.256892,360.868561 764.001855,360.077106 764.510163,359.098637 L764.596852,359.098637 L764.596852,362 L768.575104,362 L768.575104,342.742168 L764.596852,342.742168 L764.596852,353.975117 C764.596852,354.966557 764.408597,355.839073 764.032086,356.592667 C763.655575,357.34626 763.124665,357.930719 762.439355,358.346045 C761.754044,358.76137 760.947808,358.969032 760.020646,358.969032 C758.652123,358.969032 757.627638,358.578836 756.947192,357.798445 C756.266745,357.018053 755.926522,355.902016 755.926522,354.450333 L755.926522,342.742168 L751.948269,342.742168 L751.948269,355.215942 C751.948269,356.687653 752.209338,357.959854 752.731474,359.032547 C753.253611,360.10524 754.011019,360.931265 755.003699,361.510622 C755.996379,362.089979 757.196435,362.379658 758.603867,362.379658 Z M774.991409,339.778149 C775.642578,339.778149 776.190607,339.553701 776.635496,339.104807 C777.080385,338.655912 777.302829,338.118755 777.302829,337.493336 C777.302829,336.855709 777.080385,336.315548 776.635496,335.872852 C776.190607,335.430157 775.642578,335.208809 774.991409,335.208809 C774.350349,335.208809 773.804847,335.430157 773.354904,335.872852 C772.90496,336.315548 772.679988,336.855709 772.679988,337.493336 C772.679988,338.118755 772.90496,338.655912 773.354904,339.104807 C773.804847,339.553701 774.350349,339.778149 774.991409,339.778149 Z M776.980678,362 L776.980678,342.742168 L773.002139,342.742168 L773.002139,362 L776.980678,362 Z M785.386158,368.408691 L785.386158,358.75703 L785.472847,358.75703 C785.860039,359.505093 786.352945,360.149633 786.951566,360.690653 C787.550188,361.231672 788.241792,361.648428 789.02638,361.94092 C789.810968,362.233412 790.656639,362.379658 791.563392,362.379658 C793.178154,362.379658 794.583393,361.97263 795.77911,361.158573 C796.974827,360.344517 797.904707,359.190571 798.56875,357.696735 C799.232794,356.2029 799.564815,354.43269 799.564815,352.386105 L799.564815,352.367794 C799.564815,350.318729 799.234176,348.5448 798.572899,347.046005 C797.911621,345.547211 796.97702,344.39193 795.769096,343.580162 C794.561172,342.768394 793.138767,342.362511 791.50188,342.362511 C790.589596,342.362511 789.747787,342.511808 788.976455,342.810404 C788.205124,343.108999 787.525678,343.531048 786.93812,344.07655 C786.350561,344.622051 785.863281,345.277225 785.47628,346.042072 L785.386158,346.042072 L785.386158,342.742168 L781.407905,342.742168 L781.407905,368.408691 L785.386158,368.408691 Z M790.45961,358.969032 C789.461494,358.969032 788.581777,358.69733 787.820459,358.153927 C787.059141,357.610523 786.459471,356.846106 786.021448,355.860674 C785.583425,354.875242 785.364414,353.718102 785.364414,352.389252 L785.364414,352.370941 C785.364414,351.030075 785.580946,349.866926 786.014009,348.881495 C786.447073,347.896063 787.047315,347.131645 787.814737,346.588242 C788.582159,346.044838 789.463783,345.773136 790.45961,345.773136 C791.4953,345.773136 792.391325,346.037399 793.147684,346.565926 C793.904043,347.094452 794.486261,347.851383 794.894338,348.83672 C795.302416,349.822056 795.506454,350.999081 795.506454,352.367794 L795.506454,352.386105 C795.506454,353.732502 795.302988,354.898417 794.896055,355.883848 C794.489122,356.86928 793.907476,357.629835 793.151117,358.165514 C792.394758,358.701193 791.497589,358.969032 790.45961,358.969032 Z M806.956036,368.408691 L806.956036,358.75703 L807.042725,358.75703 C807.429916,359.505093 807.922823,360.149633 808.521444,360.690653 C809.120066,361.231672 809.81167,361.648428 810.596258,361.94092 C811.380846,362.233412 812.226517,362.379658 813.13327,362.379658 C814.748032,362.379658 816.153271,361.97263 817.348988,361.158573 C818.544704,360.344517 819.474585,359.190571 820.138628,357.696735 C820.802671,356.2029 821.134693,354.43269 821.134693,352.386105 L821.134693,352.367794 C821.134693,350.318729 820.804054,348.5448 820.142777,347.046005 C819.481499,345.547211 818.546898,344.39193 817.338974,343.580162 C816.13105,342.768394 814.708645,342.362511 813.071758,342.362511 C812.159473,342.362511 811.317665,342.511808 810.546333,342.810404 C809.775002,343.108999 809.095556,343.531048 808.507998,344.07655 C807.920439,344.622051 807.433159,345.277225 807.046158,346.042072 L806.956036,346.042072 L806.956036,342.742168 L802.977783,342.742168 L802.977783,368.408691 L806.956036,368.408691 Z M812.029488,358.969032 C811.031372,358.969032 810.151655,358.69733 809.390337,358.153927 C808.629019,357.610523 808.029348,356.846106 807.591326,355.860674 C807.153303,354.875242 806.934292,353.718102 806.934292,352.389252 L806.934292,352.370941 C806.934292,351.030075 807.150824,349.866926 807.583887,348.881495 C808.016951,347.896063 808.617193,347.131645 809.384615,346.588242 C810.152037,346.044838 811.033661,345.773136 812.029488,345.773136 C813.065178,345.773136 813.961203,346.037399 814.717562,346.565926 C815.473921,347.094452 816.056139,347.851383 816.464216,348.83672 C816.872294,349.822056 817.076332,350.999081 817.076332,352.367794 L817.076332,352.386105 C817.076332,353.732502 816.872866,354.898417 816.465933,355.883848 C816.059,356.86928 815.477354,357.629835 814.720995,358.165514 C813.964636,358.701193 813.067467,358.969032 812.029488,358.969032 Z M832.787407,362.379658 C833.956993,362.379658 835.015858,362.221682 835.964001,361.905729 C836.912144,361.589777 837.739743,361.155617 838.446797,360.603249 C839.153851,360.05088 839.726246,359.424507 840.163983,358.724129 C840.601719,358.02375 840.898789,357.294094 841.055191,356.53516 L841.095246,356.342041 L837.312687,356.342041 L837.264622,356.486809 C837.103833,356.971085 836.826027,357.413446 836.431206,357.813894 C836.036385,358.214342 835.539521,358.533823 834.940613,358.772337 C834.341706,359.010851 833.652867,359.130108 832.874096,359.130108 C831.807125,359.130108 830.883826,358.894693 830.104197,358.423864 C829.324568,357.953035 828.723229,357.275116 828.300179,356.390106 C827.919434,355.593597 827.710024,354.650704 827.67195,353.561427 L827.668,353.383 L841.306389,353.382885 L841.306389,352.036201 C841.306389,350.105202 840.954483,348.412764 840.250672,346.958887 C839.54686,345.505011 838.54245,344.375479 837.237442,343.570292 C835.932434,342.765104 834.379662,342.362511 832.579125,342.362511 C830.778588,342.362511 829.213417,342.781174 827.883614,343.6185 C826.55381,344.455826 825.522555,345.628893 824.789847,347.137701 C824.057139,348.646509 823.690785,350.404846 823.690785,352.412712 L823.690785,352.431023 C823.690785,354.456436 824.055184,356.214725 824.783982,357.705891 C825.51278,359.197056 826.557387,360.348808 827.917803,361.161148 C829.278219,361.973488 830.901421,362.379658 832.787407,362.379658 Z M837.383,350.571 L827.72,350.571 L827.75029,350.309468 C827.849091,349.572192 828.034342,348.917197 828.306044,348.344481 C828.733004,347.444498 829.319084,346.764099 830.064286,346.303284 C830.809487,345.842468 831.65511,345.612061 832.601155,345.612061 C833.5472,345.612061 834.382857,345.832502 835.108126,346.273386 C835.833395,346.71427 836.402024,347.382175 836.814011,348.277103 C837.076185,348.846603 837.254939,349.509524 837.350275,350.265867 L837.383,350.571 Z M851.908629,362.379658 C853.293746,362.379658 854.504292,362.054741 855.540269,361.404907 C856.576245,360.755074 857.379859,359.864628 857.95111,358.73357 L858.037799,358.73357 L858.037799,362 L862.016337,362 L862.016337,335.577881 L858.037799,335.577881 L858.037799,346.012032 L857.95111,346.012032 C857.375472,344.879829 856.558888,343.988525 855.501359,343.33812 C854.44383,342.687714 853.233569,342.362511 851.870578,342.362511 C850.263446,342.362511 848.858445,342.768394 847.655576,343.580162 C846.452706,344.39193 845.518105,345.544731 844.851773,347.038567 C844.185441,348.532402 843.852275,350.303757 843.852275,352.352631 L843.852275,352.370941 C843.852275,354.417717 844.182961,356.190502 844.844335,357.689297 C845.505708,359.188091 846.440309,360.344517 847.648137,361.158573 C848.855966,361.97263 850.27613,362.379658 851.908629,362.379658 Z M852.957767,358.969032 C851.921885,358.969032 851.025241,358.703672 850.267833,358.172953 C849.510425,357.642233 848.928206,356.881678 848.521178,355.891287 C848.11415,354.900896 847.910636,353.727448 847.910636,352.370941 L847.910636,352.352631 C847.910636,350.994026 848.114722,349.824535 848.522895,348.844158 C848.931067,347.863781 849.513286,347.10685 850.269549,346.573364 C851.025813,346.039879 851.921885,345.773136 852.957767,345.773136 C853.955882,345.773136 854.835599,346.044838 855.596917,346.588242 C856.358235,347.131645 856.957906,347.896063 857.395928,348.881495 C857.833951,349.866926 858.052962,351.025116 858.052962,352.356064 L858.052962,352.374374 C858.052962,353.703224 857.837003,354.862844 857.405084,355.853235 C856.973165,356.843626 856.373494,357.610523 855.606072,358.153927 C854.838651,358.69733 853.955882,358.969032 852.957767,358.969032 Z M882.275397,362 L886.281402,347.575581 L886.368091,347.575581 L890.398986,362 L894.539744,362 L899.809463,342.742168 L895.877845,342.742168 L892.374808,357.89386 L892.288119,357.89386 L888.265807,342.742168 L884.440906,342.742168 L880.440051,357.89386 L880.353362,357.89386 L876.850326,342.742168 L872.87007,342.742168 L878.161532,362 L882.275397,362 Z M904.7415,339.778149 C905.392668,339.778149 905.940697,339.553701 906.385586,339.104807 C906.830475,338.655912 907.05292,338.118755 907.05292,337.493336 C907.05292,336.855709 906.830475,336.315548 906.385586,335.872852 C905.940697,335.430157 905.392668,335.208809 904.7415,335.208809 C904.10044,335.208809 903.554938,335.430157 903.104994,335.872852 C902.655051,336.315548 902.430079,336.855709 902.430079,337.493336 C902.430079,338.118755 902.655051,338.655912 903.104994,339.104807 C903.554938,339.553701 904.10044,339.778149 904.7415,339.778149 Z M906.730769,362 L906.730769,342.742168 L902.75223,342.742168 L902.75223,362 L906.730769,362 Z M917.937762,362.379658 C918.342311,362.379658 918.722636,362.362158 919.078738,362.327158 C919.43484,362.292158 919.729526,362.257969 919.962794,362.22459 L919.962794,359.156143 C919.817454,359.170448 919.655139,359.186756 919.475848,359.205067 C919.296557,359.223377 919.101436,359.232533 918.890483,359.232533 C918.051631,359.232533 917.41863,359.053051 916.991479,358.694088 C916.564328,358.335125 916.350753,357.666981 916.350753,356.689655 L916.350753,345.889294 L919.962794,345.889294 L919.962794,342.742168 L916.350753,342.742168 L916.350753,337.72794 L912.282664,337.72794 L912.282664,342.742168 L909.519774,342.742168 L909.519774,345.889294 L912.282664,345.889294 L912.282664,356.915962 C912.282664,358.837807 912.749059,360.228884 913.681848,361.089193 C914.614636,361.949503 916.033275,362.379658 917.937762,362.379658 Z M927.693363,362 L927.693363,350.841724 C927.693363,349.838268 927.881619,348.957788 928.258129,348.200285 C928.63464,347.442781 929.163595,346.848881 929.844996,346.418583 C930.526396,345.988285 931.319614,345.773136 932.224651,345.773136 C933.613201,345.773136 934.690043,346.220648 935.455175,347.115671 C936.220308,348.010695 936.602875,349.253857 936.602875,350.845158 L936.602875,362 L940.581127,362 L940.581127,350.094425 C940.581127,348.540699 940.297648,347.185671 939.730688,346.029341 C939.163729,344.873011 938.369461,343.97279 937.347885,343.328678 C936.326309,342.684566 935.125729,342.362511 933.746143,342.362511 C932.310101,342.362511 931.084343,342.672216 930.068871,343.291628 C929.053398,343.911039 928.290459,344.784748 927.780052,345.912754 L927.693363,345.912754 L927.693363,335.577881 L923.715111,335.577881 L923.715111,362 L927.693363,362 Z M790.089615,407.446033 C792.04026,407.446033 793.797691,407.078535 795.361908,406.343538 C796.926124,405.608541 798.212631,404.57905 799.221428,403.255064 C800.230224,401.931078 800.869186,400.392086 801.138313,398.638088 L801.168068,398.45155 L797.083671,398.45155 L797.03532,398.623211 C796.710689,399.740345 796.225078,400.683624 795.578487,401.453049 C794.931896,402.222473 794.148548,402.80636 793.228443,403.20471 C792.308338,403.60306 791.263206,403.802235 790.093048,403.802235 C788.472755,403.802235 787.057646,403.390772 785.847719,402.567846 C784.637792,401.744921 783.702619,400.581724 783.0422,399.078257 C782.38178,397.574789 782.051571,395.807487 782.051571,393.776352 L782.051571,393.758041 C782.051571,391.719276 782.38178,389.954836 783.0422,388.46472 C783.702619,386.974604 784.634741,385.820562 785.838564,385.002596 C787.042387,384.184629 788.459404,383.775646 790.089615,383.775646 C791.283233,383.775646 792.34205,383.97649 793.266065,384.378178 C794.19008,384.779865 794.965084,385.350496 795.591076,386.090071 C796.217068,386.829645 796.676357,387.718613 796.968944,388.756973 L797.076805,389.126331 L801.161487,389.126331 L801.131447,388.946373 C800.86232,387.200195 800.222547,385.667068 799.212129,384.346992 C798.201711,383.026917 796.915014,381.994373 795.352037,381.249363 C793.78906,380.504353 792.03492,380.131847 790.089615,380.131847 C787.593468,380.131847 785.428102,380.685837 783.593519,381.793816 C781.758936,382.901794 780.340536,384.474499 779.33832,386.511929 C778.336103,388.549358 777.834995,390.965874 777.834995,393.761475 L777.834995,393.779785 C777.834995,396.575386 778.335531,398.994953 779.336603,401.038486 C780.337675,403.08202 781.75803,404.660828 783.597668,405.77491 C785.437305,406.888992 787.601288,407.446033 790.089615,407.446033 Z M805.241758,380.577881 L805.241758,407 L809.356,407 L815.852147,407 C817.734128,407 819.346029,406.700069 820.687848,406.100208 C822.029668,405.500347 823.06264,404.644663 823.786765,403.533155 C824.51089,402.421648 824.872953,401.093037 824.872953,399.547321 L824.872953,399.5107 C824.872953,398.343212 824.618751,397.298653 824.110347,396.377022 C823.601943,395.455391 822.88273,394.704992 821.952707,394.125826 C821.022683,393.546659 819.930726,393.194992 818.676835,393.070824 L818.676835,392.984135 C819.61239,392.849857 820.449811,392.503387 821.1891,391.944725 C821.928388,391.386063 822.511131,390.692837 822.937328,389.865047 C823.363525,389.037258 823.576623,388.155491 823.576623,387.219746 L823.576623,387.183125 C823.576623,385.851414 823.254758,384.690601 822.611028,383.700687 C821.967298,382.710773 821.063834,381.942827 819.900638,381.396849 C818.737441,380.85087 817.371064,380.577881 815.801507,380.577881 L809.356767,380.577881 L807.299119,380.577881 L805.241758,380.577881 Z M809.356,383.928997 L814.802152,383.928997 C816.289502,383.928997 817.439634,384.253151 818.252546,384.901459 C819.065458,385.549767 819.471914,386.47998 819.471914,387.692101 L819.471914,387.728722 C819.471914,389.051849 818.995887,390.067751 818.043834,390.776426 C817.091781,391.485102 815.711957,391.839439 813.904363,391.839439 L809.356,391.84 L809.356,383.928997 Z M809.356,395.014 L814.73406,395.013458 C816.03716,395.013458 817.128164,395.173151 818.00707,395.492537 C818.885976,395.811922 819.547254,396.289904 819.990903,396.926481 C820.434552,397.563059 820.656377,398.354847 820.656377,399.301846 L820.656377,399.338467 C820.656377,400.744755 820.175344,401.81473 819.213277,402.548391 C818.25121,403.282053 816.853029,403.648884 815.018731,403.648884 L809.356,403.649 L809.356,395.014 Z M839.423758,407 L839.423758,384.12841 L847.503287,384.12841 L847.503287,380.577881 L827.22922,380.577881 L827.22922,384.12841 L835.308748,384.12841 L835.308748,407 L839.423758,407 Z M860.916442,407.446033 C862.867087,407.446033 864.624518,407.078535 866.188735,406.343538 C867.752951,405.608541 869.039458,404.57905 870.048255,403.255064 C871.057051,401.931078 871.696013,400.392086 871.96514,398.638088 L871.994895,398.45155 L867.910498,398.45155 L867.862147,398.623211 C867.537516,399.740345 867.051905,400.683624 866.405314,401.453049 C865.758723,402.222473 864.975375,402.80636 864.05527,403.20471 C863.135165,403.60306 862.090033,403.802235 860.919875,403.802235 C859.299582,403.802235 857.884473,403.390772 856.674546,402.567846 C855.464619,401.744921 854.529446,400.581724 853.869027,399.078257 C853.208607,397.574789 852.878398,395.807487 852.878398,393.776352 L852.878398,393.758041 C852.878398,391.719276 853.208607,389.954836 853.869027,388.46472 C854.529446,386.974604 855.461568,385.820562 856.665391,385.002596 C857.869214,384.184629 859.286231,383.775646 860.916442,383.775646 C862.11006,383.775646 863.168877,383.97649 864.092892,384.378178 C865.016907,384.779865 865.791911,385.350496 866.417903,386.090071 C867.043895,386.829645 867.503184,387.718613 867.795771,388.756973 L867.903632,389.126331 L871.988314,389.126331 L871.958274,388.946373 C871.689147,387.200195 871.049374,385.667068 870.038956,384.346992 C869.028538,383.026917 867.741841,381.994373 866.178864,381.249363 C864.615887,380.504353 862.861747,380.131847 860.916442,380.131847 C858.420295,380.131847 856.254929,380.685837 854.420346,381.793816 C852.585763,382.901794 851.167363,384.474499 850.165147,386.511929 C849.16293,388.549358 848.661822,390.965874 848.661822,393.761475 L848.661822,393.779785 C848.661822,396.575386 849.162358,398.994953 850.16343,401.038486 C851.164502,403.08202 852.584857,404.660828 854.424495,405.77491 C856.264132,406.888992 858.428115,407.446033 860.916442,407.446033 Z" id="EquippedwithCBTC" fill="#FFFFFF" fill-rule="nonzero"></path>
    </g>
</svg>