<?xml version="1.0" encoding="UTF-8"?>
<svg width="1100px" height="550px" viewBox="0 0 1100 550" version="1.1" xmlns="http://www.w3.org/2000/svg" xmlns:xlink="http://www.w3.org/1999/xlink">
    <title>Artboard</title>
    <g id="Artboard" stroke="none" stroke-width="1" fill="none" fill-rule="evenodd">
        <line x1="0" y1="419.25" x2="1650" y2="418.5" id="Path-2" stroke="#4A4A4A" stroke-width="30"></line>
        <rect id="Rectangle" fill="#FFFFFF" x="131" y="323" width="288" height="96"></rect>
        <rect id="Rectangle" fill="#F2F2F2" x="546" y="395" width="8" height="48"></rect>
        <rect id="Rectangle" fill="#888888" x="131" y="323" width="288" height="96"></rect>
        <path d="M170.187292,335.577881 L166.385565,335.577881 L166.385565,362 L170.470534,362 L170.470534,342.450344 L170.574,342.451 L184.167395,362 L187.955962,362 L187.955962,335.577881 L183.870707,335.577881 L183.870707,355.087482 L183.768,355.088 L170.187292,335.577881 Z M200.997514,362.379658 C202.838297,362.379658 204.442472,361.975681 205.810041,361.167728 C207.17761,360.359776 208.241291,359.208881 209.001083,357.715046 C209.760875,356.22121 210.140772,354.440987 210.140772,352.374374 L210.140772,352.337753 C210.140772,350.275528 209.759207,348.500025 208.996076,347.011244 C208.232946,345.522463 207.165069,344.375479 205.792446,343.570292 C204.419822,342.765104 202.816553,342.362511 200.982637,342.362511 C199.160928,342.362511 197.56381,342.765629 196.191282,343.571865 C194.818754,344.378101 193.750877,345.52623 192.987652,347.016251 C192.224426,348.506271 191.842813,350.280106 191.842813,352.337753 L191.842813,352.374374 C191.842813,354.42878 192.222185,356.205427 192.980928,357.704317 C193.739671,359.203207 194.805307,360.357153 196.177835,361.166155 C197.550363,361.975157 199.156923,362.379658 200.997514,362.379658 Z M201.015825,359.056293 C199.982424,359.056293 199.08287,358.794224 198.317165,358.270084 C197.55146,357.745945 196.957369,356.985056 196.534891,355.987417 C196.112413,354.989779 195.901174,353.785431 195.901174,352.374374 L195.901174,352.337753 C195.901174,350.929176 196.112985,349.73098 196.536608,348.743164 C196.96023,347.755348 197.554893,346.998846 198.320598,346.473658 C199.086303,345.948469 199.97365,345.685875 200.982637,345.685875 C202.011652,345.685875 202.909012,345.94599 203.674717,346.466219 C204.440422,346.986448 205.03313,347.74295 205.452842,348.735725 C205.872555,349.7285 206.082411,350.929176 206.082411,352.337753 L206.082411,352.374374 C206.082411,353.785431 205.873699,354.989779 205.456276,355.987417 C205.038852,356.985056 204.452247,357.745945 203.69646,358.270084 C202.940674,358.794224 202.047128,359.056293 201.015825,359.056293 Z M220.326675,362.379658 C220.731224,362.379658 221.111549,362.362158 221.467651,362.327158 C221.823753,362.292158 222.118438,362.257969 222.351707,362.22459 L222.351707,359.156143 C222.206367,359.170448 222.044052,359.186756 221.864761,359.205067 C221.68547,359.223377 221.490348,359.232533 221.279396,359.232533 C220.440544,359.232533 219.807542,359.053051 219.380392,358.694088 C218.953241,358.335125 218.739666,357.666981 218.739666,356.689655 L218.739666,345.889294 L222.351707,345.889294 L222.351707,342.742168 L218.739666,342.742168 L218.739666,337.72794 L214.671577,337.72794 L214.671577,342.742168 L211.908687,342.742168 L211.908687,345.889294 L214.671577,345.889294 L214.671577,356.915962 C214.671577,358.837807 215.137971,360.228884 216.07076,361.089193 C217.003549,361.949503 218.422187,362.379658 220.326675,362.379658 Z M242.148345,362.379658 C243.317931,362.379658 244.376796,362.221682 245.324939,361.905729 C246.273082,361.589777 247.100681,361.155617 247.807735,360.603249 C248.514789,360.05088 249.087184,359.424507 249.524921,358.724129 C249.962657,358.02375 250.259727,357.294094 250.416129,356.53516 L250.456184,356.342041 L246.673625,356.342041 L246.62556,356.486809 C246.46477,356.971085 246.186965,357.413446 245.792144,357.813894 C245.397323,358.214342 244.900459,358.533823 244.301551,358.772337 C243.702644,359.010851 243.013805,359.130108 242.235034,359.130108 C241.168063,359.130108 240.244764,358.894693 239.465135,358.423864 C238.685506,357.953035 238.084167,357.275116 237.661117,356.390106 C237.280372,355.593597 237.070962,354.650704 237.032888,353.561427 L237.029,353.383 L250.667327,353.382885 L250.667327,352.036201 C250.667327,350.105202 250.315421,348.412764 249.61161,346.958887 C248.907798,345.505011 247.903388,344.375479 246.59838,343.570292 C245.293372,342.765104 243.7406,342.362511 241.940063,342.362511 C240.139526,342.362511 238.574355,342.781174 237.244552,343.6185 C235.914748,344.455826 234.883493,345.628893 234.150785,347.137701 C233.418077,348.646509 233.051723,350.404846 233.051723,352.412712 L233.051723,352.431023 C233.051723,354.456436 233.416122,356.214725 234.14492,357.705891 C234.873717,359.197056 235.918325,360.348808 237.278741,361.161148 C238.639157,361.973488 240.262359,362.379658 242.148345,362.379658 Z M246.743,350.571 L237.081,350.571 L237.111228,350.309468 C237.210029,349.572192 237.39528,348.917197 237.666982,348.344481 C238.093942,347.444498 238.680022,346.764099 239.425224,346.303284 C240.170425,345.842468 241.016048,345.612061 241.962093,345.612061 C242.908138,345.612061 243.743795,345.832502 244.469064,346.273386 C245.194333,346.71427 245.762962,347.382175 246.174949,348.277103 C246.437123,348.846603 246.615877,349.509524 246.711213,350.265867 L246.743,350.571 Z M271.370409,368.408691 L271.370409,342.742168 L267.392156,342.742168 L267.392156,346.042072 L267.302034,346.042072 C266.924951,345.307171 266.442631,344.666969 265.855072,344.121468 C265.267513,343.575966 264.593075,343.151438 263.831756,342.847883 C263.070438,342.544329 262.233637,342.392551 261.321352,342.392551 C259.694384,342.392551 258.274458,342.798435 257.061575,343.610203 C255.848692,344.42197 254.904077,345.569765 254.227732,347.053587 C253.551386,348.537409 253.213213,350.298798 253.213213,352.337753 L253.213213,352.356064 C253.213213,354.392921 253.545282,356.160748 254.209421,357.659542 C254.87356,359.158337 255.809019,360.314714 257.015798,361.128675 C258.222578,361.942636 259.632204,362.349617 261.244676,362.349617 C262.171457,362.349617 263.024662,362.205898 263.804291,361.918461 C264.583919,361.631023 265.271089,361.224234 265.865801,360.698092 C266.460512,360.171949 266.940401,359.54982 267.305467,358.831703 L267.392156,358.831703 L267.392156,368.408691 L271.370409,368.408691 Z M262.363336,358.938992 C261.327646,358.938992 260.42609,358.673632 259.658668,358.142912 C258.891247,357.612192 258.301542,356.854164 257.889555,355.868828 C257.477568,354.883492 257.271574,353.71257 257.271574,352.356064 L257.271574,352.337753 C257.271574,350.999176 257.47814,349.842131 257.891271,348.866617 C258.304403,347.891104 258.894108,347.136652 259.660385,346.603262 C260.426662,346.069872 261.327646,345.803177 262.363336,345.803177 C263.361452,345.803177 264.238689,346.072399 264.995048,346.610844 C265.751408,347.149288 266.341112,347.906219 266.764162,348.881638 C267.187212,349.857056 267.398737,351.010239 267.398737,352.341187 L267.398737,352.359497 C267.398737,353.688156 267.187784,354.847681 266.765879,355.838072 C266.343973,356.828463 265.756796,357.59288 265.004347,358.131325 C264.251898,358.669769 263.371561,358.938992 262.363336,358.938992 Z M282.182344,362.379658 C283.648332,362.379658 284.872135,362.077438 285.853752,361.473 C286.835369,360.868561 287.580332,360.077106 288.08864,359.098637 L288.175329,359.098637 L288.175329,362 L292.153581,362 L292.153581,342.742168 L288.175329,342.742168 L288.175329,353.975117 C288.175329,354.966557 287.987074,355.839073 287.610563,356.592667 C287.234052,357.34626 286.703142,357.930719 286.017832,358.346045 C285.332521,358.76137 284.526285,358.969032 283.599123,358.969032 C282.2306,358.969032 281.206116,358.578836 280.525669,357.798445 C279.845222,357.018053 279.504999,355.902016 279.504999,354.450333 L279.504999,342.742168 L275.526747,342.742168 L275.526747,355.215942 C275.526747,356.687653 275.787815,357.959854 276.309952,359.032547 C276.832088,360.10524 277.589496,360.931265 278.582176,361.510622 C279.574856,362.089979 280.774912,362.379658 282.182344,362.379658 Z M298.569886,339.778149 C299.221055,339.778149 299.769084,339.553701 300.213973,339.104807 C300.658862,338.655912 300.881306,338.118755 300.881306,337.493336 C300.881306,336.855709 300.658862,336.315548 300.213973,335.872852 C299.769084,335.430157 299.221055,335.208809 298.569886,335.208809 C297.928826,335.208809 297.383324,335.430157 296.933381,335.872852 C296.483437,336.315548 296.258465,336.855709 296.258465,337.493336 C296.258465,338.118755 296.483437,338.655912 296.933381,339.104807 C297.383324,339.553701 297.928826,339.778149 298.569886,339.778149 Z M300.559155,362 L300.559155,342.742168 L296.580617,342.742168 L296.580617,362 L300.559155,362 Z M308.964635,368.408691 L308.964635,358.75703 L309.051324,358.75703 C309.438516,359.505093 309.931422,360.149633 310.530044,360.690653 C311.128665,361.231672 311.82027,361.648428 312.604857,361.94092 C313.389445,362.233412 314.235116,362.379658 315.14187,362.379658 C316.756631,362.379658 318.16187,361.97263 319.357587,361.158573 C320.553304,360.344517 321.483184,359.190571 322.147227,357.696735 C322.811271,356.2029 323.143292,354.43269 323.143292,352.386105 L323.143292,352.367794 C323.143292,350.318729 322.812654,348.5448 322.151376,347.046005 C321.490098,345.547211 320.555497,344.39193 319.347573,343.580162 C318.139649,342.768394 316.717244,342.362511 315.080358,342.362511 C314.168073,342.362511 313.326264,342.511808 312.554933,342.810404 C311.783601,343.108999 311.104156,343.531048 310.516597,344.07655 C309.929038,344.622051 309.441758,345.277225 309.054757,346.042072 L308.964635,346.042072 L308.964635,342.742168 L304.986382,342.742168 L304.986382,368.408691 L308.964635,368.408691 Z M314.038087,358.969032 C313.039971,358.969032 312.160254,358.69733 311.398936,358.153927 C310.637618,357.610523 310.037948,356.846106 309.599925,355.860674 C309.161902,354.875242 308.942891,353.718102 308.942891,352.389252 L308.942891,352.370941 C308.942891,351.030075 309.159423,349.866926 309.592486,348.881495 C310.02555,347.896063 310.625793,347.131645 311.393214,346.588242 C312.160636,346.044838 313.04226,345.773136 314.038087,345.773136 C315.073777,345.773136 315.969802,346.037399 316.726161,346.565926 C317.48252,347.094452 318.064738,347.851383 318.472816,348.83672 C318.880893,349.822056 319.084931,350.999081 319.084931,352.367794 L319.084931,352.386105 C319.084931,353.732502 318.881465,354.898417 318.474532,355.883848 C318.067599,356.86928 317.485953,357.629835 316.729594,358.165514 C315.973235,358.701193 315.076066,358.969032 314.038087,358.969032 Z M330.534513,368.408691 L330.534513,358.75703 L330.621202,358.75703 C331.008394,359.505093 331.5013,360.149633 332.099921,360.690653 C332.698543,361.231672 333.390147,361.648428 334.174735,361.94092 C334.959323,362.233412 335.804994,362.379658 336.711747,362.379658 C338.326509,362.379658 339.731748,361.97263 340.927465,361.158573 C342.123182,360.344517 343.053062,359.190571 343.717105,357.696735 C344.381149,356.2029 344.71317,354.43269 344.71317,352.386105 L344.71317,352.367794 C344.71317,350.318729 344.382531,348.5448 343.721254,347.046005 C343.059976,345.547211 342.125375,344.39193 340.917451,343.580162 C339.709527,342.768394 338.287122,342.362511 336.650235,342.362511 C335.737951,342.362511 334.896142,342.511808 334.12481,342.810404 C333.353479,343.108999 332.674033,343.531048 332.086475,344.07655 C331.498916,344.622051 331.011636,345.277225 330.624635,346.042072 L330.534513,346.042072 L330.534513,342.742168 L326.55626,342.742168 L326.55626,368.408691 L330.534513,368.408691 Z M335.607965,358.969032 C334.609849,358.969032 333.730132,358.69733 332.968814,358.153927 C332.207496,357.610523 331.607826,356.846106 331.169803,355.860674 C330.73178,354.875242 330.512769,353.718102 330.512769,352.389252 L330.512769,352.370941 C330.512769,351.030075 330.729301,349.866926 331.162364,348.881495 C331.595428,347.896063 332.19567,347.131645 332.963092,346.588242 C333.730514,346.044838 334.612138,345.773136 335.607965,345.773136 C336.643655,345.773136 337.53968,346.037399 338.296039,346.565926 C339.052398,347.094452 339.634616,347.851383 340.042693,348.83672 C340.450771,349.822056 340.654809,350.999081 340.654809,352.367794 L340.654809,352.386105 C340.654809,353.732502 340.451343,354.898417 340.04441,355.883848 C339.637477,356.86928 339.055831,357.629835 338.299472,358.165514 C337.543113,358.701193 336.645944,358.969032 335.607965,358.969032 Z M356.365884,362.379658 C357.53547,362.379658 358.594335,362.221682 359.542478,361.905729 C360.490621,361.589777 361.31822,361.155617 362.025274,360.603249 C362.732328,360.05088 363.304723,359.424507 363.74246,358.724129 C364.180196,358.02375 364.477266,357.294094 364.633668,356.53516 L364.673723,356.342041 L360.891164,356.342041 L360.843099,356.486809 C360.68231,356.971085 360.404504,357.413446 360.009683,357.813894 C359.614862,358.214342 359.117998,358.533823 358.51909,358.772337 C357.920183,359.010851 357.231344,359.130108 356.452573,359.130108 C355.385602,359.130108 354.462303,358.894693 353.682674,358.423864 C352.903045,357.953035 352.301706,357.275116 351.878656,356.390106 C351.497911,355.593597 351.288501,354.650704 351.250427,353.561427 L351.247,353.383 L364.884866,353.382885 L364.884866,352.036201 C364.884866,350.105202 364.53296,348.412764 363.829149,346.958887 C363.125337,345.505011 362.120927,344.375479 360.815919,343.570292 C359.510911,342.765104 357.958139,342.362511 356.157602,342.362511 C354.357065,342.362511 352.791894,342.781174 351.462091,343.6185 C350.132288,344.455826 349.101032,345.628893 348.368324,347.137701 C347.635616,348.646509 347.269262,350.404846 347.269262,352.412712 L347.269262,352.431023 C347.269262,354.456436 347.633661,356.214725 348.362459,357.705891 C349.091257,359.197056 350.135864,360.348808 351.49628,361.161148 C352.856697,361.973488 354.479898,362.379658 356.365884,362.379658 Z M360.961,350.571 L351.298,350.571 L351.328767,350.309468 C351.427568,349.572192 351.612819,348.917197 351.884521,348.344481 C352.311481,347.444498 352.897562,346.764099 353.642763,346.303284 C354.387964,345.842468 355.233587,345.612061 356.179632,345.612061 C357.125677,345.612061 357.961334,345.832502 358.686603,346.273386 C359.411872,346.71427 359.980501,347.382175 360.392488,348.277103 C360.654662,348.846603 360.833417,349.509524 360.928752,350.265867 L360.961,350.571 Z M375.487107,362.379658 C376.872223,362.379658 378.08277,362.054741 379.118746,361.404907 C380.154722,360.755074 380.958336,359.864628 381.529587,358.73357 L381.616276,358.73357 L381.616276,362 L385.594814,362 L385.594814,335.577881 L381.616276,335.577881 L381.616276,346.012032 L381.529587,346.012032 C380.953949,344.879829 380.137366,343.988525 379.079836,343.33812 C378.022307,342.687714 376.812046,342.362511 375.449055,342.362511 C373.841923,342.362511 372.436922,342.768394 371.234053,343.580162 C370.031183,344.39193 369.096583,345.544731 368.43025,347.038567 C367.763918,348.532402 367.430752,350.303757 367.430752,352.352631 L367.430752,352.370941 C367.430752,354.417717 367.761439,356.190502 368.422812,357.689297 C369.084185,359.188091 370.018786,360.344517 371.226614,361.158573 C372.434443,361.97263 373.854607,362.379658 375.487107,362.379658 Z M376.536244,358.969032 C375.500363,358.969032 374.603718,358.703672 373.84631,358.172953 C373.088902,357.642233 372.506684,356.881678 372.099655,355.891287 C371.692627,354.900896 371.489113,353.727448 371.489113,352.370941 L371.489113,352.352631 C371.489113,350.994026 371.693199,349.824535 372.101372,348.844158 C372.509545,347.863781 373.091763,347.10685 373.848026,346.573364 C374.60429,346.039879 375.500363,345.773136 376.536244,345.773136 C377.534359,345.773136 378.414076,346.044838 379.175394,346.588242 C379.936712,347.131645 380.536383,347.896063 380.974405,348.881495 C381.412428,349.866926 381.631439,351.025116 381.631439,352.356064 L381.631439,352.374374 C381.631439,353.703224 381.41548,354.862844 380.983561,355.853235 C380.551642,356.843626 379.951971,357.610523 379.18455,358.153927 C378.417128,358.69733 377.534359,358.969032 376.536244,358.969032 Z M198.038783,407 L202.044787,392.575581 L202.131476,392.575581 L206.162372,407 L210.30313,407 L215.572848,387.742168 L211.641231,387.742168 L208.138194,402.89386 L208.051505,402.89386 L204.029193,387.742168 L200.204291,387.742168 L196.203437,402.89386 L196.116748,402.89386 L192.613711,387.742168 L188.633456,387.742168 L193.924918,407 L198.038783,407 Z M220.504885,384.778149 C221.156054,384.778149 221.704083,384.553701 222.148972,384.104807 C222.593861,383.655912 222.816306,383.118755 222.816306,382.493336 C222.816306,381.855709 222.593861,381.315548 222.148972,380.872852 C221.704083,380.430157 221.156054,380.208809 220.504885,380.208809 C219.863826,380.208809 219.318324,380.430157 218.86838,380.872852 C218.418437,381.315548 218.193465,381.855709 218.193465,382.493336 C218.193465,383.118755 218.418437,383.655912 218.86838,384.104807 C219.318324,384.553701 219.863826,384.778149 220.504885,384.778149 Z M222.494155,407 L222.494155,387.742168 L218.515616,387.742168 L218.515616,407 L222.494155,407 Z M233.701148,407.379658 C234.105697,407.379658 234.486022,407.362158 234.842124,407.327158 C235.198226,407.292158 235.492911,407.257969 235.72618,407.22459 L235.72618,404.156143 C235.58084,404.170448 235.418525,404.186756 235.239234,404.205067 C235.059943,404.223377 234.864821,404.232533 234.653869,404.232533 C233.815017,404.232533 233.182015,404.053051 232.754865,403.694088 C232.327714,403.335125 232.114139,402.666981 232.114139,401.689655 L232.114139,390.889294 L235.72618,390.889294 L235.72618,387.742168 L232.114139,387.742168 L232.114139,382.72794 L228.04605,382.72794 L228.04605,387.742168 L225.28316,387.742168 L225.28316,390.889294 L228.04605,390.889294 L228.04605,401.915962 C228.04605,403.837807 228.512445,405.228884 229.445233,406.089193 C230.378022,406.949503 231.79666,407.379658 233.701148,407.379658 Z M243.456749,407 L243.456749,395.841724 C243.456749,394.838268 243.645004,393.957788 244.021515,393.200285 C244.398026,392.442781 244.926981,391.848881 245.608381,391.418583 C246.289782,390.988285 247.083,390.773136 247.988037,390.773136 C249.376587,390.773136 250.453428,391.220648 251.218561,392.115671 C251.983694,393.010695 252.366261,394.253857 252.366261,395.845158 L252.366261,407 L256.344513,407 L256.344513,395.094425 C256.344513,393.540699 256.061033,392.185671 255.494074,391.029341 C254.927115,389.873011 254.132847,388.97279 253.111271,388.328678 C252.089695,387.684566 250.889114,387.362511 249.509529,387.362511 C248.073486,387.362511 246.847729,387.672216 245.832256,388.291628 C244.816784,388.911039 244.053845,389.784748 243.543438,390.912754 L243.456749,390.912754 L243.456749,380.577881 L239.478497,380.577881 L239.478497,407 L243.456749,407 Z M280.265763,407.446033 C282.216408,407.446033 283.973839,407.078535 285.538056,406.343538 C287.102273,405.608541 288.388779,404.57905 289.397576,403.255064 C290.406373,401.931078 291.045334,400.392086 291.314461,398.638088 L291.344216,398.45155 L287.25982,398.45155 L287.211468,398.623211 C286.886838,399.740345 286.401227,400.683624 285.754635,401.453049 C285.108044,402.222473 284.324696,402.80636 283.404591,403.20471 C282.484486,403.60306 281.439354,403.802235 280.269196,403.802235 C278.648903,403.802235 277.233794,403.390772 276.023867,402.567846 C274.813941,401.744921 273.878768,400.581724 273.218348,399.078257 C272.557929,397.574789 272.227719,395.807487 272.227719,393.776352 L272.227719,393.758041 C272.227719,391.719276 272.557929,389.954836 273.218348,388.46472 C273.878768,386.974604 274.810889,385.820562 276.014712,385.002596 C277.218535,384.184629 278.635552,383.775646 280.265763,383.775646 C281.459382,383.775646 282.518199,383.97649 283.442214,384.378178 C284.366229,384.779865 285.141232,385.350496 285.767224,386.090071 C286.393216,386.829645 286.852505,387.718613 287.145093,388.756973 L287.252953,389.126331 L291.337636,389.126331 L291.307595,388.946373 C291.038468,387.200195 290.398696,385.667068 289.388278,384.346992 C288.37786,383.026917 287.091162,381.994373 285.528185,381.249363 C283.965209,380.504353 282.211068,380.131847 280.265763,380.131847 C277.769616,380.131847 275.60425,380.685837 273.769667,381.793816 C271.935084,382.901794 270.516684,384.474499 269.514468,386.511929 C268.512251,388.549358 268.011143,390.965874 268.011143,393.761475 L268.011143,393.779785 C268.011143,396.575386 268.511679,398.994953 269.512751,401.038486 C270.513823,403.08202 271.934178,404.660828 273.773816,405.77491 C275.613453,406.888992 277.777436,407.446033 280.265763,407.446033 Z M295.417906,380.577881 L295.417906,407 L299.532,407 L306.028296,407 C307.910276,407 309.522177,406.700069 310.863997,406.100208 C312.205816,405.500347 313.238789,404.644663 313.962914,403.533155 C314.687038,402.421648 315.049101,401.093037 315.049101,399.547321 L315.049101,399.5107 C315.049101,398.343212 314.794899,397.298653 314.286495,396.377022 C313.778091,395.455391 313.058878,394.704992 312.128855,394.125826 C311.198832,393.546659 310.106874,393.194992 308.852983,393.070824 L308.852983,392.984135 C309.788538,392.849857 310.625959,392.503387 311.365248,391.944725 C312.104536,391.386063 312.687279,390.692837 313.113476,389.865047 C313.539673,389.037258 313.752771,388.155491 313.752771,387.219746 L313.752771,387.183125 C313.752771,385.851414 313.430906,384.690601 312.787176,383.700687 C312.143446,382.710773 311.239983,381.942827 310.076786,381.396849 C308.913589,380.85087 307.547213,380.577881 305.977655,380.577881 L299.532915,380.577881 L297.475267,380.577881 L295.417906,380.577881 Z M299.532,383.928997 L304.9783,383.928997 C306.465651,383.928997 307.615782,384.253151 308.428694,384.901459 C309.241606,385.549767 309.648062,386.47998 309.648062,387.692101 L309.648062,387.728722 C309.648062,389.051849 309.172035,390.067751 308.219982,390.776426 C307.267929,391.485102 305.888105,391.839439 304.080511,391.839439 L299.532,391.84 L299.532,383.928997 Z M299.532,395.014 L304.910208,395.013458 C306.213308,395.013458 307.304312,395.173151 308.183218,395.492537 C309.062124,395.811922 309.723402,396.289904 310.167051,396.926481 C310.610701,397.563059 310.832525,398.354847 310.832525,399.301846 L310.832525,399.338467 C310.832525,400.744755 310.351492,401.81473 309.389425,402.548391 C308.427359,403.282053 307.029177,403.648884 305.19488,403.648884 L299.532,403.649 L299.532,395.014 Z M329.599906,407 L329.599906,384.12841 L337.679435,384.12841 L337.679435,380.577881 L317.405368,380.577881 L317.405368,384.12841 L325.484897,384.12841 L325.484897,407 L329.599906,407 Z M351.09259,407.446033 C353.043235,407.446033 354.800666,407.078535 356.364883,406.343538 C357.9291,405.608541 359.215606,404.57905 360.224403,403.255064 C361.2332,401.931078 361.872161,400.392086 362.141288,398.638088 L362.171043,398.45155 L358.086647,398.45155 L358.038295,398.623211 C357.713665,399.740345 357.228054,400.683624 356.581462,401.453049 C355.934871,402.222473 355.151523,402.80636 354.231418,403.20471 C353.311313,403.60306 352.266181,403.802235 351.096023,403.802235 C349.47573,403.802235 348.060621,403.390772 346.850694,402.567846 C345.640768,401.744921 344.705595,400.581724 344.045175,399.078257 C343.384756,397.574789 343.054546,395.807487 343.054546,393.776352 L343.054546,393.758041 C343.054546,391.719276 343.384756,389.954836 344.045175,388.46472 C344.705595,386.974604 345.637716,385.820562 346.841539,385.002596 C348.045362,384.184629 349.462379,383.775646 351.09259,383.775646 C352.286209,383.775646 353.345026,383.97649 354.269041,384.378178 C355.193056,384.779865 355.968059,385.350496 356.594051,386.090071 C357.220043,386.829645 357.679332,387.718613 357.97192,388.756973 L358.07978,389.126331 L362.164463,389.126331 L362.134422,388.946373 C361.865295,387.200195 361.225523,385.667068 360.215105,384.346992 C359.204687,383.026917 357.917989,381.994373 356.355012,381.249363 C354.792036,380.504353 353.037895,380.131847 351.09259,380.131847 C348.596443,380.131847 346.431077,380.685837 344.596494,381.793816 C342.761911,382.901794 341.343511,384.474499 340.341295,386.511929 C339.339078,388.549358 338.83797,390.965874 338.83797,393.761475 L338.83797,393.779785 C338.83797,396.575386 339.338506,398.994953 340.339578,401.038486 C341.34065,403.08202 342.761005,404.660828 344.600643,405.77491 C346.44028,406.888992 348.604263,407.446033 351.09259,407.446033 Z" id="NotequippedwithCBTC" fill="#FFFFFF" fill-rule="nonzero"></path>
        <g id="Group" transform="translate(522.000000, 108.000000)">
            <path d="M28.5,1.11260682 C36.0628198,1.11260682 42.9096681,4.17804522 47.8658114,9.13418856 C52.8219548,14.0903319 55.8873932,20.9371802 55.8873932,28.5 L55.8873932,28.5 L55.8873932,138.5 C55.8873932,146.06282 52.8219548,152.909668 47.8658114,157.865811 C42.9096681,162.821955 36.0628198,165.887393 28.5,165.887393 C20.9371802,165.887393 14.0903319,162.821955 9.13418856,157.865811 C4.17804522,152.909668 1.11260682,146.06282 1.11260682,138.5 L1.11260682,138.5 L1.11260682,28.5 C1.11260682,20.9371802 4.17804522,14.0903319 9.13418856,9.13418856 C14.0903319,4.17804522 20.9371802,1.11260682 28.5,1.11260682 Z" id="Combined-Shape" stroke="#4A4A4A" stroke-width="2.22521364" fill="#000000"></path>
            <ellipse id="Oval" fill="#2F2F2F" cx="28.5" cy="66.8" rx="10.9615385" ry="11.1333333"></ellipse>
            <ellipse id="Oval" fill="#2F2F2F" cx="28.5" cy="33.4" rx="10.9615385" ry="11.1333333"></ellipse>
            <ellipse id="Oval" fill="#2F2F2F" cx="28.5" cy="100.2" rx="10.9615385" ry="11.1333333"></ellipse>
            <ellipse id="Oval" fill="#FF0000" cx="28.5" cy="133.6" rx="10.9615385" ry="11.1333333"></ellipse>
        </g>
        <rect id="Rectangle" fill="#FFFFFF" x="680" y="323" width="288" height="96"></rect>
        <rect id="Rectangle" fill="#888888" x="680" y="323" width="288" height="96"></rect>
        <path d="M719.187292,335.577881 L715.385565,335.577881 L715.385565,362 L719.470534,362 L719.470534,342.450344 L719.574,342.451 L733.167395,362 L736.955962,362 L736.955962,335.577881 L732.870707,335.577881 L732.870707,355.087482 L732.768,355.088 L719.187292,335.577881 Z M749.997514,362.379658 C751.838297,362.379658 753.442472,361.975681 754.810041,361.167728 C756.17761,360.359776 757.241291,359.208881 758.001083,357.715046 C758.760875,356.22121 759.140772,354.440987 759.140772,352.374374 L759.140772,352.337753 C759.140772,350.275528 758.759207,348.500025 757.996076,347.011244 C757.232946,345.522463 756.165069,344.375479 754.792446,343.570292 C753.419822,342.765104 751.816553,342.362511 749.982637,342.362511 C748.160928,342.362511 746.56381,342.765629 745.191282,343.571865 C743.818754,344.378101 742.750877,345.52623 741.987652,347.016251 C741.224426,348.506271 740.842813,350.280106 740.842813,352.337753 L740.842813,352.374374 C740.842813,354.42878 741.222185,356.205427 741.980928,357.704317 C742.739671,359.203207 743.805307,360.357153 745.177835,361.166155 C746.550363,361.975157 748.156923,362.379658 749.997514,362.379658 Z M750.015825,359.056293 C748.982424,359.056293 748.08287,358.794224 747.317165,358.270084 C746.55146,357.745945 745.957369,356.985056 745.534891,355.987417 C745.112413,354.989779 744.901174,353.785431 744.901174,352.374374 L744.901174,352.337753 C744.901174,350.929176 745.112985,349.73098 745.536608,348.743164 C745.96023,347.755348 746.554893,346.998846 747.320598,346.473658 C748.086303,345.948469 748.97365,345.685875 749.982637,345.685875 C751.011652,345.685875 751.909012,345.94599 752.674717,346.466219 C753.440422,346.986448 754.03313,347.74295 754.452842,348.735725 C754.872555,349.7285 755.082411,350.929176 755.082411,352.337753 L755.082411,352.374374 C755.082411,353.785431 754.873699,354.989779 754.456276,355.987417 C754.038852,356.985056 753.452247,357.745945 752.69646,358.270084 C751.940674,358.794224 751.047128,359.056293 750.015825,359.056293 Z M769.326675,362.379658 C769.731224,362.379658 770.111549,362.362158 770.467651,362.327158 C770.823753,362.292158 771.118438,362.257969 771.351707,362.22459 L771.351707,359.156143 C771.206367,359.170448 771.044052,359.186756 770.864761,359.205067 C770.68547,359.223377 770.490348,359.232533 770.279396,359.232533 C769.440544,359.232533 768.807542,359.053051 768.380392,358.694088 C767.953241,358.335125 767.739666,357.666981 767.739666,356.689655 L767.739666,345.889294 L771.351707,345.889294 L771.351707,342.742168 L767.739666,342.742168 L767.739666,337.72794 L763.671577,337.72794 L763.671577,342.742168 L760.908687,342.742168 L760.908687,345.889294 L763.671577,345.889294 L763.671577,356.915962 C763.671577,358.837807 764.137971,360.228884 765.07076,361.089193 C766.003549,361.949503 767.422187,362.379658 769.326675,362.379658 Z M791.148345,362.379658 C792.317931,362.379658 793.376796,362.221682 794.324939,361.905729 C795.273082,361.589777 796.100681,361.155617 796.807735,360.603249 C797.514789,360.05088 798.087184,359.424507 798.524921,358.724129 C798.962657,358.02375 799.259727,357.294094 799.416129,356.53516 L799.456184,356.342041 L795.673625,356.342041 L795.62556,356.486809 C795.46477,356.971085 795.186965,357.413446 794.792144,357.813894 C794.397323,358.214342 793.900459,358.533823 793.301551,358.772337 C792.702644,359.010851 792.013805,359.130108 791.235034,359.130108 C790.168063,359.130108 789.244764,358.894693 788.465135,358.423864 C787.685506,357.953035 787.084167,357.275116 786.661117,356.390106 C786.280372,355.593597 786.070962,354.650704 786.032888,353.561427 L786.029,353.383 L799.667327,353.382885 L799.667327,352.036201 C799.667327,350.105202 799.315421,348.412764 798.61161,346.958887 C797.907798,345.505011 796.903388,344.375479 795.59838,343.570292 C794.293372,342.765104 792.7406,342.362511 790.940063,342.362511 C789.139526,342.362511 787.574355,342.781174 786.244552,343.6185 C784.914748,344.455826 783.883493,345.628893 783.150785,347.137701 C782.418077,348.646509 782.051723,350.404846 782.051723,352.412712 L782.051723,352.431023 C782.051723,354.456436 782.416122,356.214725 783.14492,357.705891 C783.873717,359.197056 784.918325,360.348808 786.278741,361.161148 C787.639157,361.973488 789.262359,362.379658 791.148345,362.379658 Z M795.743,350.571 L786.081,350.571 L786.111228,350.309468 C786.210029,349.572192 786.39528,348.917197 786.666982,348.344481 C787.093942,347.444498 787.680022,346.764099 788.425224,346.303284 C789.170425,345.842468 790.016048,345.612061 790.962093,345.612061 C791.908138,345.612061 792.743795,345.832502 793.469064,346.273386 C794.194333,346.71427 794.762962,347.382175 795.174949,348.277103 C795.437123,348.846603 795.615877,349.509524 795.711213,350.265867 L795.743,350.571 Z M820.370409,368.408691 L820.370409,342.742168 L816.392156,342.742168 L816.392156,346.042072 L816.302034,346.042072 C815.924951,345.307171 815.442631,344.666969 814.855072,344.121468 C814.267513,343.575966 813.593075,343.151438 812.831756,342.847883 C812.070438,342.544329 811.233637,342.392551 810.321352,342.392551 C808.694384,342.392551 807.274458,342.798435 806.061575,343.610203 C804.848692,344.42197 803.904077,345.569765 803.227732,347.053587 C802.551386,348.537409 802.213213,350.298798 802.213213,352.337753 L802.213213,352.356064 C802.213213,354.392921 802.545282,356.160748 803.209421,357.659542 C803.87356,359.158337 804.809019,360.314714 806.015798,361.128675 C807.222578,361.942636 808.632204,362.349617 810.244676,362.349617 C811.171457,362.349617 812.024662,362.205898 812.804291,361.918461 C813.583919,361.631023 814.271089,361.224234 814.865801,360.698092 C815.460512,360.171949 815.940401,359.54982 816.305467,358.831703 L816.392156,358.831703 L816.392156,368.408691 L820.370409,368.408691 Z M811.363336,358.938992 C810.327646,358.938992 809.42609,358.673632 808.658668,358.142912 C807.891247,357.612192 807.301542,356.854164 806.889555,355.868828 C806.477568,354.883492 806.271574,353.71257 806.271574,352.356064 L806.271574,352.337753 C806.271574,350.999176 806.47814,349.842131 806.891271,348.866617 C807.304403,347.891104 807.894108,347.136652 808.660385,346.603262 C809.426662,346.069872 810.327646,345.803177 811.363336,345.803177 C812.361452,345.803177 813.238689,346.072399 813.995048,346.610844 C814.751408,347.149288 815.341112,347.906219 815.764162,348.881638 C816.187212,349.857056 816.398737,351.010239 816.398737,352.341187 L816.398737,352.359497 C816.398737,353.688156 816.187784,354.847681 815.765879,355.838072 C815.343973,356.828463 814.756796,357.59288 814.004347,358.131325 C813.251898,358.669769 812.371561,358.938992 811.363336,358.938992 Z M831.182344,362.379658 C832.648332,362.379658 833.872135,362.077438 834.853752,361.473 C835.835369,360.868561 836.580332,360.077106 837.08864,359.098637 L837.175329,359.098637 L837.175329,362 L841.153581,362 L841.153581,342.742168 L837.175329,342.742168 L837.175329,353.975117 C837.175329,354.966557 836.987074,355.839073 836.610563,356.592667 C836.234052,357.34626 835.703142,357.930719 835.017832,358.346045 C834.332521,358.76137 833.526285,358.969032 832.599123,358.969032 C831.2306,358.969032 830.206116,358.578836 829.525669,357.798445 C828.845222,357.018053 828.504999,355.902016 828.504999,354.450333 L828.504999,342.742168 L824.526747,342.742168 L824.526747,355.215942 C824.526747,356.687653 824.787815,357.959854 825.309952,359.032547 C825.832088,360.10524 826.589496,360.931265 827.582176,361.510622 C828.574856,362.089979 829.774912,362.379658 831.182344,362.379658 Z M847.569886,339.778149 C848.221055,339.778149 848.769084,339.553701 849.213973,339.104807 C849.658862,338.655912 849.881306,338.118755 849.881306,337.493336 C849.881306,336.855709 849.658862,336.315548 849.213973,335.872852 C848.769084,335.430157 848.221055,335.208809 847.569886,335.208809 C846.928826,335.208809 846.383324,335.430157 845.933381,335.872852 C845.483437,336.315548 845.258465,336.855709 845.258465,337.493336 C845.258465,338.118755 845.483437,338.655912 845.933381,339.104807 C846.383324,339.553701 846.928826,339.778149 847.569886,339.778149 Z M849.559155,362 L849.559155,342.742168 L845.580617,342.742168 L845.580617,362 L849.559155,362 Z M857.964635,368.408691 L857.964635,358.75703 L858.051324,358.75703 C858.438516,359.505093 858.931422,360.149633 859.530044,360.690653 C860.128665,361.231672 860.82027,361.648428 861.604857,361.94092 C862.389445,362.233412 863.235116,362.379658 864.14187,362.379658 C865.756631,362.379658 867.16187,361.97263 868.357587,361.158573 C869.553304,360.344517 870.483184,359.190571 871.147227,357.696735 C871.811271,356.2029 872.143292,354.43269 872.143292,352.386105 L872.143292,352.367794 C872.143292,350.318729 871.812654,348.5448 871.151376,347.046005 C870.490098,345.547211 869.555497,344.39193 868.347573,343.580162 C867.139649,342.768394 865.717244,342.362511 864.080358,342.362511 C863.168073,342.362511 862.326264,342.511808 861.554933,342.810404 C860.783601,343.108999 860.104156,343.531048 859.516597,344.07655 C858.929038,344.622051 858.441758,345.277225 858.054757,346.042072 L857.964635,346.042072 L857.964635,342.742168 L853.986382,342.742168 L853.986382,368.408691 L857.964635,368.408691 Z M863.038087,358.969032 C862.039971,358.969032 861.160254,358.69733 860.398936,358.153927 C859.637618,357.610523 859.037948,356.846106 858.599925,355.860674 C858.161902,354.875242 857.942891,353.718102 857.942891,352.389252 L857.942891,352.370941 C857.942891,351.030075 858.159423,349.866926 858.592486,348.881495 C859.02555,347.896063 859.625793,347.131645 860.393214,346.588242 C861.160636,346.044838 862.04226,345.773136 863.038087,345.773136 C864.073777,345.773136 864.969802,346.037399 865.726161,346.565926 C866.48252,347.094452 867.064738,347.851383 867.472816,348.83672 C867.880893,349.822056 868.084931,350.999081 868.084931,352.367794 L868.084931,352.386105 C868.084931,353.732502 867.881465,354.898417 867.474532,355.883848 C867.067599,356.86928 866.485953,357.629835 865.729594,358.165514 C864.973235,358.701193 864.076066,358.969032 863.038087,358.969032 Z M879.534513,368.408691 L879.534513,358.75703 L879.621202,358.75703 C880.008394,359.505093 880.5013,360.149633 881.099921,360.690653 C881.698543,361.231672 882.390147,361.648428 883.174735,361.94092 C883.959323,362.233412 884.804994,362.379658 885.711747,362.379658 C887.326509,362.379658 888.731748,361.97263 889.927465,361.158573 C891.123182,360.344517 892.053062,359.190571 892.717105,357.696735 C893.381149,356.2029 893.71317,354.43269 893.71317,352.386105 L893.71317,352.367794 C893.71317,350.318729 893.382531,348.5448 892.721254,347.046005 C892.059976,345.547211 891.125375,344.39193 889.917451,343.580162 C888.709527,342.768394 887.287122,342.362511 885.650235,342.362511 C884.737951,342.362511 883.896142,342.511808 883.12481,342.810404 C882.353479,343.108999 881.674033,343.531048 881.086475,344.07655 C880.498916,344.622051 880.011636,345.277225 879.624635,346.042072 L879.534513,346.042072 L879.534513,342.742168 L875.55626,342.742168 L875.55626,368.408691 L879.534513,368.408691 Z M884.607965,358.969032 C883.609849,358.969032 882.730132,358.69733 881.968814,358.153927 C881.207496,357.610523 880.607826,356.846106 880.169803,355.860674 C879.73178,354.875242 879.512769,353.718102 879.512769,352.389252 L879.512769,352.370941 C879.512769,351.030075 879.729301,349.866926 880.162364,348.881495 C880.595428,347.896063 881.19567,347.131645 881.963092,346.588242 C882.730514,346.044838 883.612138,345.773136 884.607965,345.773136 C885.643655,345.773136 886.53968,346.037399 887.296039,346.565926 C888.052398,347.094452 888.634616,347.851383 889.042693,348.83672 C889.450771,349.822056 889.654809,350.999081 889.654809,352.367794 L889.654809,352.386105 C889.654809,353.732502 889.451343,354.898417 889.04441,355.883848 C888.637477,356.86928 888.055831,357.629835 887.299472,358.165514 C886.543113,358.701193 885.645944,358.969032 884.607965,358.969032 Z M905.365884,362.379658 C906.53547,362.379658 907.594335,362.221682 908.542478,361.905729 C909.490621,361.589777 910.31822,361.155617 911.025274,360.603249 C911.732328,360.05088 912.304723,359.424507 912.74246,358.724129 C913.180196,358.02375 913.477266,357.294094 913.633668,356.53516 L913.673723,356.342041 L909.891164,356.342041 L909.843099,356.486809 C909.68231,356.971085 909.404504,357.413446 909.009683,357.813894 C908.614862,358.214342 908.117998,358.533823 907.51909,358.772337 C906.920183,359.010851 906.231344,359.130108 905.452573,359.130108 C904.385602,359.130108 903.462303,358.894693 902.682674,358.423864 C901.903045,357.953035 901.301706,357.275116 900.878656,356.390106 C900.497911,355.593597 900.288501,354.650704 900.250427,353.561427 L900.247,353.383 L913.884866,353.382885 L913.884866,352.036201 C913.884866,350.105202 913.53296,348.412764 912.829149,346.958887 C912.125337,345.505011 911.120927,344.375479 909.815919,343.570292 C908.510911,342.765104 906.958139,342.362511 905.157602,342.362511 C903.357065,342.362511 901.791894,342.781174 900.462091,343.6185 C899.132288,344.455826 898.101032,345.628893 897.368324,347.137701 C896.635616,348.646509 896.269262,350.404846 896.269262,352.412712 L896.269262,352.431023 C896.269262,354.456436 896.633661,356.214725 897.362459,357.705891 C898.091257,359.197056 899.135864,360.348808 900.49628,361.161148 C901.856697,361.973488 903.479898,362.379658 905.365884,362.379658 Z M909.961,350.571 L900.298,350.571 L900.328767,350.309468 C900.427568,349.572192 900.612819,348.917197 900.884521,348.344481 C901.311481,347.444498 901.897562,346.764099 902.642763,346.303284 C903.387964,345.842468 904.233587,345.612061 905.179632,345.612061 C906.125677,345.612061 906.961334,345.832502 907.686603,346.273386 C908.411872,346.71427 908.980501,347.382175 909.392488,348.277103 C909.654662,348.846603 909.833417,349.509524 909.928752,350.265867 L909.961,350.571 Z M924.487107,362.379658 C925.872223,362.379658 927.08277,362.054741 928.118746,361.404907 C929.154722,360.755074 929.958336,359.864628 930.529587,358.73357 L930.616276,358.73357 L930.616276,362 L934.594814,362 L934.594814,335.577881 L930.616276,335.577881 L930.616276,346.012032 L930.529587,346.012032 C929.953949,344.879829 929.137366,343.988525 928.079836,343.33812 C927.022307,342.687714 925.812046,342.362511 924.449055,342.362511 C922.841923,342.362511 921.436922,342.768394 920.234053,343.580162 C919.031183,344.39193 918.096583,345.544731 917.43025,347.038567 C916.763918,348.532402 916.430752,350.303757 916.430752,352.352631 L916.430752,352.370941 C916.430752,354.417717 916.761439,356.190502 917.422812,357.689297 C918.084185,359.188091 919.018786,360.344517 920.226614,361.158573 C921.434443,361.97263 922.854607,362.379658 924.487107,362.379658 Z M925.536244,358.969032 C924.500363,358.969032 923.603718,358.703672 922.84631,358.172953 C922.088902,357.642233 921.506684,356.881678 921.099655,355.891287 C920.692627,354.900896 920.489113,353.727448 920.489113,352.370941 L920.489113,352.352631 C920.489113,350.994026 920.693199,349.824535 921.101372,348.844158 C921.509545,347.863781 922.091763,347.10685 922.848026,346.573364 C923.60429,346.039879 924.500363,345.773136 925.536244,345.773136 C926.534359,345.773136 927.414076,346.044838 928.175394,346.588242 C928.936712,347.131645 929.536383,347.896063 929.974405,348.881495 C930.412428,349.866926 930.631439,351.025116 930.631439,352.356064 L930.631439,352.374374 C930.631439,353.703224 930.41548,354.862844 929.983561,355.853235 C929.551642,356.843626 928.951971,357.610523 928.18455,358.153927 C927.417128,358.69733 926.534359,358.969032 925.536244,358.969032 Z M747.038783,407 L751.044787,392.575581 L751.131476,392.575581 L755.162372,407 L759.30313,407 L764.572848,387.742168 L760.641231,387.742168 L757.138194,402.89386 L757.051505,402.89386 L753.029193,387.742168 L749.204291,387.742168 L745.203437,402.89386 L745.116748,402.89386 L741.613711,387.742168 L737.633456,387.742168 L742.924918,407 L747.038783,407 Z M769.504885,384.778149 C770.156054,384.778149 770.704083,384.553701 771.148972,384.104807 C771.593861,383.655912 771.816306,383.118755 771.816306,382.493336 C771.816306,381.855709 771.593861,381.315548 771.148972,380.872852 C770.704083,380.430157 770.156054,380.208809 769.504885,380.208809 C768.863826,380.208809 768.318324,380.430157 767.86838,380.872852 C767.418437,381.315548 767.193465,381.855709 767.193465,382.493336 C767.193465,383.118755 767.418437,383.655912 767.86838,384.104807 C768.318324,384.553701 768.863826,384.778149 769.504885,384.778149 Z M771.494155,407 L771.494155,387.742168 L767.515616,387.742168 L767.515616,407 L771.494155,407 Z M782.701148,407.379658 C783.105697,407.379658 783.486022,407.362158 783.842124,407.327158 C784.198226,407.292158 784.492911,407.257969 784.72618,407.22459 L784.72618,404.156143 C784.58084,404.170448 784.418525,404.186756 784.239234,404.205067 C784.059943,404.223377 783.864821,404.232533 783.653869,404.232533 C782.815017,404.232533 782.182015,404.053051 781.754865,403.694088 C781.327714,403.335125 781.114139,402.666981 781.114139,401.689655 L781.114139,390.889294 L784.72618,390.889294 L784.72618,387.742168 L781.114139,387.742168 L781.114139,382.72794 L777.04605,382.72794 L777.04605,387.742168 L774.28316,387.742168 L774.28316,390.889294 L777.04605,390.889294 L777.04605,401.915962 C777.04605,403.837807 777.512445,405.228884 778.445233,406.089193 C779.378022,406.949503 780.79666,407.379658 782.701148,407.379658 Z M792.456749,407 L792.456749,395.841724 C792.456749,394.838268 792.645004,393.957788 793.021515,393.200285 C793.398026,392.442781 793.926981,391.848881 794.608381,391.418583 C795.289782,390.988285 796.083,390.773136 796.988037,390.773136 C798.376587,390.773136 799.453428,391.220648 800.218561,392.115671 C800.983694,393.010695 801.366261,394.253857 801.366261,395.845158 L801.366261,407 L805.344513,407 L805.344513,395.094425 C805.344513,393.540699 805.061033,392.185671 804.494074,391.029341 C803.927115,389.873011 803.132847,388.97279 802.111271,388.328678 C801.089695,387.684566 799.889114,387.362511 798.509529,387.362511 C797.073486,387.362511 795.847729,387.672216 794.832256,388.291628 C793.816784,388.911039 793.053845,389.784748 792.543438,390.912754 L792.456749,390.912754 L792.456749,380.577881 L788.478497,380.577881 L788.478497,407 L792.456749,407 Z M829.265763,407.446033 C831.216408,407.446033 832.973839,407.078535 834.538056,406.343538 C836.102273,405.608541 837.388779,404.57905 838.397576,403.255064 C839.406373,401.931078 840.045334,400.392086 840.314461,398.638088 L840.344216,398.45155 L836.25982,398.45155 L836.211468,398.623211 C835.886838,399.740345 835.401227,400.683624 834.754635,401.453049 C834.108044,402.222473 833.324696,402.80636 832.404591,403.20471 C831.484486,403.60306 830.439354,403.802235 829.269196,403.802235 C827.648903,403.802235 826.233794,403.390772 825.023867,402.567846 C823.813941,401.744921 822.878768,400.581724 822.218348,399.078257 C821.557929,397.574789 821.227719,395.807487 821.227719,393.776352 L821.227719,393.758041 C821.227719,391.719276 821.557929,389.954836 822.218348,388.46472 C822.878768,386.974604 823.810889,385.820562 825.014712,385.002596 C826.218535,384.184629 827.635552,383.775646 829.265763,383.775646 C830.459382,383.775646 831.518199,383.97649 832.442214,384.378178 C833.366229,384.779865 834.141232,385.350496 834.767224,386.090071 C835.393216,386.829645 835.852505,387.718613 836.145093,388.756973 L836.252953,389.126331 L840.337636,389.126331 L840.307595,388.946373 C840.038468,387.200195 839.398696,385.667068 838.388278,384.346992 C837.37786,383.026917 836.091162,381.994373 834.528185,381.249363 C832.965209,380.504353 831.211068,380.131847 829.265763,380.131847 C826.769616,380.131847 824.60425,380.685837 822.769667,381.793816 C820.935084,382.901794 819.516684,384.474499 818.514468,386.511929 C817.512251,388.549358 817.011143,390.965874 817.011143,393.761475 L817.011143,393.779785 C817.011143,396.575386 817.511679,398.994953 818.512751,401.038486 C819.513823,403.08202 820.934178,404.660828 822.773816,405.77491 C824.613453,406.888992 826.777436,407.446033 829.265763,407.446033 Z M844.417906,380.577881 L844.417906,407 L848.532,407 L855.028296,407 C856.910276,407 858.522177,406.700069 859.863997,406.100208 C861.205816,405.500347 862.238789,404.644663 862.962914,403.533155 C863.687038,402.421648 864.049101,401.093037 864.049101,399.547321 L864.049101,399.5107 C864.049101,398.343212 863.794899,397.298653 863.286495,396.377022 C862.778091,395.455391 862.058878,394.704992 861.128855,394.125826 C860.198832,393.546659 859.106874,393.194992 857.852983,393.070824 L857.852983,392.984135 C858.788538,392.849857 859.625959,392.503387 860.365248,391.944725 C861.104536,391.386063 861.687279,390.692837 862.113476,389.865047 C862.539673,389.037258 862.752771,388.155491 862.752771,387.219746 L862.752771,387.183125 C862.752771,385.851414 862.430906,384.690601 861.787176,383.700687 C861.143446,382.710773 860.239983,381.942827 859.076786,381.396849 C857.913589,380.85087 856.547213,380.577881 854.977655,380.577881 L848.532915,380.577881 L846.475267,380.577881 L844.417906,380.577881 Z M848.532,383.928997 L853.9783,383.928997 C855.465651,383.928997 856.615782,384.253151 857.428694,384.901459 C858.241606,385.549767 858.648062,386.47998 858.648062,387.692101 L858.648062,387.728722 C858.648062,389.051849 858.172035,390.067751 857.219982,390.776426 C856.267929,391.485102 854.888105,391.839439 853.080511,391.839439 L848.532,391.84 L848.532,383.928997 Z M848.532,395.014 L853.910208,395.013458 C855.213308,395.013458 856.304312,395.173151 857.183218,395.492537 C858.062124,395.811922 858.723402,396.289904 859.167051,396.926481 C859.610701,397.563059 859.832525,398.354847 859.832525,399.301846 L859.832525,399.338467 C859.832525,400.744755 859.351492,401.81473 858.389425,402.548391 C857.427359,403.282053 856.029177,403.648884 854.19488,403.648884 L848.532,403.649 L848.532,395.014 Z M878.599906,407 L878.599906,384.12841 L886.679435,384.12841 L886.679435,380.577881 L866.405368,380.577881 L866.405368,384.12841 L874.484897,384.12841 L874.484897,407 L878.599906,407 Z M900.09259,407.446033 C902.043235,407.446033 903.800666,407.078535 905.364883,406.343538 C906.9291,405.608541 908.215606,404.57905 909.224403,403.255064 C910.2332,401.931078 910.872161,400.392086 911.141288,398.638088 L911.171043,398.45155 L907.086647,398.45155 L907.038295,398.623211 C906.713665,399.740345 906.228054,400.683624 905.581462,401.453049 C904.934871,402.222473 904.151523,402.80636 903.231418,403.20471 C902.311313,403.60306 901.266181,403.802235 900.096023,403.802235 C898.47573,403.802235 897.060621,403.390772 895.850694,402.567846 C894.640768,401.744921 893.705595,400.581724 893.045175,399.078257 C892.384756,397.574789 892.054546,395.807487 892.054546,393.776352 L892.054546,393.758041 C892.054546,391.719276 892.384756,389.954836 893.045175,388.46472 C893.705595,386.974604 894.637716,385.820562 895.841539,385.002596 C897.045362,384.184629 898.462379,383.775646 900.09259,383.775646 C901.286209,383.775646 902.345026,383.97649 903.269041,384.378178 C904.193056,384.779865 904.968059,385.350496 905.594051,386.090071 C906.220043,386.829645 906.679332,387.718613 906.97192,388.756973 L907.07978,389.126331 L911.164463,389.126331 L911.134422,388.946373 C910.865295,387.200195 910.225523,385.667068 909.215105,384.346992 C908.204687,383.026917 906.917989,381.994373 905.355012,381.249363 C903.792036,380.504353 902.037895,380.131847 900.09259,380.131847 C897.596443,380.131847 895.431077,380.685837 893.596494,381.793816 C891.761911,382.901794 890.343511,384.474499 889.341295,386.511929 C888.339078,388.549358 887.83797,390.965874 887.83797,393.761475 L887.83797,393.779785 C887.83797,396.575386 888.338506,398.994953 889.339578,401.038486 C890.34065,403.08202 891.761005,404.660828 893.600643,405.77491 C895.44028,406.888992 897.604263,407.446033 900.09259,407.446033 Z" id="NotequippedwithCBTC" fill="#FFFFFF" fill-rule="nonzero"></path>
    </g>
</svg>