<?xml version="1.0" encoding="UTF-8"?>
<svg width="1100px" height="550px" viewBox="0 0 1100 550" version="1.1" xmlns="http://www.w3.org/2000/svg" xmlns:xlink="http://www.w3.org/1999/xlink">
    <title>Artboard</title>
    <g id="Artboard" stroke="none" stroke-width="1" fill="none" fill-rule="evenodd">
        <circle id="Oval" stroke="#979797" fill="#67C500" cx="550" cy="275" r="140.5"></circle>
        <path d="M434,231.534824 L434,263.691144 L439.023013,263.691144 L446.953879,263.691144 C449.251528,263.691144 451.219444,263.326122 452.857628,262.596077 C454.495812,261.866032 455.756934,260.824645 456.640995,259.471915 C457.525055,258.119186 457.967086,256.502235 457.967086,254.621065 L457.967086,254.576496 C457.967086,253.155636 457.656739,251.884384 457.036045,250.762738 C456.415352,249.641092 455.537287,248.72784 454.401852,248.022982 C453.266417,247.318123 451.933283,246.890136 450.402448,246.73902 L450.402448,246.633517 C451.544636,246.470099 452.567016,246.048437 453.469589,245.368532 C454.372162,244.688627 455.083614,243.844956 455.603944,242.837517 C456.124274,241.830079 456.384439,240.756948 456.384439,239.618125 L456.384439,239.573556 C456.384439,237.952834 455.991485,236.540099 455.205575,235.335351 C454.419666,234.130603 453.316657,233.195995 451.896549,232.531527 C450.47644,231.867059 448.808275,231.534824 446.892054,231.534824 L439.023881,231.534824 L436.511766,231.534824 L434,231.534824 Z M439.023013,235.61443 L445.671973,235.613209 C447.487831,235.613209 448.891989,236.007712 449.884447,236.796717 C450.876904,237.585722 451.373133,238.717814 451.373133,240.192992 L451.373133,240.23756 C451.373133,241.847837 450.791968,243.084212 449.629637,243.946686 C448.467307,244.80916 446.782725,245.240397 444.575892,245.240397 L439.023013,245.241079 L439.023013,235.61443 Z M439.023013,249.103605 L445.588842,249.10325 C447.179755,249.10325 448.511725,249.2976 449.584753,249.686299 C450.657781,250.074999 451.465114,250.656713 452.006751,251.431443 C452.548387,252.206172 452.819206,253.169796 452.819206,254.322315 L452.819206,254.366884 C452.819206,256.078368 452.231928,257.380552 451.057372,258.273435 C449.882816,259.166318 448.175822,259.61276 445.936388,259.61276 L439.023013,259.614118 L439.023013,249.103605 Z M472.216404,231.534824 L460.482606,263.691144 L465.760772,263.691144 L468.714507,255.003123 L481.135306,255.003123 L484.083982,263.691144 L489.362148,263.691144 L477.646513,231.534824 L474.984551,231.534824 L472.216404,231.534824 Z M474.983661,236.872527 L479.777091,250.997597 L470.075774,250.997597 L474.878715,236.87123 L474.983661,236.872527 Z M504.047488,274.008799 C504.956581,274.008799 505.794884,273.841666 506.562397,273.507401 C507.32991,273.173136 507.94094,272.697736 508.395487,272.081203 C508.850033,271.464669 509.077307,270.710715 509.077307,269.819341 L509.077307,269.774772 C509.077307,268.497136 508.708453,267.520339 507.970746,266.84438 C507.23304,266.168421 506.260608,265.785873 505.053452,265.696736 L506.065418,264.156655 L506.116001,264.152848 C507.894601,264.006607 509.474103,263.641004 510.854509,263.05604 C512.69505,262.276088 514.110851,261.169298 515.101911,259.735672 C516.092972,258.302045 516.588502,256.60472 516.588502,254.643697 L516.588502,254.621413 C516.588502,252.140422 515.832167,250.183113 514.319495,248.749486 C512.806824,247.31586 510.381334,246.249925 507.043024,245.551682 L503.533329,244.794014 C501.521401,244.363183 500.038536,243.768934 499.084734,243.011266 C498.130931,242.253598 497.65403,241.273086 497.65403,240.069731 L497.65403,240.047447 C497.65403,239.096648 497.922287,238.272127 498.458801,237.573884 C498.995315,236.875641 499.755376,236.329674 500.738985,235.935984 C501.722594,235.542294 502.877589,235.345449 504.203971,235.345449 C505.485643,235.345449 506.610833,235.534866 507.579538,235.9137 C508.548244,236.292534 509.334386,236.8385 509.937964,237.551599 C510.541543,238.264699 510.910396,239.12636 511.044524,240.136584 L511.089234,240.426281 L515.984924,240.426281 L515.962569,240.069731 C515.843344,238.257271 515.284475,236.671368 514.285963,235.312022 C513.287451,233.952677 511.931263,232.89417 510.217399,232.136502 C508.503535,231.378834 506.528865,231 504.29339,231 C502.013206,231 499.993827,231.389976 498.235253,232.169928 C496.47668,232.949881 495.098137,234.034386 494.099625,235.423444 C493.101112,236.812502 492.594405,238.420689 492.579502,240.248006 L492.579502,240.27029 C492.579502,242.647288 493.354466,244.574884 494.904395,246.05308 C496.454325,247.531275 498.809025,248.604638 501.968496,249.273168 L505.478192,250.008552 C507.624248,250.469095 509.163,251.081915 510.094448,251.847011 C511.025895,252.612107 511.491619,253.640901 511.491619,254.933394 L511.491619,254.955678 C511.491619,255.951046 511.204733,256.820136 510.630962,257.562947 C510.05719,258.305759 509.248693,258.877724 508.205471,259.278842 C507.16225,259.679961 505.917835,259.88052 504.472228,259.88052 C503.041524,259.88052 501.774755,259.687389 500.671921,259.301127 C499.569087,258.914865 498.678622,258.36147 498.000528,257.640943 C497.322434,256.920415 496.908871,256.069896 496.75984,255.089384 L496.71513,254.799688 L491.81944,254.799688 L491.841795,255.133953 C491.975923,257.020695 492.57205,258.643738 493.630175,260.003084 C494.6883,261.362429 496.122729,262.40608 497.933464,263.134035 C499.250362,263.663457 500.726884,264.000363 502.36303,264.14475 L502.947628,264.187081 L501.566111,266.276129 L501.566111,268.237152 L502.527365,268.237152 C503.376845,268.237152 504.017682,268.36343 504.449873,268.615986 C504.882065,268.868542 505.098161,269.254804 505.098161,269.774772 L505.098161,269.819341 C505.098161,270.279884 504.882065,270.610435 504.449873,270.810995 C504.017682,271.011554 503.503522,271.111833 502.907396,271.111833 C502.430494,271.111833 501.983399,271.074693 501.566111,271.000412 C501.148822,270.92613 500.806049,270.844421 500.537792,270.755284 L500.537792,273.45169 C500.895468,273.615109 501.387273,273.748815 502.013206,273.852809 C502.639139,273.956802 503.317233,274.008799 504.047488,274.008799 Z M541.714831,263.691144 L541.714831,259.370069 L526.688947,259.370069 L526.688947,231.534824 L521.665066,231.534824 L521.665066,263.691144 L541.714831,263.691144 Z M555.936578,231.534824 L544.202779,263.691144 L549.480945,263.691144 L552.433961,255.003123 L564.856286,255.003123 L567.804155,263.691144 L573.082321,263.691144 L561.366686,231.534824 L558.704724,231.534824 L555.936578,231.534824 Z M558.704641,236.872527 L563.496545,250.997597 L553.795228,250.997597 L558.598889,236.87123 L558.704641,236.872527 Z M585.820495,263.691144 L585.820495,235.8559 L595.684528,235.8559 L595.684528,231.534824 L570.932581,231.534824 L570.932581,235.8559 L580.796614,235.8559 L580.796614,263.691144 L585.820495,263.691144 Z M604.934744,263.691144 L604.934744,239.984076 L605.097601,239.985063 L614.808907,263.691144 L618.514206,263.691144 L628.223881,239.985063 L628.38802,239.984076 L628.38802,263.691144 L632.971791,263.691144 L632.971791,231.534824 L627.166193,231.534824 L616.730717,257.174016 L616.592397,257.174016 L606.15692,231.534824 L600.351322,231.534824 L600.351322,263.691144 L604.934744,263.691144 Z M648.854257,231.534824 L637.120458,263.691144 L642.398624,263.691144 L645.352651,255.003123 L657.77345,255.003123 L660.721834,263.691144 L666,263.691144 L654.284365,231.534824 L651.622403,231.534824 L648.854257,231.534824 Z M651.621805,236.872527 L656.413709,250.997597 L646.713918,250.997597 L651.516568,236.87123 L651.621805,236.872527 Z M484.176752,318.457167 L484.176752,305.288508 L495.544491,286.300847 L489.965933,286.300847 L481.735893,300.483793 L481.593731,300.483793 L473.36369,286.300847 L467.785132,286.300847 L479.152871,305.288508 L479.152871,318.457167 L484.176752,318.457167 Z M520.186629,318.457167 L520.186629,314.136092 L504.717143,314.136092 L504.717143,304.173942 L519.359503,304.173942 L519.359503,299.987618 L504.717143,299.987618 L504.717143,290.621923 L520.186629,290.621923 L520.186629,286.300847 L499.693262,286.300847 L499.693262,318.457167 L520.186629,318.457167 Z M538.94765,318.457167 L538.94765,290.621923 L548.811684,290.621923 L548.811684,286.300847 L524.059737,286.300847 L524.059737,290.621923 L533.92377,290.621923 L533.92377,318.457167 L538.94765,318.457167 Z M558.502358,286.300847 L553.478478,286.300847 L553.478478,318.457167 L558.502358,318.457167 L558.501672,307.723027 L561.79954,303.938086 L572.433209,318.457167 L578.65272,318.457167 L565.393468,300.512167 L577.59506,286.300847 L571.645204,286.300847 L558.64452,301.685755 L558.501672,301.686594 L558.502358,286.300847 Z M584.948338,282.891342 C585.708399,282.891342 586.349235,282.631358 586.870846,282.111389 C587.392457,281.591421 587.653262,280.967459 587.653262,280.239504 C587.653262,279.511548 587.392457,278.8913 586.870846,278.37876 C586.349235,277.86622 585.708399,277.60995 584.948338,277.60995 C584.218082,277.60995 583.59215,277.86622 583.070539,278.37876 C582.548928,278.8913 582.288122,279.511548 582.288122,280.239504 C582.288122,280.967459 582.548928,281.591421 583.070539,282.111389 C583.59215,282.631358 584.218082,282.891342 584.948338,282.891342 Z M587.474424,318.457167 L587.474424,286.300847 L582.46696,286.300847 L582.46696,318.457167 L587.474424,318.457167 Z M605.02061,319 C607.572545,319 609.768375,318.609618 611.608101,317.828853 C613.447827,317.048088 614.861997,315.938339 615.850613,314.499606 C616.839228,313.060872 617.333536,311.362154 617.333536,309.403453 L617.333536,309.381168 C617.333536,306.899945 616.578074,304.94519 615.067149,303.516902 C613.556224,302.088614 611.132771,301.02001 607.796791,300.311089 L604.281506,299.567697 C602.270277,299.137098 600.790032,298.539947 599.84077,297.776244 C598.891508,297.012541 598.416878,296.030172 598.416878,294.829139 L598.416878,294.806854 C598.416878,293.867662 598.684552,293.046506 599.219902,292.343389 C599.755252,291.640271 600.51508,291.091693 601.499388,290.697655 C602.483695,290.303616 603.639273,290.106597 604.966121,290.106597 C606.2443,290.106597 607.368441,290.298277 608.338544,290.681638 C609.308647,291.064998 610.092984,291.610907 610.691556,292.319363 C611.290128,293.02782 611.661717,293.885419 611.806324,294.892161 L611.847192,295.187777 L616.731704,295.187777 L616.70935,294.82496 C616.59548,293.025731 616.038242,291.444645 615.037634,290.081701 C614.037026,288.718758 612.680896,287.657407 610.969244,286.89765 C609.257592,286.137893 607.28007,285.758015 605.036678,285.758015 C602.768136,285.758015 600.754055,286.149384 598.994433,286.932121 C597.234812,287.714859 595.85493,288.799596 594.854788,290.186333 C593.854646,291.57307 593.34852,293.185784 593.336412,295.024475 L593.336412,295.046759 C593.336412,297.421203 594.110503,299.345608 595.658686,300.819973 C597.206869,302.294338 599.558716,303.368456 602.714229,304.042325 L606.229513,304.785369 C608.370679,305.24568 609.909838,305.856991 610.846991,306.619302 C611.784144,307.381612 612.252721,308.408549 612.252721,309.700113 L612.252721,309.722398 C612.252721,310.71823 611.966068,311.587958 611.392762,312.331582 C610.819455,313.075206 610.008106,313.647751 608.958714,314.049218 C607.909321,314.450684 606.664383,314.651418 605.223899,314.651418 C603.794126,314.651418 602.527124,314.456023 601.422893,314.065235 C600.318661,313.674446 599.429361,313.121109 598.754993,312.405225 C598.080625,311.68934 597.664268,310.84149 597.505922,309.861675 L597.461212,309.570237 L592.576699,309.570237 L592.599054,309.902413 C592.730388,311.781495 593.323488,313.402507 594.378352,314.765451 C595.433217,316.128394 596.868287,317.174888 598.683563,317.904933 C600.498838,318.634978 602.611187,319 605.02061,319 Z M624.907195,282.891342 C625.667257,282.891342 626.308093,282.631358 626.829704,282.111389 C627.351315,281.591421 627.61212,280.967459 627.61212,280.239504 C627.61212,279.511548 627.351315,278.8913 626.829704,278.37876 C626.308093,277.86622 625.667257,277.60995 624.907195,277.60995 C624.17694,277.60995 623.551007,277.86622 623.029396,278.37876 C622.507786,278.8913 622.24698,279.511548 622.24698,280.239504 C622.24698,280.967459 622.507786,281.591421 623.029396,282.111389 C623.551007,282.631358 624.17694,282.891342 624.907195,282.891342 Z M627.433282,318.457167 L627.433282,286.300847 L622.425818,286.300847 L622.425818,318.457167 L627.433282,318.457167 Z" id="BAŞLATMAYETKİSİ" fill="#000000" fill-rule="nonzero"></path>
    </g>
</svg>