<?xml version="1.0" encoding="UTF-8"?>
<svg width="1100px" height="550px" viewBox="0 0 1100 550" version="1.1" xmlns="http://www.w3.org/2000/svg" xmlns:xlink="http://www.w3.org/1999/xlink">
    <title>Artboard</title>
    <g id="Artboard" stroke="none" stroke-width="1" fill="none" fill-rule="evenodd">
        <path d="M97.0037175,156.275093 C109.835612,156.275093 121.452713,161.476246 129.861839,169.885373 C138.270966,178.294499 143.472119,189.9116 143.472119,202.743494 L143.472119,202.743494 L143.472119,329.137546 C143.472119,340.010655 139.737983,350.011727 133.481468,357.927644 C126.802385,366.378205 117.249958,372.45393 106.29791,374.676677 L106.29791,374.676677 L106.297402,602.371747 L87.710033,602.371747 L87.7095249,374.676677 C76.7574772,372.45393 67.2050499,366.378205 60.525967,357.927644 C54.269452,350.011727 50.535316,340.010655 50.535316,329.137546 L50.535316,329.137546 L50.535316,202.743494 C50.535316,189.9116 55.736469,178.294499 64.1455957,169.885373 C72.5547224,161.476246 84.1718227,156.275093 97.0037175,156.275093 Z" id="Combined-Shape" stroke="#4A4A4A" stroke-width="3.71747212" fill="#000000"></path>
        <circle id="Oval" fill="#2F2F2F" cx="97.0037175" cy="210.178439" r="18.5873606"></circle>
        <circle id="Oval" fill="#2F2F2F" cx="97.0037175" cy="265.94052" r="18.5873606"></circle>
        <circle id="Oval" fill="#2F2F2F" cx="97.0037175" cy="321.702602" r="18.5873606"></circle>
        <path d="M220.420074,100.513011 C233.251969,100.513011 244.869069,105.714164 253.278196,114.123291 C261.687323,122.532418 266.888476,134.149518 266.888476,146.981413 L266.888476,146.981413 L266.888476,329.137546 C266.888476,340.010655 263.15434,350.011727 256.897825,357.927644 C250.218742,366.378205 240.666315,372.45393 229.714267,374.676677 L229.714267,374.676677 L229.713759,602.371747 L211.12639,602.371747 L211.125882,374.676677 C200.173834,372.45393 190.621407,366.378205 183.942324,357.927644 C177.685809,350.011727 173.951673,340.010655 173.951673,329.137546 L173.951673,329.137546 L173.951673,146.981413 C173.951673,134.149518 179.152826,122.532418 187.561953,114.123291 C195.971079,105.714164 207.58818,100.513011 220.420074,100.513011 Z" id="Combined-Shape" stroke="#4A4A4A" stroke-width="3.71747212" fill="#000000"></path>
        <circle id="Oval" fill="#2F2F2F" cx="220.420074" cy="210.178439" r="18.5873606"></circle>
        <circle id="Oval" fill="#2F2F2F" cx="220.420074" cy="154.416357" r="18.5873606"></circle>
        <circle id="Oval" fill="#2F2F2F" cx="220.420074" cy="265.94052" r="18.5873606"></circle>
        <circle id="Oval" fill="#2F2F2F" cx="220.420074" cy="321.702602" r="18.5873606"></circle>
        <path d="M343.836431,100.513011 C356.668326,100.513011 368.285426,105.714164 376.694553,114.123291 C385.10368,122.532418 390.304833,134.149518 390.304833,146.981413 L390.304833,146.981413 L390.304833,329.137546 C390.304833,340.010655 386.570697,350.011727 380.314182,357.927644 C373.635099,366.378205 364.082672,372.45393 353.130624,374.676677 L353.130624,374.676677 L353.130116,602.371747 L334.542747,602.371747 L334.542239,374.676677 C323.590191,372.45393 314.037764,366.378205 307.358681,357.927644 C301.102166,350.011727 297.36803,340.010655 297.36803,329.137546 L297.36803,329.137546 L297.36803,146.981413 C297.36803,134.149518 302.569183,122.532418 310.978309,114.123291 C319.387436,105.714164 331.004536,100.513011 343.836431,100.513011 Z" id="Combined-Shape" stroke="#4A4A4A" stroke-width="3.71747212" fill="#000000"></path>
        <circle id="Oval" fill="#2F2F2F" cx="343.836431" cy="321.702602" r="18.5873606"></circle>
        <circle id="Oval" fill="#2F2F2F" cx="343.836431" cy="265.94052" r="18.5873606"></circle>
        <circle id="Oval" fill="#2F2F2F" cx="343.836431" cy="210.178439" r="18.5873606"></circle>
        <circle id="Oval" fill="#2F2F2F" cx="343.836431" cy="154.416357" r="18.5873606"></circle>
        <path d="M467.252788,47.4684015 C480.084683,47.4684015 491.701783,52.6695545 500.11091,61.0786812 C508.520037,69.4878079 513.72119,81.1049082 513.72119,93.936803 L513.72119,93.936803 L513.72119,328.137546 C513.72119,339.010655 509.987054,349.011727 503.730539,356.927644 C497.051456,365.378205 487.499028,371.45393 476.546981,373.676677 L476.546981,373.676677 L476.546473,601.371747 L457.959104,601.371747 L457.958596,373.676677 C447.006548,371.45393 437.454121,365.378205 430.775038,356.927644 C424.518523,349.011727 420.784387,339.010655 420.784387,328.137546 L420.784387,328.137546 L420.784387,93.936803 C420.784387,81.1049082 425.98554,69.4878079 434.394666,61.0786812 C442.803793,52.6695545 454.420893,47.4684015 467.252788,47.4684015 Z" id="Combined-Shape" stroke="#4A4A4A" stroke-width="3.71747212" fill="#000000"></path>
        <circle id="Oval" fill="#2F2F2F" cx="467.252788" cy="320.702602" r="18.5873606"></circle>
        <circle id="Oval" fill="#2F2F2F" cx="467.252788" cy="264.94052" r="18.5873606"></circle>
        <circle id="Oval" fill="#2F2F2F" cx="467.252788" cy="209.178439" r="18.5873606"></circle>
        <circle id="Oval" fill="#2F2F2F" cx="467.252788" cy="153.416357" r="18.5873606"></circle>
        <circle id="Oval" fill="#2F2F2F" cx="467.252788" cy="97.6542751" r="18.5873606"></circle>
        <path d="M590.327138,289.275093 C603.159032,289.275093 614.776133,294.476246 623.185259,302.885373 C631.594386,311.294499 636.795539,322.9116 636.795539,335.743494 L636.795539,335.743494 L636.795539,462.137546 C636.795539,473.010655 633.061403,483.011727 626.804888,490.927644 C620.125806,499.378203 610.573381,505.453928 599.621336,507.676676 L599.621336,507.676676 L599.62083,587.371747 L581.033445,587.371747 L581.032939,507.676676 C570.080894,505.453928 560.528469,499.378203 553.849387,490.927644 C547.592872,483.011727 543.858736,473.010655 543.858736,462.137546 L543.858736,462.137546 L543.858736,335.743494 C543.858736,322.9116 549.059889,311.294499 557.469016,302.885373 C565.878142,294.476246 577.495243,289.275093 590.327138,289.275093 Z" id="Combined-Shape" stroke="#4A4A4A" stroke-width="3.71747212" fill="#000000"></path>
        <circle id="Oval" fill="#2F2F2F" cx="590.327138" cy="455.178439" r="18.5873606"></circle>
        <circle id="Oval" fill="#2F2F2F" cx="590.327138" cy="398.94052" r="18.5873606"></circle>
        <circle id="Oval" fill="#2F2F2F" cx="590.327138" cy="342.702602" r="18.5873606"></circle>
        <path d="M835.82342,344.858736 C844.452139,344.858736 852.511873,347.16375 859.422637,351.198169 C866.331466,355.231458 872.091962,360.991954 876.125251,367.900783 C880.15967,374.811547 882.464684,382.871281 882.464684,391.5 L882.464684,391.5 L882.464684,461.5 C882.464684,470.128719 880.15967,478.188453 876.125251,485.099217 C872.091962,492.008046 866.331466,497.768542 859.422637,501.801831 C854.878822,504.454454 849.838232,506.359831 844.465645,507.353453 L844.465645,507.353453 L844.464706,588.141264 L826.182155,588.141264 L826.182105,507.157403 C821.183188,506.119812 816.48526,504.289384 812.224203,501.801831 C805.315375,497.768542 799.554878,492.008046 795.521589,485.099217 C791.48717,478.188453 789.182156,470.128719 789.182156,461.5 L789.182156,461.5 L789.182156,391.5 C789.182156,382.871281 791.48717,374.811547 795.521589,367.900783 C799.554878,360.991954 805.315375,355.231458 812.224203,351.198169 C819.134967,347.16375 827.194702,344.858736 835.82342,344.858736 Z" id="Combined-Shape" stroke="#4A4A4A" stroke-width="3.71747212" fill="#000000"></path>
        <circle id="Oval" fill="#2F2F2F" cx="835.327138" cy="456.178439" r="18.5873606"></circle>
        <circle id="Oval" fill="#2F2F2F" cx="835.327138" cy="399.702602" r="18.5873606"></circle>
        <path d="M713.82342,230.858736 C722.452139,230.858736 730.511873,233.16375 737.422637,237.198169 C744.331466,241.231458 750.091962,246.991954 754.125251,253.900783 C758.15967,260.811547 760.464684,268.871281 760.464684,277.5 L760.464684,277.5 L760.464684,468.5 C760.464684,477.128719 758.15967,485.188453 754.125251,492.099217 C750.091962,499.008046 744.331466,504.768542 737.422637,508.801831 C732.878823,511.454454 727.838233,513.35983 722.465647,514.353453 L722.465647,514.353453 L722.464708,587.141264 L704.182155,587.141264 L704.182105,514.157403 C699.183188,513.119812 694.48526,511.289384 690.224203,508.801831 C683.315375,504.768542 677.554878,499.008046 673.521589,492.099217 C669.48717,485.188453 667.182156,477.128719 667.182156,468.5 L667.182156,468.5 L667.182156,277.5 C667.182156,268.871281 669.48717,260.811547 673.521589,253.900783 C677.554878,246.991954 683.315375,241.231458 690.224203,237.198169 C697.134967,233.16375 705.194702,230.858736 713.82342,230.858736 Z" id="Combined-Shape" stroke="#4A4A4A" stroke-width="3.71747212" fill="#000000"></path>
        <circle id="Oval" fill="#2F2F2F" cx="713.327138" cy="455.178439" r="18.5873606"></circle>
        <circle id="Oval" fill="#2F2F2F" cx="713.327138" cy="398.94052" r="18.5873606"></circle>
        <circle id="Oval" fill="#2F2F2F" cx="713.327138" cy="342.702602" r="18.5873606"></circle>
        <circle id="Oval" fill="#2F2F2F" cx="712.910781" cy="286.587361" r="18.5873606"></circle>
        <path d="M1003.79554,183.858736 L1003.79554,282.672862 C1003.79554,291.308088 1001.51188,299.351894 997.504086,306.238255 C993.49918,313.11965 987.773925,318.844905 980.89253,322.849811 C976.548716,325.377869 971.744224,327.220324 966.621116,328.235805 L966.621116,328.235805 L966.62082,555.907063 L948.033455,555.907063 L948.033159,328.235805 C942.910051,327.220324 938.10556,325.377869 933.761745,322.849811 C926.88035,318.844905 921.155095,313.11965 917.150189,306.238255 C913.142394,299.351894 910.858736,291.308088 910.858736,282.672862 L910.858736,282.672862 L910.858736,183.858736 L1003.79554,183.858736 Z" id="Combined-Shape" stroke="#4A4A4A" stroke-width="3.71747212" fill="#000000"></path>
        <circle id="Oval" fill="#2F2F2F" cx="957.003717" cy="279.892193" r="18.5873606"></circle>
        <circle id="Oval" fill="#2F2F2F" cx="957.003717" cy="223.654275" r="18.5873606"></circle>
        <circle id="Oval" fill="#FFFFFF" cx="957" cy="364.951673" r="38"></circle>
        <polygon id="T" fill="#FF0000" fill-rule="nonzero" points="960.558725 395.951673 960.558725 350.146363 978 350.146363 978 343.951673 936 343.951673 936 350.146363 953.441275 350.146363 953.441275 395.951673"></polygon>
    </g>
</svg>