<?xml version="1.0" encoding="UTF-8"?>
<svg width="1100px" height="550px" viewBox="0 0 1100 550" version="1.1" xmlns="http://www.w3.org/2000/svg" xmlns:xlink="http://www.w3.org/1999/xlink">
    <title>Artboard</title>
    <g id="Artboard" stroke="none" stroke-width="1" fill="none" fill-rule="evenodd">
        <path d="M101.420074,100.513011 C114.251969,100.513011 125.869069,105.714164 134.278196,114.123291 C142.687323,122.532418 147.888476,134.149518 147.888476,146.981413 L147.888476,146.981413 L147.888476,329.137546 C147.888476,340.010655 144.15434,350.011727 137.897825,357.927644 C131.218742,366.378205 121.666315,372.45393 110.714267,374.676677 L110.714267,374.676677 L110.713759,602.371747 L92.1263899,602.371747 L92.1258818,374.676677 C81.173834,372.45393 71.6214068,366.378205 64.9423239,357.927644 C58.6858089,350.011727 54.9516729,340.010655 54.9516729,329.137546 L54.9516729,329.137546 L54.9516729,146.981413 C54.9516729,134.149518 60.1528259,122.532418 68.5619525,114.123291 C76.9710792,105.714164 88.5881796,100.513011 101.420074,100.513011 Z" id="Combined-Shape" stroke="#4A4A4A" stroke-width="3.71747212" fill="#000000"></path>
        <circle id="Oval" fill="#2F2F2F" cx="101.420074" cy="210.178439" r="18.5873606"></circle>
        <circle id="Oval" fill="#0046FF" cx="101.420074" cy="154.416357" r="18.5873606"></circle>
        <circle id="Oval" fill="#2F2F2F" cx="101.420074" cy="265.94052" r="18.5873606"></circle>
        <circle id="Oval" fill="#FF0000" cx="101.420074" cy="321.702602" r="18.5873606"></circle>
        <path d="M257.252788,48.4684015 C270.084683,48.4684015 281.701783,53.6695545 290.11091,62.0786812 C298.520037,70.4878079 303.72119,82.1049082 303.72119,94.936803 L303.72119,94.936803 L303.72119,329.137546 C303.72119,340.010655 299.987054,350.011727 293.730539,357.927644 C287.051456,366.378205 277.499028,372.45393 266.546981,374.676677 L266.546981,374.676677 L266.546473,602.371747 L247.959104,602.371747 L247.958596,374.676677 C237.006548,372.45393 227.454121,366.378205 220.775038,357.927644 C214.518523,350.011727 210.784387,340.010655 210.784387,329.137546 L210.784387,329.137546 L210.784387,94.936803 C210.784387,82.1049082 215.98554,70.4878079 224.394666,62.0786812 C232.803793,53.6695545 244.420893,48.4684015 257.252788,48.4684015 Z" id="Combined-Shape" stroke="#4A4A4A" stroke-width="3.71747212" fill="#000000"></path>
        <circle id="Oval" fill="#2F2F2F" cx="257.252788" cy="321.702602" r="18.5873606"></circle>
        <circle id="Oval" fill="#2F2F2F" cx="257.252788" cy="265.94052" r="18.5873606"></circle>
        <circle id="Oval" fill="#FF0000" cx="257.252788" cy="210.178439" r="18.5873606"></circle>
        <circle id="Oval" fill="#2F2F2F" cx="257.252788" cy="154.416357" r="18.5873606"></circle>
        <circle id="Oval" fill="#0046FF" cx="257.252788" cy="98.6542751" r="18.5873606"></circle>
        <path d="M413.5,245.858736 C422.128719,245.858736 430.188453,248.16375 437.099217,252.198169 C444.008046,256.231458 449.768542,261.991954 453.801831,268.900783 C457.83625,275.811547 460.141264,283.871281 460.141264,292.5 L460.141264,292.5 L460.141264,483.5 C460.141264,492.128719 457.83625,500.188453 453.801831,507.099217 C449.768542,514.008046 444.008046,519.768542 437.099217,523.801831 C432.555403,526.454454 427.514813,528.35983 422.142227,529.353453 L422.142227,529.353453 L422.141288,602.141264 L403.858735,602.141264 L403.858685,529.157403 C398.859767,528.119812 394.16184,526.289384 389.900783,523.801831 C382.991954,519.768542 377.231458,514.008046 373.198169,507.099217 C369.16375,500.188453 366.858736,492.128719 366.858736,483.5 L366.858736,483.5 L366.858736,292.5 C366.858736,283.871281 369.16375,275.811547 373.198169,268.900783 C377.231458,261.991954 382.991954,256.231458 389.900783,252.198169 C396.811547,248.16375 404.871281,245.858736 413.5,245.858736 Z" id="Combined-Shape" stroke="#4A4A4A" stroke-width="3.71747212" fill="#000000"></path>
        <circle id="Oval" fill="#2F2F2F" cx="413.003717" cy="470.178439" r="18.5873606"></circle>
        <circle id="Oval" fill="#2F2F2F" cx="413.003717" cy="413.94052" r="18.5873606"></circle>
        <circle id="Oval" fill="#FF0000" cx="413.003717" cy="357.702602" r="18.5873606"></circle>
        <circle id="Oval" fill="#0046FF" cx="412.587361" cy="301.587361" r="18.5873606"></circle>
    </g>
</svg>