<?xml version="1.0" encoding="UTF-8"?>
<svg width="1100px" height="550px" viewBox="0 0 1100 550" version="1.1" xmlns="http://www.w3.org/2000/svg" xmlns:xlink="http://www.w3.org/1999/xlink">
    <title>Artboard</title>
    <g id="Artboard" stroke="none" stroke-width="1" fill="none" fill-rule="evenodd">
        <rect fill="#1A242F" x="0" y="0" width="1100" height="550"></rect>
        <path d="M102.836431,101.513011 C115.668326,101.513011 127.285426,106.714164 135.694553,115.123291 C144.10368,123.532418 149.304833,135.149518 149.304833,147.981413 L149.304833,147.981413 L149.304833,330.137546 C149.304833,341.010655 145.570697,351.011727 139.314182,358.927644 C132.635099,367.378205 123.082672,373.45393 112.130624,375.676677 L112.130624,375.676677 L112.130116,603.371747 L93.5427468,603.371747 L93.5422387,375.676677 C82.5901909,373.45393 73.0377637,367.378205 66.3586808,358.927644 C60.1021658,351.011727 56.3680297,341.010655 56.3680297,330.137546 L56.3680297,330.137546 L56.3680297,147.981413 C56.3680297,135.149518 61.5691827,123.532418 69.9783094,115.123291 C78.3874361,106.714164 90.0045365,101.513011 102.836431,101.513011 Z" id="Combined-Shape" stroke="#4A4A4A" stroke-width="3.71747212" fill="#000000"></path>
        <circle id="Oval" fill="#FFD600" cx="102.836431" cy="322.702602" r="18.5873606"></circle>
        <circle id="Oval" fill="#2F2F2F" cx="102.836431" cy="266.94052" r="18.5873606"></circle>
        <circle id="Oval" fill="#00FF3C" cx="102.836431" cy="211.178439" r="18.5873606"></circle>
        <circle id="Oval" fill="#2F2F2F" cx="102.836431" cy="155.416357" r="18.5873606"></circle>
    </g>
</svg>