<?xml version="1.0" encoding="UTF-8"?>
<svg width="1100px" height="550px" viewBox="0 0 1100 550" version="1.1" xmlns="http://www.w3.org/2000/svg" xmlns:xlink="http://www.w3.org/1999/xlink">
    <title>Artboard</title>
    <g id="Artboard" stroke="none" stroke-width="1" fill="none" fill-rule="evenodd">
        <path d="M97.0037175,304.275093 C109.835612,304.275093 121.452713,309.476246 129.861839,317.885373 C138.270966,326.294499 143.472119,337.9116 143.472119,350.743494 L143.472119,350.743494 L143.472119,477.137546 C143.472119,488.010655 139.737983,498.011727 133.481468,505.927644 C126.802386,514.378203 117.249961,520.453928 106.297916,522.676676 L106.297916,522.676676 L106.29741,602.371747 L87.7100254,602.371747 L87.7095188,522.676676 C76.7574736,520.453928 67.2050487,514.378203 60.525967,505.927644 C54.269452,498.011727 50.535316,488.010655 50.535316,477.137546 L50.535316,477.137546 L50.535316,350.743494 C50.535316,337.9116 55.736469,326.294499 64.1455957,317.885373 C72.5547224,309.476246 84.1718227,304.275093 97.0037175,304.275093 Z" id="Combined-Shape" stroke="#4A4A4A" stroke-width="3.71747212" fill="#000000"></path>
        <circle id="Oval" fill="#2F2F2F" cx="97.0037175" cy="470.178439" r="18.5873606"></circle>
        <circle id="Oval" fill="#00FF3C" cx="97.0037175" cy="413.94052" r="18.5873606"></circle>
        <circle id="Oval" fill="#2F2F2F" cx="97.0037175" cy="357.702602" r="18.5873606"></circle>
    </g>
</svg>