<?xml version="1.0" encoding="UTF-8"?>
<svg width="1100px" height="550px" viewBox="0 0 1100 550" version="1.1" xmlns="http://www.w3.org/2000/svg" xmlns:xlink="http://www.w3.org/1999/xlink">
    <title>Artboard</title>
    <g id="Artboard" stroke="none" stroke-width="1" fill="none" fill-rule="evenodd">
        <rect fill="#1A242F" x="0" y="0" width="1100" height="550"></rect>
        <path d="M97.0037175,156.275093 C109.835612,156.275093 121.452713,161.476246 129.861839,169.885373 C138.270966,178.294499 143.472119,189.9116 143.472119,202.743494 L143.472119,202.743494 L143.472119,329.137546 C143.472119,340.010655 139.737983,350.011727 133.481468,357.927644 C126.802385,366.378205 117.249958,372.45393 106.29791,374.676677 L106.29791,374.676677 L106.297402,602.371747 L87.710033,602.371747 L87.7095249,374.676677 C76.7574772,372.45393 67.2050499,366.378205 60.525967,357.927644 C54.269452,350.011727 50.535316,340.010655 50.535316,329.137546 L50.535316,329.137546 L50.535316,202.743494 C50.535316,189.9116 55.736469,178.294499 64.1455957,169.885373 C72.5547224,161.476246 84.1718227,156.275093 97.0037175,156.275093 Z" id="Combined-Shape" stroke="#4A4A4A" stroke-width="3.71747212" fill="#000000"></path>
        <circle id="Oval" fill="#2F2F2F" cx="97.0037175" cy="210.178439" r="18.5873606"></circle>
        <circle id="Oval" fill="#00FF3C" cx="97.0037175" cy="265.94052" r="18.5873606"></circle>
        <circle id="Oval" fill="#2F2F2F" cx="97.0037175" cy="321.702602" r="18.5873606"></circle>
        <line x1="78.5" y1="291.5" x2="635.5" y2="291.5" id="Line" stroke="#FFFFFF" stroke-width="3" stroke-linecap="square"></line>
        <path d="M319.068542,257.862305 L311.379715,279 L314.838348,279 L316.774,273.289 L324.913,273.289 L326.845032,279 L330.303665,279 L322.62674,257.862305 L320.882431,257.862305 L319.068542,257.862305 Z M320.882,261.371 L324.023,270.656 L317.666,270.656 L320.81308,261.370148 L320.882,261.371 Z M337.221558,279.303726 C337.545197,279.303726 337.849457,279.289726 338.134339,279.261726 C338.41922,279.233727 338.654969,279.206375 338.841583,279.179672 L338.841583,276.724915 C338.725312,276.736359 338.595459,276.749405 338.452027,276.764053 C338.308594,276.778702 338.152497,276.786026 337.983734,276.786026 C337.312653,276.786026 336.806252,276.642441 336.464531,276.35527 C336.122811,276.0681 335.95195,275.533585 335.95195,274.751724 L335.95195,266.111435 L338.841583,266.111435 L338.841583,263.593735 L335.95195,263.593735 L335.95195,259.582352 L332.697479,259.582352 L332.697479,263.593735 L330.487168,263.593735 L330.487168,266.111435 L332.697479,266.111435 L332.697479,274.93277 C332.697479,276.470245 333.070595,277.583107 333.816826,278.271355 C334.563057,278.959602 335.697968,279.303726 337.221558,279.303726 Z M351.595856,279 L351.595856,257.862305 L348.413254,257.862305 L348.413254,279 L351.595856,279 Z M361.821509,279.303726 C362.757178,279.303726 363.60427,279.177345 364.362784,278.924583 C365.121299,278.671822 365.783378,278.324493 366.349021,277.882599 C366.914664,277.440704 367.372581,276.939606 367.72277,276.379303 C368.072959,275.819 368.310615,275.235275 368.435737,274.628128 L368.46778,274.473633 L365.441733,274.473633 L365.403281,274.589447 C365.27465,274.976868 365.052405,275.330757 364.736548,275.651115 C364.420691,275.971474 364.0232,276.227058 363.544074,276.41787 C363.064948,276.608681 362.513877,276.704086 361.890861,276.704086 C361.037284,276.704086 360.298644,276.515755 359.674941,276.139091 C359.051238,275.762428 358.570167,275.220093 358.231727,274.512085 C357.930891,273.882745 357.76376,273.139171 357.730334,272.281363 L357.727,272.107 L368.636695,272.106308 L368.636695,271.028961 C368.636695,269.484161 368.35517,268.130211 367.792121,266.96711 C367.229072,265.804008 366.425544,264.900383 365.381537,264.256233 C364.337531,263.612083 363.095313,263.290009 361.654883,263.290009 C360.214454,263.290009 358.962317,263.624939 357.898475,264.2948 C356.834632,264.964661 356.009627,265.903114 355.423461,267.110161 C354.837295,268.317207 354.544211,269.723877 354.544211,271.33017 L354.544211,271.344818 C354.544211,272.965149 354.835731,274.37178 355.418769,275.564713 C356.001807,276.757645 356.837493,277.679047 357.925826,278.328918 C359.014159,278.97879 360.31272,279.303726 361.821509,279.303726 Z M365.496,269.857 L357.768,269.857 L357.780995,269.732282 C357.856899,269.107808 358.008707,268.555575 358.236419,268.075584 C358.577987,267.355598 359.046851,266.811279 359.643012,266.442627 C360.239173,266.073975 360.915671,265.889648 361.672507,265.889648 C362.429343,265.889648 363.097869,266.066002 363.678084,266.418709 C364.2583,266.771416 364.713202,267.30574 365.042792,268.021683 C365.262519,268.498978 365.409003,269.058297 365.482245,269.699641 L365.496,269.857 Z M375.995135,279.276947 C376.680407,279.276947 377.324214,279.166206 377.926554,278.944725 C378.528895,278.723244 379.069285,278.409904 379.547724,278.004707 C380.026164,277.59951 380.412707,277.123093 380.707354,276.575455 L380.776706,276.575455 L380.776706,279 L383.959536,279 L383.959536,268.381714 C383.959536,267.351898 383.706851,266.455826 383.20148,265.693497 C382.696109,264.931168 381.983561,264.340004 381.063838,263.920006 C380.144114,263.500008 379.055896,263.290009 377.799182,263.290009 C376.538043,263.290009 375.449176,263.496689 374.53258,263.910049 C373.615985,264.32341 372.898555,264.883942 372.38029,265.591644 C371.862025,266.299347 371.562991,267.097305 371.483187,267.985519 L371.468539,268.152145 L374.461169,268.152145 L374.490466,268.017563 C374.622607,267.398361 374.965243,266.893829 375.518374,266.503967 C376.071505,266.114105 376.803241,265.919174 377.71358,265.919174 C378.695636,265.919174 379.45167,266.16156 379.981684,266.646332 C380.511698,267.131104 380.776706,267.795319 380.776706,268.638977 L380.776,269.797 L376.588855,270.044083 C374.767413,270.150742 373.355365,270.599426 372.35271,271.390137 C371.350055,272.180847 370.848727,273.249802 370.848727,274.597 L370.848727,274.62355 C370.848727,275.54335 371.064715,276.353935 371.496691,277.055305 C371.928668,277.756676 372.531352,278.302292 373.304744,278.692154 C374.078135,279.082016 374.974932,279.276947 375.995135,279.276947 Z M376.864428,276.73201 C376.012683,276.73201 375.331073,276.535934 374.819598,276.143784 C374.308123,275.751633 374.052386,275.218033 374.052386,274.542984 L374.052386,274.516434 C374.052386,273.860764 374.309001,273.335098 374.82223,272.939438 C375.335459,272.543777 376.064944,272.318405 377.010684,272.263321 L380.776,272.029 L380.776706,273.232635 C380.776706,273.895172 380.604396,274.491676 380.259776,275.022148 C379.915156,275.55262 379.448542,275.970215 378.859935,276.274933 C378.271327,276.579651 377.606158,276.73201 376.864428,276.73201 Z M393.201753,279.303726 C394.413301,279.303726 395.491372,279.104141 396.435967,278.704971 C397.380563,278.305801 398.122178,277.749657 398.660813,277.036537 C399.199449,276.323418 399.468766,275.497421 399.468766,274.558548 L399.468766,274.5439 C399.468766,273.434891 399.139253,272.549843 398.480226,271.888756 C397.821198,271.227669 396.701432,270.71608 395.120927,270.353989 L392.609864,269.776062 C391.789704,269.583496 391.204377,269.323105 390.853883,268.994888 C390.503388,268.666672 390.328141,268.265289 390.328141,267.790741 L390.328141,267.776093 C390.328141,267.366241 390.439721,267.008995 390.662881,266.704353 C390.886041,266.399712 391.206094,266.163544 391.62304,265.99585 C392.039987,265.828156 392.532807,265.744308 393.101502,265.744308 C393.993226,265.744308 394.697076,265.95549 395.213052,266.377853 C395.729028,266.800217 396.030503,267.34938 396.117478,268.025345 L396.132127,268.133377 L399.116975,268.133377 L399.105073,267.958969 C399.05716,267.084335 398.787881,266.294655 398.297235,265.589928 C397.806588,264.885201 397.121812,264.325699 396.242906,263.911423 C395.363999,263.497147 394.316865,263.290009 393.101502,263.290009 C391.921845,263.290009 390.883256,263.484901 389.985734,263.874687 C389.088212,264.264473 388.390542,264.807495 387.892724,265.503754 C387.394906,266.200012 387.145997,267.009949 387.145997,267.933563 L387.145997,267.948212 C387.145997,269.070648 387.509652,269.989075 388.236962,270.703491 C388.964272,271.417908 390.060884,271.941513 391.526795,272.274307 L394.037858,272.852234 C394.869309,273.051056 395.44571,273.302597 395.76706,273.606857 C396.08841,273.911118 396.249085,274.313416 396.249085,274.813751 L396.249085,274.8284 C396.249085,275.242523 396.127549,275.601486 395.884477,275.905289 C395.641404,276.209091 395.294953,276.442398 394.845124,276.605209 C394.395295,276.768021 393.851472,276.849426 393.213655,276.849426 C392.244721,276.849426 391.490518,276.651787 390.951043,276.256508 C390.411569,275.861229 390.067292,275.309586 389.918214,274.601578 L389.888917,274.460358 L386.743852,274.460358 L386.7585,274.592194 C386.869584,275.530914 387.188645,276.353706 387.715684,277.06057 C388.242723,277.767433 388.967668,278.318008 389.890519,278.712296 C390.813371,279.106583 391.917115,279.303726 393.201753,279.303726 Z M407.734226,279.303726 C408.057865,279.303726 408.362125,279.289726 408.647007,279.261726 C408.931888,279.233727 409.167636,279.206375 409.354251,279.179672 L409.354251,276.724915 C409.237979,276.736359 409.108127,276.749405 408.964694,276.764053 C408.821262,276.778702 408.665164,276.786026 408.496402,276.786026 C407.825321,276.786026 407.31892,276.642441 406.977199,276.35527 C406.635478,276.0681 406.464618,275.533585 406.464618,274.751724 L406.464618,266.111435 L409.354251,266.111435 L409.354251,263.593735 L406.464618,263.593735 L406.464618,259.582352 L403.210147,259.582352 L403.210147,263.593735 L400.999835,263.593735 L400.999835,266.111435 L403.210147,266.111435 L403.210147,274.93277 C403.210147,276.470245 403.583263,277.583107 404.329494,278.271355 C405.075725,278.959602 406.210636,279.303726 407.734226,279.303726 Z M433.345706,279 L433.345706,276.22641 L423.29,276.227 L423.29,276.098 L428.096759,271.376862 C429.365222,270.123962 430.354526,269.062408 431.06467,268.1922 C431.774814,267.321991 432.277095,266.524681 432.571513,265.80027 C432.865932,265.075859 433.013141,264.312653 433.013141,263.510651 L433.013141,263.481354 C433.013141,262.342133 432.715823,261.321472 432.121188,260.419373 C431.526553,259.517273 430.706584,258.806099 429.661281,258.285851 C428.615978,257.765602 427.41431,257.505478 426.056278,257.505478 C424.681461,257.505478 423.43703,257.78582 422.322986,258.346504 C421.208942,258.907188 420.327365,259.679207 419.678256,260.66256 C419.029147,261.645912 418.704593,262.7677 418.704593,264.027924 L418.704593,264.126572 L421.822879,264.126572 L421.825626,264.031815 C421.832797,263.316635 422.020442,262.672447 422.388561,262.099251 C422.756679,261.526054 423.26102,261.070236 423.901584,260.731796 C424.542148,260.393356 425.272357,260.224136 426.092212,260.224136 C426.811664,260.224136 427.446658,260.371193 427.997195,260.665306 C428.547733,260.959419 428.979823,261.364197 429.293468,261.879639 C429.607112,262.395081 429.763934,262.98819 429.763934,263.658966 L429.763934,263.688263 C429.763934,264.238342 429.672305,264.759201 429.489047,265.250839 C429.305789,265.742477 428.968951,266.297783 428.478534,266.916756 C427.988117,267.535728 427.272479,268.317322 426.331622,269.261536 L418.879459,276.740479 L418.879459,279 L433.345706,279 Z M451.260423,279.303726 C452.566423,279.303726 453.702554,278.978104 454.668817,278.326859 C455.63508,277.675613 456.382761,276.750473 456.911859,275.551437 C457.440958,274.352402 457.705507,272.934174 457.705507,271.296753 L457.705507,271.282104 C457.705507,269.643005 457.438974,268.225922 456.905908,267.030853 C456.372843,265.835785 455.627146,264.913544 454.668817,264.26413 C453.710489,263.614716 452.584505,263.290009 451.290865,263.290009 C450.202303,263.290009 449.23459,263.550171 448.387727,264.070496 C447.540865,264.59082 446.887102,265.303864 446.426439,266.209625 L446.357088,266.209625 L446.357088,257.862305 L443.174486,257.862305 L443.174486,279 L446.357088,279 L446.357088,276.386856 L446.426439,276.386856 C446.885271,277.291702 447.52862,278.004059 448.356485,278.523926 C449.184351,279.043793 450.15233,279.303726 451.260423,279.303726 Z M450.421343,276.575226 C449.62285,276.575226 448.917055,276.357864 448.303957,275.923141 C447.690859,275.488419 447.211122,274.874901 446.864748,274.082588 C446.518373,273.290276 446.345186,272.362579 446.345186,271.2995 L446.345186,271.284851 C446.345186,270.220093 446.520395,269.293541 446.870813,268.505196 C447.221231,267.71685 447.701387,267.105316 448.311281,266.670593 C448.921175,266.23587 449.624529,266.018509 450.421343,266.018509 C451.249895,266.018509 451.966715,266.231903 452.571802,266.658691 C453.176889,267.08548 453.642664,267.691025 453.969126,268.475327 C454.295587,269.259628 454.458818,270.195221 454.458818,271.282104 L454.458818,271.296753 C454.458818,272.381958 454.296007,273.320717 453.970384,274.113029 C453.644762,274.905342 453.179445,275.513786 452.574434,275.938362 C451.969423,276.362938 451.251726,276.575226 450.421343,276.575226 Z M463.836622,279 L463.836622,257.862305 L460.65402,257.862305 L460.65402,279 L463.836622,279 Z M474.108739,279.303726 C475.581364,279.303726 476.864705,278.980545 477.95876,278.334183 C479.052815,277.68782 479.90376,276.767105 480.511594,275.572037 C481.119427,274.376968 481.423344,272.952789 481.423344,271.2995 L481.423344,271.270203 C481.423344,269.620422 481.118092,268.20002 480.507588,267.008995 C479.897084,265.81797 479.042783,264.900383 477.944684,264.256233 C476.846585,263.612083 475.563969,263.290009 474.096837,263.290009 C472.63947,263.290009 471.361775,263.612503 470.263753,264.257492 C469.16573,264.902481 468.311429,265.820984 467.700848,267.013 C467.090268,268.205017 466.784978,269.624084 466.784978,271.270203 L466.784978,271.2995 C466.784978,272.943024 467.088475,274.364342 467.69547,275.563454 C468.302464,276.762566 469.154973,277.685722 470.252995,278.332924 C471.351018,278.980125 472.636266,279.303726 474.108739,279.303726 Z M474.123387,276.645035 C473.296666,276.645035 472.577023,276.435379 471.964459,276.016068 C471.351895,275.596756 470.876622,274.988045 470.53864,274.189934 C470.200658,273.391823 470.031667,272.428345 470.031667,271.2995 L470.031667,271.270203 C470.031667,270.143341 470.201115,269.184784 470.540013,268.394531 C470.878911,267.604279 471.354642,266.999077 471.967206,266.578926 C472.57977,266.158775 473.289647,265.9487 474.096837,265.9487 C474.920048,265.9487 475.637936,266.156792 476.2505,266.572975 C476.863065,266.989159 477.337231,267.59436 477.673001,268.38858 C478.008771,269.1828 478.176656,270.143341 478.176656,271.270203 L478.176656,271.2995 C478.176656,272.428345 478.009686,273.391823 477.675748,274.189934 C477.341809,274.988045 476.872525,275.596756 476.267895,276.016068 C475.663266,276.435379 474.94843,276.645035 474.123387,276.645035 Z M490.878296,279.303726 C492.12204,279.303726 493.220176,279.06279 494.172706,278.580917 C495.125236,278.099045 495.891647,277.445778 496.471939,276.621117 C497.052231,275.796455 497.398147,274.868454 497.509689,273.837112 L497.52182,273.73732 L494.474258,273.73732 L494.447708,273.859772 C494.25972,274.689697 493.864288,275.361389 493.261413,275.874847 C492.658539,276.388306 491.868667,276.645035 490.8918,276.645035 C490.077438,276.645035 489.363975,276.433853 488.751411,276.01149 C488.138847,275.589127 487.662468,274.980415 487.322273,274.185356 C486.982078,273.390297 486.811981,272.431473 486.811981,271.308884 L486.811981,271.294235 C486.811981,270.197433 486.980514,269.249939 487.317581,268.451752 C487.654648,267.653564 488.127479,267.036842 488.736076,266.601585 C489.344673,266.166328 490.055313,265.9487 490.867996,265.9487 C491.903305,265.9487 492.715759,266.223816 493.305359,266.774048 C493.894958,267.32428 494.271774,267.977585 494.435806,268.733963 L494.462356,268.856415 L497.497787,268.856415 L497.485885,268.74472 C497.398147,267.778839 497.080498,266.882004 496.532936,266.054214 C495.985374,265.226425 495.23201,264.558777 494.272842,264.05127 C493.313675,263.543762 492.171554,263.290009 490.846481,263.290009 C489.38118,263.290009 488.102798,263.614944 487.011337,264.264816 C485.919876,264.914688 485.07267,265.837158 484.469719,267.032227 C483.866768,268.227295 483.565292,269.639038 483.565292,271.267456 L483.565292,271.282104 C483.565292,272.920441 483.8628,274.340004 484.457817,275.540794 C485.052833,276.741585 485.898475,277.668938 486.994743,278.322853 C488.091011,278.976768 489.385528,279.303726 490.878296,279.303726 Z M503.519772,257.862305 L500.33717,257.862305 L500.33717,279 L503.519772,279 L503.519,273.457 L504.828,272.142 L510.055264,279 L513.736599,279 L507.165,270.236 L513.499249,263.593735 L509.763897,263.593735 L503.589123,270.156235 L503.519,270.157 L503.519772,257.862305 Z M521.000683,279.303726 C522.212231,279.303726 523.290303,279.104141 524.234898,278.704971 C525.179493,278.305801 525.921108,277.749657 526.459744,277.036537 C526.998379,276.323418 527.267697,275.497421 527.267697,274.558548 L527.267697,274.5439 C527.267697,273.434891 526.938183,272.549843 526.279156,271.888756 C525.620129,271.227669 524.500363,270.71608 522.919857,270.353989 L520.408795,269.776062 C519.588635,269.583496 519.003308,269.323105 518.652813,268.994888 C518.302319,268.666672 518.127072,268.265289 518.127072,267.790741 L518.127072,267.776093 C518.127072,267.366241 518.238652,267.008995 518.461811,266.704353 C518.684971,266.399712 519.005024,266.163544 519.421971,265.99585 C519.838917,265.828156 520.331738,265.744308 520.900433,265.744308 C521.792156,265.744308 522.496006,265.95549 523.011982,266.377853 C523.527958,266.800217 523.829434,267.34938 523.916409,268.025345 L523.931057,268.133377 L526.915905,268.133377 L526.904003,267.958969 C526.856091,267.084335 526.586811,266.294655 526.096165,265.589928 C525.605519,264.885201 524.920742,264.325699 524.041836,263.911423 C523.16293,263.497147 522.115795,263.290009 520.900433,263.290009 C519.720776,263.290009 518.682186,263.484901 517.784664,263.874687 C516.887142,264.264473 516.189472,264.807495 515.691654,265.503754 C515.193836,266.200012 514.944927,267.009949 514.944927,267.933563 L514.944927,267.948212 C514.944927,269.070648 515.308583,269.989075 516.035893,270.703491 C516.763203,271.417908 517.859814,271.941513 519.325726,272.274307 L521.836788,272.852234 C522.66824,273.051056 523.244641,273.302597 523.565991,273.606857 C523.887341,273.911118 524.048016,274.313416 524.048016,274.813751 L524.048016,274.8284 C524.048016,275.242523 523.92648,275.601486 523.683407,275.905289 C523.440335,276.209091 523.093884,276.442398 522.644055,276.605209 C522.194226,276.768021 521.650402,276.849426 521.012585,276.849426 C520.043652,276.849426 519.289448,276.651787 518.749974,276.256508 C518.210499,275.861229 517.866223,275.309586 517.717144,274.601578 L517.687847,274.460358 L514.542782,274.460358 L514.557431,274.592194 C514.668514,275.530914 514.987576,276.353706 515.514614,277.06057 C516.041653,277.767433 516.766598,278.318008 517.68945,278.712296 C518.612301,279.106583 519.716046,279.303726 521.000683,279.303726 Z M541.110313,279.276947 C541.795585,279.276947 542.439391,279.166206 543.041732,278.944725 C543.644073,278.723244 544.184463,278.409904 544.662902,278.004707 C545.141341,277.59951 545.527885,277.123093 545.822532,276.575455 L545.891883,276.575455 L545.891883,279 L549.074714,279 L549.074714,268.381714 C549.074714,267.351898 548.822028,266.455826 548.316657,265.693497 C547.811286,264.931168 547.098739,264.340004 546.179015,263.920006 C545.259292,263.500008 544.171073,263.290009 542.914359,263.290009 C541.65322,263.290009 540.564353,263.496689 539.647758,263.910049 C538.731162,264.32341 538.013732,264.883942 537.495467,265.591644 C536.977203,266.299347 536.678169,267.097305 536.598365,267.985519 L536.583717,268.152145 L539.576347,268.152145 L539.605644,268.017563 C539.737785,267.398361 540.080421,266.893829 540.633552,266.503967 C541.186683,266.114105 541.918418,265.919174 542.828758,265.919174 C543.810813,265.919174 544.566848,266.16156 545.096862,266.646332 C545.626876,267.131104 545.891883,267.795319 545.891883,268.638977 L545.891,269.797 L541.704032,270.044083 C539.882591,270.150742 538.470542,270.599426 537.467887,271.390137 C536.465232,272.180847 535.963905,273.249802 535.963905,274.597 L535.963905,274.62355 C535.963905,275.54335 536.179893,276.353935 536.611869,277.055305 C537.043845,277.756676 537.646529,278.302292 538.419921,278.692154 C539.193313,279.082016 540.09011,279.276947 541.110313,279.276947 Z M541.979606,276.73201 C541.12786,276.73201 540.44625,276.535934 539.934776,276.143784 C539.423301,275.751633 539.167564,275.218033 539.167564,274.542984 L539.167564,274.516434 C539.167564,273.860764 539.424178,273.335098 539.937408,272.939438 C540.450637,272.543777 541.180122,272.318405 542.125861,272.263321 L545.891,272.029 L545.891883,273.232635 C545.891883,273.895172 545.719573,274.491676 545.374954,275.022148 C545.030334,275.55262 544.56372,275.970215 543.975112,276.274933 C543.386504,276.579651 542.721336,276.73201 541.979606,276.73201 Z M555.710195,279 L555.710195,269.821381 C555.710195,269.053406 555.843137,268.398003 556.109022,267.855171 C556.374906,267.31234 556.755765,266.898026 557.2516,266.612228 C557.747434,266.326431 558.331426,266.183533 559.003576,266.183533 C559.316076,266.183533 559.601339,266.20089 559.859365,266.235603 C560.117391,266.270317 560.309499,266.313461 560.435689,266.365036 L560.435689,263.416809 C560.31484,263.386444 560.158247,263.357719 559.965909,263.330635 C559.773572,263.303551 559.562429,263.290009 559.332479,263.290009 C558.45342,263.290009 557.702726,263.552383 557.080396,264.077133 C556.458066,264.601883 556.02445,265.319809 555.779546,266.230911 L555.710195,266.230911 L555.710195,263.593735 L552.527593,263.593735 L552.527593,279 L555.710195,279 Z M568.718573,279.303726 C569.654242,279.303726 570.501333,279.177345 571.259848,278.924583 C572.018362,278.671822 572.680441,278.324493 573.246084,277.882599 C573.811728,277.440704 574.269644,276.939606 574.619833,276.379303 C574.970022,275.819 575.207678,275.235275 575.3328,274.628128 L575.364843,274.473633 L572.338797,274.473633 L572.300344,274.589447 C572.171713,274.976868 571.949469,275.330757 571.633612,275.651115 C571.317755,275.971474 570.920263,276.227058 570.441137,276.41787 C569.962011,276.608681 569.41094,276.704086 568.787924,276.704086 C567.934347,276.704086 567.195707,276.515755 566.572004,276.139091 C565.948301,275.762428 565.46723,275.220093 565.12879,274.512085 C564.827954,273.882745 564.660824,273.139171 564.627397,272.281363 L564.624,272.107 L575.533758,272.106308 L575.533758,271.028961 C575.533758,269.484161 575.252234,268.130211 574.689184,266.96711 C574.126135,265.804008 573.322607,264.900383 572.278601,264.256233 C571.234594,263.612083 569.992376,263.290009 568.551947,263.290009 C567.111517,263.290009 565.859381,263.624939 564.795538,264.2948 C563.731695,264.964661 562.906691,265.903114 562.320524,267.110161 C561.734358,268.317207 561.441275,269.723877 561.441275,271.33017 L561.441275,271.344818 C561.441275,272.965149 561.732794,274.37178 562.315832,275.564713 C562.89887,276.757645 563.734556,277.679047 564.822889,278.328918 C565.911222,278.97879 567.209784,279.303726 568.718573,279.303726 Z M572.393,269.857 L564.666,269.857 L564.678058,269.732282 C564.753962,269.107808 564.90577,268.555575 565.133482,268.075584 C565.47505,267.355598 565.943914,266.811279 566.540075,266.442627 C567.136236,266.073975 567.812735,265.889648 568.569571,265.889648 C569.326406,265.889648 569.994932,266.066002 570.575148,266.418709 C571.155363,266.771416 571.610266,267.30574 571.939856,268.021683 C572.159582,268.498978 572.306067,269.058297 572.379309,269.699641 L572.393,269.857 Z M588.944056,279 L588.944056,266.111435 L592.017481,266.111435 L592.017481,263.593735 L588.88798,263.593735 L588.88798,262.012619 C588.88798,261.330551 589.060175,260.819382 589.404566,260.479111 C589.748957,260.13884 590.27363,259.968704 590.978586,259.968704 C591.173899,259.968704 591.367647,259.974045 591.559832,259.984726 C591.752016,259.995407 591.924479,260.011429 592.077219,260.032791 L592.077219,257.687897 C591.870157,257.651428 591.603548,257.620758 591.277392,257.595886 C590.951235,257.571014 590.625956,257.558578 590.301554,257.558578 C588.73234,257.558578 587.583353,257.917046 586.854594,258.63398 C586.125834,259.350914 585.761454,260.455231 585.761454,261.94693 L585.761454,263.593735 L583.634684,263.593735 L583.634684,266.111435 L585.761454,266.111435 L585.761454,279 L588.944056,279 Z M598.087295,279 L598.087295,269.821381 C598.087295,269.053406 598.220237,268.398003 598.486122,267.855171 C598.752006,267.31234 599.132865,266.898026 599.6287,266.612228 C600.124534,266.326431 600.708526,266.183533 601.380676,266.183533 C601.693176,266.183533 601.978439,266.20089 602.236465,266.235603 C602.494491,266.270317 602.686599,266.313461 602.812789,266.365036 L602.812789,263.416809 C602.69194,263.386444 602.535347,263.357719 602.343009,263.330635 C602.150672,263.303551 601.939529,263.290009 601.709579,263.290009 C600.83052,263.290009 600.079826,263.552383 599.457496,264.077133 C598.835166,264.601883 598.40155,265.319809 598.156646,266.230911 L598.087295,266.230911 L598.087295,263.593735 L594.904693,263.593735 L594.904693,279 L598.087295,279 Z M611.095673,279.303726 C612.031342,279.303726 612.878433,279.177345 613.636948,278.924583 C614.395462,278.671822 615.057541,278.324493 615.623184,277.882599 C616.188828,277.440704 616.646744,276.939606 616.996933,276.379303 C617.347122,275.819 617.584778,275.235275 617.7099,274.628128 L617.741943,274.473633 L614.715897,274.473633 L614.677444,274.589447 C614.548813,274.976868 614.326569,275.330757 614.010712,275.651115 C613.694855,275.971474 613.297363,276.227058 612.818237,276.41787 C612.339111,276.608681 611.78804,276.704086 611.165024,276.704086 C610.311447,276.704086 609.572807,276.515755 608.949104,276.139091 C608.325401,275.762428 607.84433,275.220093 607.50589,274.512085 C607.205054,273.882745 607.037924,273.139171 607.004497,272.281363 L607.001,272.107 L617.910858,272.106308 L617.910858,271.028961 C617.910858,269.484161 617.629333,268.130211 617.066284,266.96711 C616.503235,265.804008 615.699707,264.900383 614.655701,264.256233 C613.611694,263.612083 612.369476,263.290009 610.929047,263.290009 C609.488617,263.290009 608.236481,263.624939 607.172638,264.2948 C606.108795,264.964661 605.283791,265.903114 604.697624,267.110161 C604.111458,268.317207 603.818375,269.723877 603.818375,271.33017 L603.818375,271.344818 C603.818375,272.965149 604.109894,274.37178 604.692932,275.564713 C605.27597,276.757645 606.111656,277.679047 607.199989,278.328918 C608.288322,278.97879 609.586884,279.303726 611.095673,279.303726 Z M614.77,269.857 L607.043,269.857 L607.055158,269.732282 C607.131062,269.107808 607.28287,268.555575 607.510582,268.075584 C607.85215,267.355598 608.321014,266.811279 608.917175,266.442627 C609.513336,266.073975 610.189835,265.889648 610.946671,265.889648 C611.703506,265.889648 612.372032,266.066002 612.952248,266.418709 C613.532463,266.771416 613.987366,267.30574 614.316956,268.021683 C614.536682,268.498978 614.683167,269.058297 614.756409,269.699641 L614.77,269.857 Z M627.327404,279.303726 C628.263073,279.303726 629.110164,279.177345 629.868679,278.924583 C630.627193,278.671822 631.289272,278.324493 631.854915,277.882599 C632.420559,277.440704 632.878475,276.939606 633.228664,276.379303 C633.578853,275.819 633.816509,275.235275 633.941631,274.628128 L633.973675,274.473633 L630.947628,274.473633 L630.909176,274.589447 C630.780544,274.976868 630.5583,275.330757 630.242443,275.651115 C629.926586,275.971474 629.529094,276.227058 629.049968,276.41787 C628.570843,276.608681 628.019771,276.704086 627.396755,276.704086 C626.543178,276.704086 625.804538,276.515755 625.180835,276.139091 C624.557132,275.762428 624.076061,275.220093 623.737621,274.512085 C623.436786,273.882745 623.269655,273.139171 623.236229,272.281363 L623.232,272.107 L634.142589,272.106308 L634.142589,271.028961 C634.142589,269.484161 633.861065,268.130211 633.298015,266.96711 C632.734966,265.804008 631.931438,264.900383 630.887432,264.256233 C629.843426,263.612083 628.601207,263.290009 627.160778,263.290009 C625.720348,263.290009 624.468212,263.624939 623.404369,264.2948 C622.340526,264.964661 621.515522,265.903114 620.929355,267.110161 C620.343189,268.317207 620.050106,269.723877 620.050106,271.33017 L620.050106,271.344818 C620.050106,272.965149 620.341625,274.37178 620.924663,275.564713 C621.507702,276.757645 622.343387,277.679047 623.43172,278.328918 C624.520054,278.97879 625.818615,279.303726 627.327404,279.303726 Z M631.002,269.857 L623.274,269.857 L623.286889,269.732282 C623.362793,269.107808 623.514601,268.555575 623.742313,268.075584 C624.083881,267.355598 624.552746,266.811279 625.148906,266.442627 C625.745067,266.073975 626.421566,265.889648 627.178402,265.889648 C627.935238,265.889648 628.603763,266.066002 629.183979,266.418709 C629.764194,266.771416 630.219097,267.30574 630.548687,268.021683 C630.768413,268.498978 630.914898,269.058297 630.98814,269.699641 L631.002,269.857 Z" id="Atleast2blocksarefree" fill="#FFFFFF" fill-rule="nonzero"></path>
    </g>
</svg>