<?xml version="1.0" encoding="UTF-8"?>
<svg width="1100px" height="550px" viewBox="0 0 1100 550" version="1.1" xmlns="http://www.w3.org/2000/svg" xmlns:xlink="http://www.w3.org/1999/xlink">
    <title>Artboard</title>
    <g id="Artboard" stroke="none" stroke-width="1" fill="none" fill-rule="evenodd">
        <rect fill="#1A242F" x="0" y="0" width="1100" height="550"></rect>
        <path d="M96.8364312,100.513011 C109.668326,100.513011 121.285426,105.714164 129.694553,114.123291 C138.10368,122.532418 143.304833,134.149518 143.304833,146.981413 L143.304833,146.981413 L143.304833,329.137546 C143.304833,340.010655 139.570697,350.011727 133.314182,357.927644 C126.635099,366.378205 117.082672,372.45393 106.130624,374.676677 L106.130624,374.676677 L106.130116,602.371747 L87.5427468,602.371747 L87.5422387,374.676677 C76.5901909,372.45393 67.0377637,366.378205 60.3586808,357.927644 C54.1021658,350.011727 50.3680297,340.010655 50.3680297,329.137546 L50.3680297,329.137546 L50.3680297,146.981413 C50.3680297,134.149518 55.5691827,122.532418 63.9783094,114.123291 C72.3874361,105.714164 84.0045365,100.513011 96.8364312,100.513011 Z" id="Combined-Shape" stroke="#4A4A4A" stroke-width="3.71747212" fill="#000000"></path>
        <circle id="Oval" fill="#FFD600" cx="96.8364312" cy="321.702602" r="18.5873606"></circle>
        <circle id="Oval" fill="#2F2F2F" cx="96.8364312" cy="265.94052" r="18.5873606"></circle>
        <circle id="Oval" fill="#2F2F2F" cx="96.8364312" cy="210.178439" r="18.5873606"></circle>
        <circle id="Oval" fill="#FFD600" cx="96.8364312" cy="154.416357" r="18.5873606"></circle>
        <line x1="78.5" y1="180.5" x2="521" y2="181" id="Line" stroke="#FFFFFF" stroke-width="3" stroke-linecap="square"></line>
        <line x1="78.5" y1="350.5" x2="750" y2="351" id="Line" stroke="#FFFFFF" stroke-width="3" stroke-linecap="square"></line>
        <path d="M314.09642,168.356827 C316.134232,168.356827 317.891205,167.912491 319.36734,167.023819 C320.843475,166.135147 321.983765,164.874962 322.788208,163.243263 C323.592651,161.611565 323.994873,159.676636 323.994873,157.438477 L323.994873,157.40918 C323.994873,155.171021 323.592651,153.238533 322.788208,151.611717 C321.983765,149.984901 320.841034,148.727158 319.360016,147.838486 C317.878998,146.949814 316.124466,146.505478 314.09642,146.505478 C312.072037,146.505478 310.317772,146.949356 308.833626,147.837112 C307.34948,148.724869 306.202744,149.982613 305.393417,151.610344 C304.584091,153.238075 304.179428,155.171021 304.179428,157.40918 L304.179428,157.438477 C304.179428,159.676636 304.58165,161.612022 305.386093,163.244637 C306.190536,164.877251 307.334831,166.137436 308.818977,167.025192 C310.303123,167.912949 312.062271,168.356827 314.09642,168.356827 Z M314.09642,165.441788 C312.756699,165.441788 311.597107,165.11525 310.617645,164.462173 C309.638184,163.809097 308.880508,162.883614 308.34462,161.685722 C307.808731,160.487831 307.540787,159.072083 307.540787,157.438477 L307.540787,157.40918 C307.540787,155.765808 307.808731,154.347618 308.34462,153.15461 C308.880508,151.961601 309.640625,151.041 310.624969,150.392807 C311.609314,149.744614 312.766464,149.420517 314.09642,149.420517 C315.429886,149.420517 316.586807,149.745033 317.567184,150.394066 C318.547562,151.043098 319.303711,151.966141 319.835632,153.163193 C320.367554,154.360245 320.633514,155.775574 320.633514,157.40918 L320.633514,157.438477 C320.633514,159.062317 320.369995,160.473183 319.842957,161.671074 C319.315918,162.868965 318.564651,163.79689 317.589157,164.454849 C316.613663,165.112808 315.449417,165.441788 314.09642,165.441788 Z M330.311132,168 L330.311132,159.013641 C330.311132,158.210724 330.461736,157.510269 330.762945,156.912277 C331.064153,156.314285 331.489301,155.849159 332.038389,155.516899 C332.587476,155.184639 333.231969,155.018509 333.971868,155.018509 C335.066839,155.018509 335.886503,155.330666 336.43086,155.954979 C336.975217,156.579292 337.247396,157.472122 337.247396,158.633469 L337.247396,168 L340.429998,168 L340.429998,158.020981 C340.429998,156.245163 339.964986,154.846046 339.034963,153.823631 C338.10494,152.801216 336.795125,152.290009 335.10552,152.290009 C333.940664,152.290009 332.964025,152.531784 332.175603,153.015335 C331.387182,153.498886 330.788808,154.13205 330.380483,154.914825 L330.311132,154.914825 L330.311132,152.593735 L327.12853,152.593735 L327.12853,168 L330.311132,168 Z M350.461342,168.303726 C351.397011,168.303726 352.244102,168.177345 353.002617,167.924583 C353.761131,167.671822 354.42321,167.324493 354.988853,166.882599 C355.554497,166.440704 356.012413,165.939606 356.362602,165.379303 C356.712791,164.819 356.950447,164.235275 357.075569,163.628128 L357.107612,163.473633 L354.081566,163.473633 L354.043113,163.589447 C353.914482,163.976868 353.692238,164.330757 353.376381,164.651115 C353.060524,164.971474 352.663032,165.227058 352.183906,165.41787 C351.70478,165.608681 351.153709,165.704086 350.530693,165.704086 C349.677116,165.704086 348.938476,165.515755 348.314773,165.139091 C347.69107,164.762428 347.209999,164.220093 346.871559,163.512085 C346.570723,162.882745 346.403593,162.139171 346.370166,161.281363 L346.366,161.107 L357.276527,161.106308 L357.276527,160.028961 C357.276527,158.484161 356.995003,157.130211 356.431953,155.96711 C355.868904,154.804008 355.065376,153.900383 354.02137,153.256233 C352.977363,152.612083 351.735145,152.290009 350.294716,152.290009 C348.854286,152.290009 347.60215,152.624939 346.538307,153.2948 C345.474464,153.964661 344.64946,154.903114 344.063293,156.110161 C343.477127,157.317207 343.184044,158.723877 343.184044,160.33017 L343.184044,160.344818 C343.184044,161.965149 343.475563,163.37178 344.058601,164.564713 C344.641639,165.757645 345.477325,166.679047 346.565658,167.328918 C347.653991,167.97879 348.952553,168.303726 350.461342,168.303726 Z M354.136,158.857 L346.408,158.857 L346.420827,158.732282 C346.496731,158.107808 346.648539,157.555575 346.876251,157.075584 C347.217819,156.355598 347.686683,155.811279 348.282844,155.442627 C348.879005,155.073975 349.555504,154.889648 350.31234,154.889648 C351.069175,154.889648 351.737701,155.066002 352.317917,155.418709 C352.898132,155.771416 353.353035,156.30574 353.682625,157.021683 C353.902351,157.498978 354.048836,158.058297 354.122078,158.699641 L354.136,158.857 Z M374.77557,168.303726 C376.08157,168.303726 377.217701,167.978104 378.183964,167.326859 C379.150227,166.675613 379.897907,165.750473 380.427006,164.551437 C380.956104,163.352402 381.220654,161.934174 381.220654,160.296753 L381.220654,160.282104 C381.220654,158.643005 380.954121,157.225922 380.421055,156.030853 C379.887989,154.835785 379.142292,153.913544 378.183964,153.26413 C377.225636,152.614716 376.099651,152.290009 374.806011,152.290009 C373.717449,152.290009 372.749737,152.550171 371.902874,153.070496 C371.056011,153.59082 370.402248,154.303864 369.941586,155.209625 L369.872234,155.209625 L369.872234,146.862305 L366.689632,146.862305 L366.689632,168 L369.872234,168 L369.872234,165.386856 L369.941586,165.386856 C370.400417,166.291702 371.043766,167.004059 371.871632,167.523926 C372.699497,168.043793 373.667477,168.303726 374.77557,168.303726 Z M373.936489,165.575226 C373.137997,165.575226 372.432201,165.357864 371.819103,164.923141 C371.206005,164.488419 370.726269,163.874901 370.379894,163.082588 C370.03352,162.290276 369.860332,161.362579 369.860332,160.2995 L369.860332,160.284851 C369.860332,159.220093 370.035542,158.293541 370.38596,157.505196 C370.736378,156.71685 371.216534,156.105316 371.826427,155.670593 C372.436321,155.23587 373.139675,155.018509 373.936489,155.018509 C374.765041,155.018509 375.481861,155.231903 376.086948,155.658691 C376.692036,156.08548 377.15781,156.691025 377.484272,157.475327 C377.810734,158.259628 377.973965,159.195221 377.973965,160.282104 L377.973965,160.296753 C377.973965,161.381958 377.811153,162.320717 377.485531,163.113029 C377.159908,163.905342 376.694592,164.513786 376.089581,164.938362 C375.48457,165.362938 374.766872,165.575226 373.936489,165.575226 Z M387.351768,168 L387.351768,146.862305 L384.169167,146.862305 L384.169167,168 L387.351768,168 Z M397.623885,168.303726 C399.096511,168.303726 400.379851,167.980545 401.473907,167.334183 C402.567962,166.68782 403.418906,165.767105 404.02674,164.572037 C404.634574,163.376968 404.938491,161.952789 404.938491,160.2995 L404.938491,160.270203 C404.938491,158.620422 404.633239,157.20002 404.022735,156.008995 C403.41223,154.81797 402.557929,153.900383 401.45983,153.256233 C400.361732,152.612083 399.079116,152.290009 397.611983,152.290009 C396.154616,152.290009 394.876922,152.612503 393.778899,153.257492 C392.680877,153.902481 391.826575,154.820984 391.215995,156.013 C390.605414,157.205017 390.300124,158.624084 390.300124,160.270203 L390.300124,160.2995 C390.300124,161.943024 390.603621,163.364342 391.210616,164.563454 C391.817611,165.762566 392.670119,166.685722 393.768142,167.332924 C394.866164,167.980125 396.151412,168.303726 397.623885,168.303726 Z M397.638534,165.645035 C396.811812,165.645035 396.09217,165.435379 395.479606,165.016068 C394.867042,164.596756 394.391768,163.988045 394.053786,163.189934 C393.715804,162.391823 393.546813,161.428345 393.546813,160.2995 L393.546813,160.270203 C393.546813,159.143341 393.716262,158.184784 394.05516,157.394531 C394.394057,156.604279 394.869788,155.999077 395.482352,155.578926 C396.094916,155.158775 396.804793,154.9487 397.611983,154.9487 C398.435195,154.9487 399.153083,155.156792 399.765647,155.572975 C400.378211,155.989159 400.852378,156.59436 401.188148,157.38858 C401.523917,158.1828 401.691802,159.143341 401.691802,160.270203 L401.691802,160.2995 C401.691802,161.428345 401.524833,162.391823 401.190894,163.189934 C400.856956,163.988045 400.387671,164.596756 399.783042,165.016068 C399.178412,165.435379 398.463576,165.645035 397.638534,165.645035 Z M414.393442,168.303726 C415.637186,168.303726 416.735323,168.06279 417.687853,167.580917 C418.640383,167.099045 419.406794,166.445778 419.987085,165.621117 C420.567377,164.796455 420.913294,163.868454 421.024836,162.837112 L421.036966,162.73732 L417.989405,162.73732 L417.962854,162.859772 C417.774866,163.689697 417.379435,164.361389 416.77656,164.874847 C416.173685,165.388306 415.383814,165.645035 414.406946,165.645035 C413.592585,165.645035 412.879122,165.433853 412.266558,165.01149 C411.653994,164.589127 411.177614,163.980415 410.83742,163.185356 C410.497225,162.390297 410.327127,161.431473 410.327127,160.308884 L410.327127,160.294235 C410.327127,159.197433 410.495661,158.249939 410.832727,157.451752 C411.169794,156.653564 411.642626,156.036842 412.251223,155.601585 C412.859819,155.166328 413.570459,154.9487 414.383142,154.9487 C415.418451,154.9487 416.230906,155.223816 416.820505,155.774048 C417.410105,156.32428 417.786921,156.977585 417.950953,157.733963 L417.977503,157.856415 L421.012934,157.856415 L421.001032,157.74472 C420.913294,156.778839 420.595644,155.882004 420.048082,155.054214 C419.500521,154.226425 418.747156,153.558777 417.787989,153.05127 C416.828821,152.543762 415.686701,152.290009 414.361628,152.290009 C412.896326,152.290009 411.617945,152.614944 410.526484,153.264816 C409.435022,153.914688 408.587816,154.837158 407.984865,156.032227 C407.381914,157.227295 407.080439,158.639038 407.080439,160.267456 L407.080439,160.282104 C407.080439,161.920441 407.377947,163.340004 407.972963,164.540794 C408.56798,165.741585 409.413622,166.668938 410.50989,167.322853 C411.606157,167.976768 412.900675,168.303726 414.393442,168.303726 Z M427.034919,146.862305 L423.852317,146.862305 L423.852317,168 L427.034919,168 L427.034,162.457 L428.343,161.142 L433.57041,168 L437.251746,168 L430.68,159.236 L437.014395,152.593735 L433.279044,152.593735 L427.10427,159.156235 L427.034,159.157 L427.034919,146.862305 Z M447.39507,150.222519 C447.916005,150.222519 448.354428,150.042961 448.71034,149.683846 C449.066251,149.32473 449.244206,148.895004 449.244206,148.394669 C449.244206,147.884567 449.066251,147.452438 448.71034,147.098282 C448.354428,146.744125 447.916005,146.567047 447.39507,146.567047 C446.882222,146.567047 446.445821,146.744125 446.085866,147.098282 C445.725911,147.452438 445.545934,147.884567 445.545934,148.394669 C445.545934,148.895004 445.725911,149.32473 446.085866,149.683846 C446.445821,150.042961 446.882222,150.222519 447.39507,150.222519 Z M448.986485,168 L448.986485,152.593735 L445.803655,152.593735 L445.803655,168 L448.986485,168 Z M458.420144,168.303726 C459.631691,168.303726 460.709763,168.104141 461.654358,167.704971 C462.598954,167.305801 463.340569,166.749657 463.879204,166.036537 C464.41784,165.323418 464.687157,164.497421 464.687157,163.558548 L464.687157,163.5439 C464.687157,162.434891 464.357644,161.549843 463.698617,160.888756 C463.039589,160.227669 461.919823,159.71608 460.339318,159.353989 L457.828255,158.776062 C457.008095,158.583496 456.422768,158.323105 456.072274,157.994888 C455.721779,157.666672 455.546532,157.265289 455.546532,156.790741 L455.546532,156.776093 C455.546532,156.366241 455.658112,156.008995 455.881272,155.704353 C456.104432,155.399712 456.424485,155.163544 456.841431,154.99585 C457.258378,154.828156 457.751198,154.744308 458.319893,154.744308 C459.211617,154.744308 459.915467,154.95549 460.431443,155.377853 C460.947419,155.800217 461.248894,156.34938 461.335869,157.025345 L461.350518,157.133377 L464.335366,157.133377 L464.323464,156.958969 C464.275551,156.084335 464.006272,155.294655 463.515625,154.589928 C463.024979,153.885201 462.340203,153.325699 461.461297,152.911423 C460.58239,152.497147 459.535256,152.290009 458.319893,152.290009 C457.140236,152.290009 456.101647,152.484901 455.204125,152.874687 C454.306603,153.264473 453.608933,153.807495 453.111115,154.503754 C452.613297,155.200012 452.364388,156.009949 452.364388,156.933563 L452.364388,156.948212 C452.364388,158.070648 452.728043,158.989075 453.455353,159.703491 C454.182663,160.417908 455.279274,160.941513 456.745186,161.274307 L459.256249,161.852234 C460.0877,162.051056 460.664101,162.302597 460.985451,162.606857 C461.306801,162.911118 461.467476,163.313416 461.467476,163.813751 L461.467476,163.8284 C461.467476,164.242523 461.34594,164.601486 461.102868,164.905289 C460.859795,165.209091 460.513344,165.442398 460.063515,165.605209 C459.613686,165.768021 459.069863,165.849426 458.432045,165.849426 C457.463112,165.849426 456.708909,165.651787 456.169434,165.256508 C455.62996,164.861229 455.285683,164.309586 455.136605,163.601578 L455.107308,163.460358 L451.962243,163.460358 L451.976891,163.592194 C452.087975,164.530914 452.407036,165.353706 452.934075,166.06057 C453.461113,166.767433 454.186059,167.318008 455.10891,167.712296 C456.031762,168.106583 457.135506,168.303726 458.420144,168.303726 Z M478.114353,168 L478.114353,155.111435 L481.187778,155.111435 L481.187778,152.593735 L478.058277,152.593735 L478.058277,151.012619 C478.058277,150.330551 478.230472,149.819382 478.574863,149.479111 C478.919254,149.13884 479.443927,148.968704 480.148883,148.968704 C480.344196,148.968704 480.537944,148.974045 480.730129,148.984726 C480.922313,148.995407 481.094776,149.011429 481.247516,149.032791 L481.247516,146.687897 C481.040454,146.651428 480.773845,146.620758 480.447689,146.595886 C480.121532,146.571014 479.796253,146.558578 479.471851,146.558578 C477.902637,146.558578 476.75365,146.917046 476.02489,147.63398 C475.296131,148.350914 474.931751,149.455231 474.931751,150.94693 L474.931751,152.593735 L472.804981,152.593735 L472.804981,155.111435 L474.931751,155.111435 L474.931751,168 L478.114353,168 Z M487.257592,168 L487.257592,158.821381 C487.257592,158.053406 487.390534,157.398003 487.656419,156.855171 C487.922303,156.31234 488.303162,155.898026 488.798997,155.612228 C489.294831,155.326431 489.878823,155.183533 490.550973,155.183533 C490.863473,155.183533 491.148736,155.20089 491.406762,155.235603 C491.664788,155.270317 491.856896,155.313461 491.983086,155.365036 L491.983086,152.416809 C491.862237,152.386444 491.705643,152.357719 491.513306,152.330635 C491.320969,152.303551 491.109826,152.290009 490.879876,152.290009 C490.000817,152.290009 489.250123,152.552383 488.627793,153.077133 C488.005463,153.601883 487.571847,154.319809 487.326943,155.230911 L487.257592,155.230911 L487.257592,152.593735 L484.07499,152.593735 L484.07499,168 L487.257592,168 Z M500.26597,168.303726 C501.201638,168.303726 502.04873,168.177345 502.807245,167.924583 C503.565759,167.671822 504.227838,167.324493 504.793481,166.882599 C505.359124,166.440704 505.817041,165.939606 506.16723,165.379303 C506.517419,164.819 506.755075,164.235275 506.880197,163.628128 L506.91224,163.473633 L503.886194,163.473633 L503.847741,163.589447 C503.71911,163.976868 503.496866,164.330757 503.181009,164.651115 C502.865152,164.971474 502.46766,165.227058 501.988534,165.41787 C501.509408,165.608681 500.958337,165.704086 500.335321,165.704086 C499.481744,165.704086 498.743104,165.515755 498.119401,165.139091 C497.495698,164.762428 497.014627,164.220093 496.676187,163.512085 C496.375351,162.882745 496.20822,162.139171 496.174794,161.281363 L496.171,161.107 L507.081155,161.106308 L507.081155,160.028961 C507.081155,158.484161 506.79963,157.130211 506.236581,155.96711 C505.673532,154.804008 504.870004,153.900383 503.825998,153.256233 C502.781991,152.612083 501.539773,152.290009 500.099344,152.290009 C498.658914,152.290009 497.406778,152.624939 496.342935,153.2948 C495.279092,153.964661 494.454087,154.903114 493.867921,156.110161 C493.281755,157.317207 492.988672,158.723877 492.988672,160.33017 L492.988672,160.344818 C492.988672,161.965149 493.280191,163.37178 493.863229,164.564713 C494.446267,165.757645 495.281953,166.679047 496.370286,167.328918 C497.458619,167.97879 498.75718,168.303726 500.26597,168.303726 Z M503.941,158.857 L496.213,158.857 L496.225455,158.732282 C496.301359,158.107808 496.453167,157.555575 496.680879,157.075584 C497.022447,156.355598 497.491311,155.811279 498.087472,155.442627 C498.683633,155.073975 499.360132,154.889648 500.116967,154.889648 C500.873803,154.889648 501.542329,155.066002 502.122545,155.418709 C502.70276,155.771416 503.157663,156.30574 503.487252,157.021683 C503.706979,157.498978 503.853463,158.058297 503.926706,158.699641 L503.941,158.857 Z M516.497701,168.303726 C517.43337,168.303726 518.280461,168.177345 519.038976,167.924583 C519.79749,167.671822 520.459569,167.324493 521.025212,166.882599 C521.590856,166.440704 522.048772,165.939606 522.398961,165.379303 C522.74915,164.819 522.986806,164.235275 523.111928,163.628128 L523.143971,163.473633 L520.117925,163.473633 L520.079473,163.589447 C519.950841,163.976868 519.728597,164.330757 519.41274,164.651115 C519.096883,164.971474 518.699391,165.227058 518.220265,165.41787 C517.741139,165.608681 517.190068,165.704086 516.567052,165.704086 C515.713475,165.704086 514.974835,165.515755 514.351132,165.139091 C513.727429,164.762428 513.246358,164.220093 512.907918,163.512085 C512.607082,162.882745 512.439952,162.139171 512.406525,161.281363 L512.403,161.107 L523.312886,161.106308 L523.312886,160.028961 C523.312886,158.484161 523.031362,157.130211 522.468312,155.96711 C521.905263,154.804008 521.101735,153.900383 520.057729,153.256233 C519.013722,152.612083 517.771504,152.290009 516.331075,152.290009 C514.890645,152.290009 513.638509,152.624939 512.574666,153.2948 C511.510823,153.964661 510.685819,154.903114 510.099652,156.110161 C509.513486,157.317207 509.220403,158.723877 509.220403,160.33017 L509.220403,160.344818 C509.220403,161.965149 509.511922,163.37178 510.09496,164.564713 C510.677999,165.757645 511.513684,166.679047 512.602017,167.328918 C513.690351,167.97879 514.988912,168.303726 516.497701,168.303726 Z M520.172,158.857 L512.445,158.857 L512.457186,158.732282 C512.53309,158.107808 512.684898,157.555575 512.91261,157.075584 C513.254178,156.355598 513.723042,155.811279 514.319203,155.442627 C514.915364,155.073975 515.591863,154.889648 516.348699,154.889648 C517.105535,154.889648 517.77406,155.066002 518.354276,155.418709 C518.934491,155.771416 519.389394,156.30574 519.718984,157.021683 C519.93871,157.498978 520.085195,158.058297 520.158437,158.699641 L520.172,158.857 Z" id="Oneblockisfree" fill="#FFFFFF" fill-rule="nonzero"></path>
        <path d="M305.235443,335 L305.235443,326.89621 L309.735947,326.89621 L309.735947,326.89621 L314.044647,335 L317.841797,335 L313.110352,326.392212 C314.375,325.957947 315.37323,325.203896 316.105042,324.130058 C316.836853,323.056221 317.202759,321.800308 317.202759,320.36232 L317.202759,320.333023 C317.202759,319.009781 316.916351,317.864876 316.343536,316.898308 C315.770721,315.93174 314.957466,315.184097 313.90377,314.65538 C312.850075,314.126663 311.602478,313.862305 310.16098,313.862305 L301.943436,313.862305 L301.943436,335 L305.235443,335 Z M309.837799,324.191055 L305.235443,324.191055 L305.235443,316.616898 L309.742126,316.616898 C311.001129,316.616898 311.995087,316.95034 312.723999,317.617226 C313.452911,318.284111 313.817368,319.202652 313.817368,320.372849 L313.817368,320.402145 C313.817368,321.604233 313.469772,322.53624 312.774582,323.198166 C312.079391,323.860092 311.100464,324.191055 309.837799,324.191055 Z M326.963582,335.303726 C328.436208,335.303726 329.719548,334.980545 330.813603,334.334183 C331.907659,333.68782 332.758603,332.767105 333.366437,331.572037 C333.974271,330.376968 334.278188,328.952789 334.278188,327.2995 L334.278188,327.270203 C334.278188,325.620422 333.972936,324.20002 333.362432,323.008995 C332.751927,321.81797 331.897626,320.900383 330.799527,320.256233 C329.701428,319.612083 328.418813,319.290009 326.95168,319.290009 C325.494313,319.290009 324.216619,319.612503 323.118596,320.257492 C322.020574,320.902481 321.166272,321.820984 320.555692,323.013 C319.945111,324.205017 319.639821,325.624084 319.639821,327.270203 L319.639821,327.2995 C319.639821,328.943024 319.943318,330.364342 320.550313,331.563454 C321.157308,332.762566 322.009816,333.685722 323.107839,334.332924 C324.205861,334.980125 325.491109,335.303726 326.963582,335.303726 Z M326.97823,332.645035 C326.151509,332.645035 325.431867,332.435379 324.819303,332.016068 C324.206738,331.596756 323.731465,330.988045 323.393483,330.189934 C323.055501,329.391823 322.88651,328.428345 322.88651,327.2995 L322.88651,327.270203 C322.88651,326.143341 323.055959,325.184784 323.394856,324.394531 C323.733754,323.604279 324.209485,322.999077 324.822049,322.578926 C325.434613,322.158775 326.14449,321.9487 326.95168,321.9487 C327.774892,321.9487 328.49278,322.156792 329.105344,322.572975 C329.717908,322.989159 330.192075,323.59436 330.527844,324.38858 C330.863614,325.1828 331.031499,326.143341 331.031499,327.270203 L331.031499,327.2995 C331.031499,328.428345 330.86453,329.391823 330.530591,330.189934 C330.196652,330.988045 329.727368,331.596756 329.122739,332.016068 C328.518109,332.435379 327.803273,332.645035 326.97823,332.645035 Z M342.356873,335.303726 C343.529663,335.303726 344.508705,335.061951 345.293999,334.5784 C346.079292,334.094849 346.675262,333.461685 347.081909,332.678909 L347.15126,332.678909 L347.15126,335 L350.333862,335 L350.333862,319.593735 L347.15126,319.593735 L347.15126,328.580093 C347.15126,329.373245 347.000656,330.071259 346.699448,330.674133 C346.398239,331.277008 345.973511,331.744576 345.425262,332.076836 C344.877014,332.409096 344.232025,332.575226 343.490295,332.575226 C342.395477,332.575226 341.57589,332.263069 341.031532,331.638756 C340.487175,331.014442 340.214996,330.121613 340.214996,328.960266 L340.214996,319.593735 L337.032394,319.593735 L337.032394,329.572754 C337.032394,330.750122 337.241249,331.767883 337.658958,332.626038 C338.076668,333.484192 338.682594,334.145012 339.476738,334.608498 C340.270882,335.071983 341.230927,335.303726 342.356873,335.303726 Z M359.270464,335.303726 C359.594103,335.303726 359.898363,335.289726 360.183245,335.261726 C360.468127,335.233727 360.703875,335.206375 360.89049,335.179672 L360.89049,332.724915 C360.774218,332.736359 360.644366,332.749405 360.500933,332.764053 C360.3575,332.778702 360.201403,332.786026 360.032641,332.786026 C359.361559,332.786026 358.855158,332.642441 358.513438,332.35527 C358.171717,332.0681 358.000857,331.533585 358.000857,330.751724 L358.000857,322.111435 L360.89049,322.111435 L360.89049,319.593735 L358.000857,319.593735 L358.000857,315.582352 L354.746386,315.582352 L354.746386,319.593735 L352.536074,319.593735 L352.536074,322.111435 L354.746386,322.111435 L354.746386,330.93277 C354.746386,332.470245 355.119501,333.583107 355.865732,334.271355 C356.611964,334.959602 357.746874,335.303726 359.270464,335.303726 Z M370.106721,335.303726 C371.04239,335.303726 371.889482,335.177345 372.647996,334.924583 C373.40651,334.671822 374.068589,334.324493 374.634233,333.882599 C375.199876,333.440704 375.657792,332.939606 376.007981,332.379303 C376.358171,331.819 376.595826,331.235275 376.720948,330.628128 L376.752992,330.473633 L373.726945,330.473633 L373.688493,330.589447 C373.559861,330.976868 373.337617,331.330757 373.02176,331.651115 C372.705903,331.971474 372.308412,332.227058 371.829286,332.41787 C371.35016,332.608681 370.799088,332.704086 370.176072,332.704086 C369.322495,332.704086 368.583856,332.515755 367.960153,332.139091 C367.33645,331.762428 366.855378,331.220093 366.516938,330.512085 C366.216103,329.882745 366.048972,329.139171 366.015546,328.281363 L366.012,328.107 L376.921906,328.106308 L376.921906,327.028961 C376.921906,325.484161 376.640382,324.130211 376.077332,322.96711 C375.514283,321.804008 374.710755,320.900383 373.666749,320.256233 C372.622743,319.612083 371.380525,319.290009 369.940095,319.290009 C368.499665,319.290009 367.247529,319.624939 366.183686,320.2948 C365.119843,320.964661 364.294839,321.903114 363.708673,323.110161 C363.122506,324.317207 362.829423,325.723877 362.829423,327.33017 L362.829423,327.344818 C362.829423,328.965149 363.120942,330.37178 363.70398,331.564713 C364.287019,332.757645 365.122705,333.679047 366.211038,334.328918 C367.299371,334.97879 368.597932,335.303726 370.106721,335.303726 Z M373.781,325.857 L366.054,325.857 L366.066206,325.732282 C366.14211,325.107808 366.293918,324.555575 366.52163,324.075584 C366.863198,323.355598 367.332063,322.811279 367.928224,322.442627 C368.524384,322.073975 369.200883,321.889648 369.957719,321.889648 C370.714555,321.889648 371.38308,322.066002 371.963296,322.418709 C372.543511,322.771416 372.998414,323.30574 373.328004,324.021683 C373.54773,324.498978 373.694215,325.058297 373.767457,325.699641 L373.781,325.857 Z M387.936727,317.222519 C388.457662,317.222519 388.896085,317.042961 389.251996,316.683846 C389.607908,316.32473 389.785863,315.895004 389.785863,315.394669 C389.785863,314.884567 389.607908,314.452438 389.251996,314.098282 C388.896085,313.744125 388.457662,313.567047 387.936727,313.567047 C387.423879,313.567047 386.987478,313.744125 386.627523,314.098282 C386.267568,314.452438 386.08759,314.884567 386.08759,315.394669 C386.08759,315.895004 386.267568,316.32473 386.627523,316.683846 C386.987478,317.042961 387.423879,317.222519 387.936727,317.222519 Z M389.528142,335 L389.528142,319.593735 L386.345311,319.593735 L386.345311,335 L389.528142,335 Z M398.9618,335.303726 C400.173348,335.303726 401.25142,335.104141 402.196015,334.704971 C403.14061,334.305801 403.882226,333.749657 404.420861,333.036537 C404.959496,332.323418 405.228814,331.497421 405.228814,330.558548 L405.228814,330.5439 C405.228814,329.434891 404.8993,328.549843 404.240273,327.888756 C403.581246,327.227669 402.46148,326.71608 400.880975,326.353989 L398.369912,325.776062 C397.549752,325.583496 396.964425,325.323105 396.61393,324.994888 C396.263436,324.666672 396.088189,324.265289 396.088189,323.790741 L396.088189,323.776093 C396.088189,323.366241 396.199769,323.008995 396.422929,322.704353 C396.646088,322.399712 396.966141,322.163544 397.383088,321.99585 C397.800034,321.828156 398.292855,321.744308 398.86155,321.744308 C399.753274,321.744308 400.457124,321.95549 400.973099,322.377853 C401.489075,322.800217 401.790551,323.34938 401.877526,324.025345 L401.892174,324.133377 L404.877023,324.133377 L404.865121,323.958969 C404.817208,323.084335 404.547929,322.294655 404.057282,321.589928 C403.566636,320.885201 402.88186,320.325699 402.002953,319.911423 C401.124047,319.497147 400.076913,319.290009 398.86155,319.290009 C397.681893,319.290009 396.643304,319.484901 395.745782,319.874687 C394.84826,320.264473 394.15059,320.807495 393.652772,321.503754 C393.154954,322.200012 392.906045,323.009949 392.906045,323.933563 L392.906045,323.948212 C392.906045,325.070648 393.2697,325.989075 393.99701,326.703491 C394.72432,327.417908 395.820931,327.941513 397.286843,328.274307 L399.797906,328.852234 C400.629357,329.051056 401.205758,329.302597 401.527108,329.606857 C401.848458,329.911118 402.009133,330.313416 402.009133,330.813751 L402.009133,330.8284 C402.009133,331.242523 401.887597,331.601486 401.644524,331.905289 C401.401452,332.209091 401.055001,332.442398 400.605172,332.605209 C400.155343,332.768021 399.61152,332.849426 398.973702,332.849426 C398.004769,332.849426 397.250565,332.651787 396.711091,332.256508 C396.171616,331.861229 395.82734,331.309586 395.678262,330.601578 L395.648965,330.460358 L392.503899,330.460358 L392.518548,330.592194 C392.629632,331.530914 392.948693,332.353706 393.475732,333.06057 C394.00277,333.767433 394.727715,334.318008 395.650567,334.712296 C396.573418,335.106583 397.677163,335.303726 398.9618,335.303726 Z M420.327076,335.303726 C421.538624,335.303726 422.616695,335.104141 423.561291,334.704971 C424.505886,334.305801 425.247501,333.749657 425.786136,333.036537 C426.324772,332.323418 426.594089,331.497421 426.594089,330.558548 L426.594089,330.5439 C426.594089,329.434891 426.264576,328.549843 425.605549,327.888756 C424.946522,327.227669 423.826755,326.71608 422.24625,326.353989 L419.735187,325.776062 C418.915027,325.583496 418.3297,325.323105 417.979206,324.994888 C417.628711,324.666672 417.453464,324.265289 417.453464,323.790741 L417.453464,323.776093 C417.453464,323.366241 417.565044,323.008995 417.788204,322.704353 C418.011364,322.399712 418.331417,322.163544 418.748363,321.99585 C419.16531,321.828156 419.65813,321.744308 420.226825,321.744308 C421.118549,321.744308 421.822399,321.95549 422.338375,322.377853 C422.854351,322.800217 423.155826,323.34938 423.242801,324.025345 L423.25745,324.133377 L426.242298,324.133377 L426.230396,323.958969 C426.182483,323.084335 425.913204,322.294655 425.422558,321.589928 C424.931911,320.885201 424.247135,320.325699 423.368229,319.911423 C422.489322,319.497147 421.442188,319.290009 420.226825,319.290009 C419.047168,319.290009 418.008579,319.484901 417.111057,319.874687 C416.213535,320.264473 415.515865,320.807495 415.018047,321.503754 C414.520229,322.200012 414.27132,323.009949 414.27132,323.933563 L414.27132,323.948212 C414.27132,325.070648 414.634975,325.989075 415.362285,326.703491 C416.089596,327.417908 417.186207,327.941513 418.652118,328.274307 L421.163181,328.852234 C421.994632,329.051056 422.571033,329.302597 422.892383,329.606857 C423.213733,329.911118 423.374408,330.313416 423.374408,330.813751 L423.374408,330.8284 C423.374408,331.242523 423.252872,331.601486 423.0098,331.905289 C422.766727,332.209091 422.420276,332.442398 421.970447,332.605209 C421.520618,332.768021 420.976795,332.849426 420.338978,332.849426 C419.370044,332.849426 418.615841,332.651787 418.076366,332.256508 C417.536892,331.861229 417.192615,331.309586 417.043537,330.601578 L417.01424,330.460358 L413.869175,330.460358 L413.883823,330.592194 C413.994907,331.530914 414.313968,332.353706 414.841007,333.06057 C415.368046,333.767433 416.092991,334.318008 417.015842,334.712296 C417.938694,335.106583 419.042438,335.303726 420.327076,335.303726 Z M436.027533,335.303726 C436.963202,335.303726 437.810293,335.177345 438.568808,334.924583 C439.327322,334.671822 439.989401,334.324493 440.555044,333.882599 C441.120688,333.440704 441.578604,332.939606 441.928793,332.379303 C442.278982,331.819 442.516638,331.235275 442.64176,330.628128 L442.673804,330.473633 L439.647757,330.473633 L439.609305,330.589447 C439.480673,330.976868 439.258429,331.330757 438.942572,331.651115 C438.626715,331.971474 438.229223,332.227058 437.750098,332.41787 C437.270972,332.608681 436.7199,332.704086 436.096884,332.704086 C435.243307,332.704086 434.504668,332.515755 433.880965,332.139091 C433.257262,331.762428 432.77619,331.220093 432.43775,330.512085 C432.136915,329.882745 431.969784,329.139171 431.936358,328.281363 L431.933,328.107 L442.842718,328.106308 L442.842718,327.028961 C442.842718,325.484161 442.561194,324.130211 441.998144,322.96711 C441.435095,321.804008 440.631567,320.900383 439.587561,320.256233 C438.543555,319.612083 437.301337,319.290009 435.860907,319.290009 C434.420477,319.290009 433.168341,319.624939 432.104498,320.2948 C431.040655,320.964661 430.215651,321.903114 429.629484,323.110161 C429.043318,324.317207 428.750235,325.723877 428.750235,327.33017 L428.750235,327.344818 C428.750235,328.965149 429.041754,330.37178 429.624792,331.564713 C430.207831,332.757645 431.043516,333.679047 432.13185,334.328918 C433.220183,334.97879 434.518744,335.303726 436.027533,335.303726 Z M439.702,325.857 L431.975,325.857 L431.987018,325.732282 C432.062922,325.107808 432.21473,324.555575 432.442442,324.075584 C432.78401,323.355598 433.252875,322.811279 433.849036,322.442627 C434.445196,322.073975 435.121695,321.889648 435.878531,321.889648 C436.635367,321.889648 437.303892,322.066002 437.884108,322.418709 C438.464323,322.771416 438.919226,323.30574 439.248816,324.021683 C439.468542,324.498978 439.615027,325.058297 439.688269,325.699641 L439.702,325.857 Z M451.09128,335.303726 C451.414919,335.303726 451.719179,335.289726 452.004061,335.261726 C452.288942,335.233727 452.524691,335.206375 452.711306,335.179672 L452.711306,332.724915 C452.595034,332.736359 452.465181,332.749405 452.321749,332.764053 C452.178316,332.778702 452.022219,332.786026 451.853456,332.786026 C451.182375,332.786026 450.675974,332.642441 450.334253,332.35527 C449.992533,332.0681 449.821672,331.533585 449.821672,330.751724 L449.821672,322.111435 L452.711306,322.111435 L452.711306,319.593735 L449.821672,319.593735 L449.821672,315.582352 L446.567202,315.582352 L446.567202,319.593735 L444.35689,319.593735 L444.35689,322.111435 L446.567202,322.111435 L446.567202,330.93277 C446.567202,332.470245 446.940317,333.583107 447.686548,334.271355 C448.432779,334.959602 449.56769,335.303726 451.09128,335.303726 Z M466.280168,335 L466.280168,322.111435 L469.353594,322.111435 L469.353594,319.593735 L466.224092,319.593735 L466.224092,318.012619 C466.224092,317.330551 466.396288,316.819382 466.740679,316.479111 C467.085069,316.13884 467.609743,315.968704 468.314699,315.968704 C468.510011,315.968704 468.70376,315.974045 468.895944,315.984726 C469.088129,315.995407 469.260591,316.011429 469.413332,316.032791 L469.413332,313.687897 C469.20627,313.651428 468.939661,313.620758 468.613504,313.595886 C468.287348,313.571014 467.962068,313.558578 467.637666,313.558578 C466.068453,313.558578 464.919466,313.917046 464.190706,314.63398 C463.461946,315.350914 463.097566,316.455231 463.097566,317.94693 L463.097566,319.593735 L460.970796,319.593735 L460.970796,322.111435 L463.097566,322.111435 L463.097566,335 L466.280168,335 Z M477.548511,335.303726 C479.021137,335.303726 480.304477,334.980545 481.398532,334.334183 C482.492588,333.68782 483.343532,332.767105 483.951366,331.572037 C484.5592,330.376968 484.863117,328.952789 484.863117,327.2995 L484.863117,327.270203 C484.863117,325.620422 484.557865,324.20002 483.947361,323.008995 C483.336856,321.81797 482.482555,320.900383 481.384456,320.256233 C480.286357,319.612083 479.003742,319.290009 477.536609,319.290009 C476.079242,319.290009 474.801548,319.612503 473.703525,320.257492 C472.605503,320.902481 471.751201,321.820984 471.140621,323.013 C470.53004,324.205017 470.22475,325.624084 470.22475,327.270203 L470.22475,327.2995 C470.22475,328.943024 470.528247,330.364342 471.135242,331.563454 C471.742237,332.762566 472.594745,333.685722 473.692768,334.332924 C474.79079,334.980125 476.076038,335.303726 477.548511,335.303726 Z M477.563159,332.645035 C476.736438,332.645035 476.016796,332.435379 475.404232,332.016068 C474.791667,331.596756 474.316394,330.988045 473.978412,330.189934 C473.64043,329.391823 473.471439,328.428345 473.471439,327.2995 L473.471439,327.270203 C473.471439,326.143341 473.640888,325.184784 473.979785,324.394531 C474.318683,323.604279 474.794414,322.999077 475.406978,322.578926 C476.019542,322.158775 476.729419,321.9487 477.536609,321.9487 C478.359821,321.9487 479.077709,322.156792 479.690273,322.572975 C480.302837,322.989159 480.777004,323.59436 481.112773,324.38858 C481.448543,325.1828 481.616428,326.143341 481.616428,327.270203 L481.616428,327.2995 C481.616428,328.428345 481.449459,329.391823 481.11552,330.189934 C480.781581,330.988045 480.312297,331.596756 479.707668,332.016068 C479.103038,332.435379 478.388202,332.645035 477.563159,332.645035 Z M490.873168,335 L490.873168,325.821381 C490.873168,325.053406 491.00611,324.398003 491.271994,323.855171 C491.537879,323.31234 491.918738,322.898026 492.414572,322.612228 C492.910407,322.326431 493.494399,322.183533 494.166548,322.183533 C494.479048,322.183533 494.764311,322.20089 495.022337,322.235603 C495.280364,322.270317 495.472472,322.313461 495.598662,322.365036 L495.598662,319.416809 C495.477812,319.386444 495.321219,319.357719 495.128882,319.330635 C494.936545,319.303551 494.725401,319.290009 494.495451,319.290009 C493.616393,319.290009 492.865698,319.552383 492.243369,320.077133 C491.621039,320.601883 491.187422,321.319809 490.942519,322.230911 L490.873168,322.230911 L490.873168,319.593735 L487.690566,319.593735 L487.690566,335 L490.873168,335 Z M509.832687,335.303726 C510.156326,335.303726 510.460587,335.289726 510.745468,335.261726 C511.03035,335.233727 511.266098,335.206375 511.452713,335.179672 L511.452713,332.724915 C511.336441,332.736359 511.206589,332.749405 511.063156,332.764053 C510.919724,332.778702 510.763626,332.786026 510.594864,332.786026 C509.923782,332.786026 509.417381,332.642441 509.075661,332.35527 C508.73394,332.0681 508.56308,331.533585 508.56308,330.751724 L508.56308,322.111435 L511.452713,322.111435 L511.452713,319.593735 L508.56308,319.593735 L508.56308,315.582352 L505.308609,315.582352 L505.308609,319.593735 L503.098297,319.593735 L503.098297,322.111435 L505.308609,322.111435 L505.308609,330.93277 C505.308609,332.470245 505.681725,333.583107 506.427956,334.271355 C507.174187,334.959602 508.309097,335.303726 509.832687,335.303726 Z M517.739707,335 L517.739707,326.07338 C517.739707,325.270615 517.890311,324.566231 518.19152,323.960228 C518.492728,323.354225 518.915893,322.879105 519.461013,322.534866 C520.006133,322.190628 520.640708,322.018509 521.364738,322.018509 C522.475578,322.018509 523.337051,322.376518 523.949157,323.092537 C524.561263,323.808556 524.867316,324.803085 524.867316,326.076126 L524.867316,335 L528.049918,335 L528.049918,325.47554 C528.049918,324.232559 527.823135,323.148537 527.369567,322.223473 C526.916,321.298409 526.280586,320.578232 525.463325,320.062943 C524.646064,319.547653 523.6856,319.290009 522.581931,319.290009 C521.433097,319.290009 520.452491,319.537773 519.640113,320.033302 C518.827735,320.528831 518.217384,321.227798 517.809058,322.130203 L517.739707,322.130203 L517.739707,313.862305 L514.557105,313.862305 L514.557105,335 L517.739707,335 Z M538.092077,335.303726 C539.027746,335.303726 539.874837,335.177345 540.633352,334.924583 C541.391866,334.671822 542.053945,334.324493 542.619588,333.882599 C543.185232,333.440704 543.643148,332.939606 543.993337,332.379303 C544.343526,331.819 544.581182,331.235275 544.706304,330.628128 L544.738348,330.473633 L541.712301,330.473633 L541.673849,330.589447 C541.545217,330.976868 541.322973,331.330757 541.007116,331.651115 C540.691259,331.971474 540.293767,332.227058 539.814641,332.41787 C539.335515,332.608681 538.784444,332.704086 538.161428,332.704086 C537.307851,332.704086 536.569211,332.515755 535.945508,332.139091 C535.321805,331.762428 534.840734,331.220093 534.502294,330.512085 C534.201459,329.882745 534.034328,329.139171 534.000902,328.281363 L533.997,328.107 L544.907262,328.106308 L544.907262,327.028961 C544.907262,325.484161 544.625738,324.130211 544.062688,322.96711 C543.499639,321.804008 542.696111,320.900383 541.652105,320.256233 C540.608099,319.612083 539.36588,319.290009 537.925451,319.290009 C536.485021,319.290009 535.232885,319.624939 534.169042,320.2948 C533.105199,320.964661 532.280195,321.903114 531.694028,323.110161 C531.107862,324.317207 530.814779,325.723877 530.814779,327.33017 L530.814779,327.344818 C530.814779,328.965149 531.106298,330.37178 531.689336,331.564713 C532.272375,332.757645 533.10806,333.679047 534.196393,334.328918 C535.284727,334.97879 536.583288,335.303726 538.092077,335.303726 Z M541.767,325.857 L534.039,325.857 L534.051562,325.732282 C534.127466,325.107808 534.279274,324.555575 534.506986,324.075584 C534.848554,323.355598 535.317419,322.811279 535.913579,322.442627 C536.50974,322.073975 537.186239,321.889648 537.943075,321.889648 C538.699911,321.889648 539.368436,322.066002 539.948652,322.418709 C540.528867,322.771416 540.98377,323.30574 541.31336,324.021683 C541.533086,324.498978 541.679571,325.058297 541.752813,325.699641 L541.767,325.857 Z M559.958872,335.303726 C561.066965,335.303726 562.035402,335.043793 562.864183,334.523926 C563.692964,334.004059 564.335855,333.291702 564.792856,332.386856 L564.862207,332.386856 L564.862207,335 L568.045038,335 L568.045038,313.862305 L564.862207,313.862305 L564.862207,322.209625 L564.792856,322.209625 C564.332346,321.303864 563.679079,320.59082 562.833055,320.070496 C561.987032,319.550171 561.018823,319.290009 559.92843,319.290009 C558.642725,319.290009 557.518724,319.614716 556.556429,320.26413 C555.594133,320.913544 554.846452,321.835785 554.313387,323.030853 C553.780321,324.225922 553.513788,325.643005 553.513788,327.282104 L553.513788,327.296753 C553.513788,328.934174 553.778337,330.352402 554.307436,331.551437 C554.836534,332.750473 555.584215,333.675613 556.550478,334.326859 C557.516741,334.978104 558.652872,335.303726 559.958872,335.303726 Z M560.798181,332.575226 C559.969476,332.575226 559.252161,332.362938 558.646234,331.938362 C558.040308,331.513786 557.574533,330.905342 557.248911,330.113029 C556.923288,329.320717 556.760477,328.381958 556.760477,327.296753 L556.760477,327.282104 C556.760477,326.195221 556.923746,325.259628 557.250284,324.475327 C557.576822,323.691025 558.042597,323.08548 558.647608,322.658691 C559.252619,322.231903 559.969476,322.018509 560.798181,322.018509 C561.596674,322.018509 562.300447,322.23587 562.909502,322.670593 C563.518556,323.105316 563.998293,323.71685 564.348711,324.505196 C564.699129,325.293541 564.874338,326.220093 564.874338,327.284851 L564.874338,327.2995 C564.874338,328.362579 564.70157,329.290276 564.356035,330.082588 C564.0105,330.874901 563.530763,331.488419 562.916826,331.923141 C562.302889,332.357864 561.596674,332.575226 560.798181,332.575226 Z M573.388188,317.222519 C573.909123,317.222519 574.347546,317.042961 574.703457,316.683846 C575.059369,316.32473 575.237324,315.895004 575.237324,315.394669 C575.237324,314.884567 575.059369,314.452438 574.703457,314.098282 C574.347546,313.744125 573.909123,313.567047 573.388188,313.567047 C572.87534,313.567047 572.438939,313.744125 572.078984,314.098282 C571.719029,314.452438 571.539052,314.884567 571.539052,315.394669 C571.539052,315.895004 571.719029,316.32473 572.078984,316.683846 C572.438939,317.042961 572.87534,317.222519 573.388188,317.222519 Z M574.979603,335 L574.979603,319.593735 L571.796772,319.593735 L571.796772,335 L574.979603,335 Z M586.280708,335 L591.801109,319.593735 L588.483696,319.593735 L584.622231,331.897964 L584.552879,331.897964 L580.689812,319.593735 L577.313576,319.593735 L582.859383,335 L586.280708,335 Z M600.022895,335.303726 C600.958564,335.303726 601.805656,335.177345 602.56417,334.924583 C603.322685,334.671822 603.984764,334.324493 604.550407,333.882599 C605.11605,333.440704 605.573967,332.939606 605.924156,332.379303 C606.274345,331.819 606.512001,331.235275 606.637123,330.628128 L606.669166,330.473633 L603.643119,330.473633 L603.604667,330.589447 C603.476036,330.976868 603.253791,331.330757 602.937934,331.651115 C602.622077,331.971474 602.224586,332.227058 601.74546,332.41787 C601.266334,332.608681 600.715263,332.704086 600.092247,332.704086 C599.23867,332.704086 598.50003,332.515755 597.876327,332.139091 C597.252624,331.762428 596.771553,331.220093 596.433113,330.512085 C596.132277,329.882745 595.965146,329.139171 595.93172,328.281363 L595.928,328.107 L606.838081,328.106308 L606.838081,327.028961 C606.838081,325.484161 606.556556,324.130211 605.993507,322.96711 C605.430458,321.804008 604.62693,320.900383 603.582923,320.256233 C602.538917,319.612083 601.296699,319.290009 599.856269,319.290009 C598.41584,319.290009 597.163703,319.624939 596.099861,320.2948 C595.036018,320.964661 594.211013,321.903114 593.624847,323.110161 C593.038681,324.317207 592.745597,325.723877 592.745597,327.33017 L592.745597,327.344818 C592.745597,328.965149 593.037117,330.37178 593.620155,331.564713 C594.203193,332.757645 595.038879,333.679047 596.127212,334.328918 C597.215545,334.97879 598.514106,335.303726 600.022895,335.303726 Z M603.698,325.857 L595.97,325.857 L595.982381,325.732282 C596.058285,325.107808 596.210093,324.555575 596.437805,324.075584 C596.779373,323.355598 597.248237,322.811279 597.844398,322.442627 C598.440559,322.073975 599.117057,321.889648 599.873893,321.889648 C600.630729,321.889648 601.299255,322.066002 601.87947,322.418709 C602.459686,322.771416 602.914588,323.30574 603.244178,324.021683 C603.463905,324.498978 603.610389,325.058297 603.683631,325.699641 L603.698,325.857 Z M612.845432,335 L612.845432,325.821381 C612.845432,325.053406 612.978374,324.398003 613.244258,323.855171 C613.510143,323.31234 613.891002,322.898026 614.386836,322.612228 C614.882671,322.326431 615.466663,322.183533 616.138812,322.183533 C616.451312,322.183533 616.736575,322.20089 616.994601,322.235603 C617.252628,322.270317 617.444736,322.313461 617.570926,322.365036 L617.570926,319.416809 C617.450076,319.386444 617.293483,319.357719 617.101146,319.330635 C616.908809,319.303551 616.697665,319.290009 616.467716,319.290009 C615.588657,319.290009 614.837962,319.552383 614.215633,320.077133 C613.593303,320.601883 613.159686,321.319809 612.914783,322.230911 L612.845432,322.230911 L612.845432,319.593735 L609.66283,319.593735 L609.66283,335 L612.845432,335 Z M626.032108,340.430679 C627.480778,340.430679 628.733982,340.186729 629.791721,339.69883 C630.84946,339.21093 631.665653,338.528175 632.240299,337.650566 C632.814945,336.772957 633.102268,335.746078 633.102268,334.569931 L633.102268,319.593735 L629.919666,319.593735 L629.919666,322.212143 L629.847568,322.212143 C629.545902,321.627884 629.160045,321.117325 628.689998,320.680466 C628.219951,320.243607 627.680401,319.902649 627.071346,319.657593 C626.462291,319.412537 625.79285,319.290009 625.063022,319.290009 C623.761448,319.290009 622.625507,319.610939 621.655201,320.2528 C620.684894,320.894661 619.929203,321.803093 619.388126,322.978096 C618.847049,324.153099 618.576511,325.54863 618.576511,327.164688 L618.576511,327.179337 C618.576511,328.775711 618.842167,330.160065 619.373478,331.332397 C619.904789,332.50473 620.653156,333.411102 621.61858,334.051514 C622.584003,334.691925 623.711704,335.012131 625.001682,335.012131 C625.743107,335.012131 626.42567,334.899178 627.049373,334.673271 C627.673076,334.447365 628.222812,334.131584 628.698581,333.725929 C629.174351,333.320274 629.558262,332.836914 629.850315,332.275848 L629.919666,332.275848 L629.919666,334.393234 C629.919666,335.462112 629.582103,336.311264 628.906978,336.940689 C628.231853,337.570114 627.268299,337.884827 626.016315,337.884827 C625.033039,337.884827 624.218258,337.731056 623.571972,337.423515 C622.925686,337.115974 622.4939,336.718292 622.276615,336.230469 L622.223285,336.10939 L619.071811,336.10939 L619.098362,336.241226 C619.253696,337.025375 619.627727,337.734718 620.220455,338.369255 C620.813183,339.003792 621.600498,339.505997 622.582401,339.87587 C623.564304,340.245743 624.714206,340.430679 626.032108,340.430679 Z M625.89661,332.434006 C625.068058,332.434006 624.346813,332.222633 623.732876,331.799889 C623.118938,331.377144 622.647175,330.776024 622.317585,329.996529 C621.987995,329.217033 621.8232,328.289642 621.8232,327.214355 L621.8232,327.199707 C621.8232,326.13678 621.988453,325.218468 622.318958,324.444771 C622.649463,323.671074 623.121227,323.073273 623.734249,322.651367 C624.347271,322.229462 625.068058,322.018509 625.89661,322.018509 C626.695102,322.018509 627.396892,322.231445 628.00198,322.657318 C628.607067,323.083191 629.07883,323.683434 629.41727,324.458046 C629.75571,325.232658 629.92493,326.147461 629.92493,327.202454 L629.92493,327.217102 C629.92493,328.270264 629.756168,329.188118 629.418644,329.970665 C629.081119,330.753212 628.611377,331.359406 628.009418,331.789246 C627.407459,332.219086 626.70319,332.434006 625.89661,332.434006 Z M638.331285,317.222519 C638.85222,317.222519 639.290643,317.042961 639.646554,316.683846 C640.002465,316.32473 640.180421,315.895004 640.180421,315.394669 C640.180421,314.884567 640.002465,314.452438 639.646554,314.098282 C639.290643,313.744125 638.85222,313.567047 638.331285,313.567047 C637.818437,313.567047 637.382035,313.744125 637.02208,314.098282 C636.662126,314.452438 636.482148,314.884567 636.482148,315.394669 C636.482148,315.895004 636.662126,316.32473 637.02208,316.683846 C637.382035,317.042961 637.818437,317.222519 638.331285,317.222519 Z M639.9227,335 L639.9227,319.593735 L636.739869,319.593735 L636.739869,335 L639.9227,335 Z M646.749623,335 L646.749623,326.013641 C646.749623,325.210724 646.900227,324.510269 647.201436,323.912277 C647.502644,323.314285 647.927792,322.849159 648.47688,322.516899 C649.025967,322.184639 649.67046,322.018509 650.410359,322.018509 C651.50533,322.018509 652.324994,322.330666 652.869351,322.954979 C653.413708,323.579292 653.685887,324.472122 653.685887,325.633469 L653.685887,335 L656.868489,335 L656.868489,325.020981 C656.868489,323.245163 656.403477,321.846046 655.473454,320.823631 C654.543431,319.801216 653.233616,319.290009 651.544011,319.290009 C650.379155,319.290009 649.402516,319.531784 648.614094,320.015335 C647.825673,320.498886 647.227299,321.13205 646.818974,321.914825 L646.749623,321.914825 L646.749623,319.593735 L643.567021,319.593735 L643.567021,335 L646.749623,335 Z M667.078131,340.430679 C668.526801,340.430679 669.780005,340.186729 670.837744,339.69883 C671.895484,339.21093 672.711676,338.528175 673.286322,337.650566 C673.860968,336.772957 674.148291,335.746078 674.148291,334.569931 L674.148291,319.593735 L670.965689,319.593735 L670.965689,322.212143 L670.893592,322.212143 C670.591925,321.627884 670.206069,321.117325 669.736022,320.680466 C669.265975,320.243607 668.726424,319.902649 668.117369,319.657593 C667.508315,319.412537 666.838874,319.290009 666.109046,319.290009 C664.807471,319.290009 663.67153,319.610939 662.701224,320.2528 C661.730918,320.894661 660.975226,321.803093 660.43415,322.978096 C659.893073,324.153099 659.622535,325.54863 659.622535,327.164688 L659.622535,327.179337 C659.622535,328.775711 659.88819,330.160065 660.419501,331.332397 C660.950812,332.50473 661.699179,333.411102 662.664603,334.051514 C663.630027,334.691925 664.757727,335.012131 666.047705,335.012131 C666.78913,335.012131 667.471694,334.899178 668.095397,334.673271 C668.7191,334.447365 669.268836,334.131584 669.744605,333.725929 C670.220374,333.320274 670.604285,332.836914 670.896338,332.275848 L670.965689,332.275848 L670.965689,334.393234 C670.965689,335.462112 670.628127,336.311264 669.953002,336.940689 C669.277877,337.570114 668.314322,337.884827 667.062339,337.884827 C666.079062,337.884827 665.264281,337.731056 664.617995,337.423515 C663.971709,337.115974 663.539923,336.718292 663.322638,336.230469 L663.269309,336.10939 L660.117835,336.10939 L660.144385,336.241226 C660.29972,337.025375 660.673751,337.734718 661.266478,338.369255 C661.859206,339.003792 662.646521,339.505997 663.628424,339.87587 C664.610327,340.245743 665.76023,340.430679 667.078131,340.430679 Z M666.942633,332.434006 C666.114081,332.434006 665.392836,332.222633 664.778899,331.799889 C664.164962,331.377144 663.693198,330.776024 663.363608,329.996529 C663.034018,329.217033 662.869223,328.289642 662.869223,327.214355 L662.869223,327.199707 C662.869223,326.13678 663.034476,325.218468 663.364981,324.444771 C663.695487,323.671074 664.16725,323.073273 664.780272,322.651367 C665.393294,322.229462 666.114081,322.018509 666.942633,322.018509 C667.741126,322.018509 668.442916,322.231445 669.048003,322.657318 C669.65309,323.083191 670.124854,323.683434 670.463294,324.458046 C670.801734,325.232658 670.970954,326.147461 670.970954,327.202454 L670.970954,327.217102 C670.970954,328.270264 670.802191,329.188118 670.464667,329.970665 C670.127143,330.753212 669.657401,331.359406 669.055442,331.789246 C668.453482,332.219086 667.749213,332.434006 666.942633,332.434006 Z M689.545605,335.303726 C689.869244,335.303726 690.173504,335.289726 690.458386,335.261726 C690.743268,335.233727 690.979016,335.206375 691.165631,335.179672 L691.165631,332.724915 C691.049359,332.736359 690.919507,332.749405 690.776074,332.764053 C690.632641,332.778702 690.476544,332.786026 690.307782,332.786026 C689.6367,332.786026 689.130299,332.642441 688.788579,332.35527 C688.446858,332.0681 688.275998,331.533585 688.275998,330.751724 L688.275998,322.111435 L691.165631,322.111435 L691.165631,319.593735 L688.275998,319.593735 L688.275998,315.582352 L685.021527,315.582352 L685.021527,319.593735 L682.811215,319.593735 L682.811215,322.111435 L685.021527,322.111435 L685.021527,330.93277 C685.021527,332.470245 685.394642,333.583107 686.140873,334.271355 C686.887105,334.959602 688.022015,335.303726 689.545605,335.303726 Z M697.331547,335 L697.331547,325.821381 C697.331547,325.053406 697.464489,324.398003 697.730373,323.855171 C697.996258,323.31234 698.377117,322.898026 698.872951,322.612228 C699.368786,322.326431 699.952778,322.183533 700.624927,322.183533 C700.937427,322.183533 701.22269,322.20089 701.480716,322.235603 C701.738743,322.270317 701.930851,322.313461 702.057041,322.365036 L702.057041,319.416809 C701.936191,319.386444 701.779598,319.357719 701.587261,319.330635 C701.394924,319.303551 701.18378,319.290009 700.95383,319.290009 C700.074772,319.290009 699.324077,319.552383 698.701748,320.077133 C698.079418,320.601883 697.645801,321.319809 697.400898,322.230911 L697.331547,322.230911 L697.331547,319.593735 L694.148945,319.593735 L694.148945,335 L697.331547,335 Z M708.61384,335.276947 C709.299113,335.276947 709.942919,335.166206 710.54526,334.944725 C711.1476,334.723244 711.68799,334.409904 712.16643,334.004707 C712.644869,333.59951 713.031412,333.123093 713.32606,332.575455 L713.395411,332.575455 L713.395411,335 L716.578242,335 L716.578242,324.381714 C716.578242,323.351898 716.325556,322.455826 715.820185,321.693497 C715.314814,320.931168 714.602267,320.340004 713.682543,319.920006 C712.76282,319.500008 711.674601,319.290009 710.417887,319.290009 C709.156748,319.290009 708.067881,319.496689 707.151285,319.910049 C706.23469,320.32341 705.51726,320.883942 704.998995,321.591644 C704.48073,322.299347 704.181696,323.097305 704.101893,323.985519 L704.087244,324.152145 L707.079874,324.152145 L707.109171,324.017563 C707.241312,323.398361 707.583948,322.893829 708.137079,322.503967 C708.690211,322.114105 709.421946,321.919174 710.332285,321.919174 C711.314341,321.919174 712.070376,322.16156 712.60039,322.646332 C713.130404,323.131104 713.395411,323.795319 713.395411,324.638977 L713.395,325.797 L709.20756,326.044083 C707.386118,326.150742 705.97407,326.599426 704.971415,327.390137 C703.96876,328.180847 703.467432,329.249802 703.467432,330.597 L703.467432,330.62355 C703.467432,331.54335 703.68342,332.353935 704.115397,333.055305 C704.547373,333.756676 705.150057,334.302292 705.923449,334.692154 C706.696841,335.082016 707.593638,335.276947 708.61384,335.276947 Z M709.483134,332.73201 C708.631388,332.73201 707.949778,332.535934 707.438303,332.143784 C706.926829,331.751633 706.671091,331.218033 706.671091,330.542984 L706.671091,330.516434 C706.671091,329.860764 706.927706,329.335098 707.440935,328.939438 C707.954165,328.543777 708.683649,328.318405 709.629389,328.263321 L713.395,328.029 L713.395411,329.232635 C713.395411,329.895172 713.223101,330.491676 712.878481,331.022148 C712.533861,331.55262 712.067248,331.970215 711.47864,332.274933 C710.890032,332.579651 710.224863,332.73201 709.483134,332.73201 Z M726.658623,335.303726 C727.902367,335.303726 729.000504,335.06279 729.953034,334.580917 C730.905564,334.099045 731.671975,333.445778 732.252266,332.621117 C732.832558,331.796455 733.178475,330.868454 733.290017,329.837112 L733.302147,329.73732 L730.254586,329.73732 L730.228035,329.859772 C730.040047,330.689697 729.644616,331.361389 729.041741,331.874847 C728.438866,332.388306 727.648995,332.645035 726.672127,332.645035 C725.857766,332.645035 725.144303,332.433853 724.531739,332.01149 C723.919175,331.589127 723.442795,330.980415 723.102601,330.185356 C722.762406,329.390297 722.592309,328.431473 722.592309,327.308884 L722.592309,327.294235 C722.592309,326.197433 722.760842,325.249939 723.097908,324.451752 C723.434975,323.653564 723.907807,323.036842 724.516404,322.601585 C725.125,322.166328 725.83564,321.9487 726.648324,321.9487 C727.683632,321.9487 728.496087,322.223816 729.085686,322.774048 C729.675286,323.32428 730.052102,323.977585 730.216134,324.733963 L730.242684,324.856415 L733.278115,324.856415 L733.266213,324.74472 C733.178475,323.778839 732.860825,322.882004 732.313263,322.054214 C731.765702,321.226425 731.012337,320.558777 730.05317,320.05127 C729.094002,319.543762 727.951882,319.290009 726.626809,319.290009 C725.161507,319.290009 723.883126,319.614944 722.791665,320.264816 C721.700203,320.914688 720.852997,321.837158 720.250046,323.032227 C719.647095,324.227295 719.34562,325.639038 719.34562,327.267456 L719.34562,327.282104 C719.34562,328.920441 719.643128,330.340004 720.238144,331.540794 C720.833161,332.741585 721.678803,333.668938 722.775071,334.322853 C723.871338,334.976768 725.165856,335.303726 726.658623,335.303726 Z M739.3001,313.862305 L736.117498,313.862305 L736.117498,335 L739.3001,335 L739.3,329.456 L740.608,328.142 L745.835592,335 L749.516927,335 L742.946,326.235 L749.279577,319.593735 L745.544225,319.593735 L739.369451,326.156235 L739.3,326.157 L739.3001,313.862305 Z" id="Routeissetforthedivergingtrack" fill="#FFFFFF" fill-rule="nonzero"></path>
    </g>
</svg>