<?xml version="1.0" encoding="UTF-8"?>
<svg width="1100px" height="550px" viewBox="0 0 1100 550" version="1.1" xmlns="http://www.w3.org/2000/svg" xmlns:xlink="http://www.w3.org/1999/xlink">
    <title>Artboard</title>
    <g id="Artboard" stroke="none" stroke-width="1" fill="none" fill-rule="evenodd">
        <rect fill="#1A242F" x="0" y="0" width="1100" height="550"></rect>
        <path d="M97.0037175,156.275093 C109.835612,156.275093 121.452713,161.476246 129.861839,169.885373 C138.270966,178.294499 143.472119,189.9116 143.472119,202.743494 L143.472119,202.743494 L143.472119,329.137546 C143.472119,340.010655 139.737983,350.011727 133.481468,357.927644 C126.802385,366.378205 117.249958,372.45393 106.29791,374.676677 L106.29791,374.676677 L106.297402,602.371747 L87.710033,602.371747 L87.7095249,374.676677 C76.7574772,372.45393 67.2050499,366.378205 60.525967,357.927644 C54.269452,350.011727 50.535316,340.010655 50.535316,329.137546 L50.535316,329.137546 L50.535316,202.743494 C50.535316,189.9116 55.736469,178.294499 64.1455957,169.885373 C72.5547224,161.476246 84.1718227,156.275093 97.0037175,156.275093 Z" id="Combined-Shape" stroke="#4A4A4A" stroke-width="3.71747212" fill="#000000"></path>
        <circle id="Oval" fill="#FFD600" cx="97.0037175" cy="210.178439" r="18.5873606"></circle>
        <circle id="Oval" fill="#2F2F2F" cx="97.0037175" cy="265.94052" r="18.5873606"></circle>
        <circle id="Oval" fill="#2F2F2F" cx="97.0037175" cy="321.702602" r="18.5873606"></circle>
    </g>
</svg>