<?xml version="1.0" encoding="UTF-8"?>
<svg width="1100px" height="550px" viewBox="0 0 1100 550" version="1.1" xmlns="http://www.w3.org/2000/svg" xmlns:xlink="http://www.w3.org/1999/xlink">
    <title>Artboard</title>
    <g id="Artboard" stroke="none" stroke-width="1" fill="none" fill-rule="evenodd">
        <g id="Group" transform="translate(60.000000, 304.000000)">
            <rect id="Rectangle" fill="#FFFFFF" x="0" y="0" width="88" height="185"></rect>
            <path d="M50.321317,81.0958904 L50.321317,61.0867268 L68.8285714,27.5277585 L56.8034598,27.5277585 L44.8888393,50.4139354 L44.6310268,50.4139354 L32.7164063,27.5277585 L20.6912946,27.5277585 L39.1985491,61.0867268 L39.1985491,81.0958904 L50.321317,81.0958904 Z M44.7875558,158.051356 C49.2563058,158.051356 53.0897321,157.367679 56.2878348,156.000324 C59.4859375,154.63297 61.9382254,152.690212 63.6446987,150.172052 C65.3511719,147.653892 66.2044085,144.680978 66.2044085,141.253311 L66.2044085,141.216188 C66.2044085,136.996569 64.9092076,133.683363 62.3188058,131.276571 C59.728404,128.869779 55.6463728,127.103355 50.0727121,125.977298 L44.4560826,124.845054 C41.3991629,124.213968 39.1586496,123.381799 37.7345424,122.348549 C36.3104353,121.315299 35.5983817,119.951038 35.5983817,118.255766 L35.5983817,118.218643 C35.5983817,116.944095 35.9636161,115.821132 36.6940848,114.849753 C37.4245536,113.878374 38.4742188,113.117358 39.8430804,112.566704 C41.211942,112.01605 42.8416853,111.740723 44.7323103,111.740723 C46.5738281,111.740723 48.2005022,112.012956 49.6123326,112.557423 C51.0241629,113.10189 52.1628348,113.872187 53.0283482,114.868315 C53.8938616,115.864442 54.4186942,117.067838 54.602846,118.478502 L54.6580915,118.923975 L65.1547433,118.923975 L65.1179129,118.237204 C64.9460379,115.106519 64.0222098,112.368716 62.3464286,110.023795 C60.6706473,107.678875 58.3411272,105.85986 55.3578683,104.566751 C52.3746094,103.273642 48.8327567,102.627087 44.7323103,102.627087 C40.8160156,102.627087 37.3324777,103.304577 34.2816964,104.659558 C31.2309152,106.014538 28.836942,107.907798 27.0997768,110.339339 C25.3626116,112.770879 24.4878906,115.62005 24.4756138,118.886853 L24.4756138,118.923975 C24.4756138,122.957981 25.8015067,126.240251 28.4532924,128.770785 C31.1050781,131.30132 35.0459263,133.092493 40.2758371,134.144304 L45.8924665,135.276548 C49.1949219,135.957132 51.5520647,136.810955 52.9638951,137.838018 C54.3757254,138.865081 55.0816406,140.281932 55.0816406,142.088573 L55.0816406,142.125696 C55.0816406,143.486863 54.6734375,144.680978 53.8570313,145.708041 C53.040625,146.735104 51.8866071,147.53015 50.3949777,148.093178 C48.9033482,148.656207 47.1262835,148.937721 45.0637835,148.937721 C43.0503906,148.937721 41.2487723,148.6593 39.6589286,148.102459 C38.0690848,147.545618 36.7769531,146.762946 35.7825335,145.754445 C34.7881138,144.745943 34.1681362,143.554922 33.9226004,142.18138 L33.8489397,141.754468 L23.3522879,141.754468 L23.3891183,142.366994 C23.5978237,145.64617 24.5983817,148.458219 26.3907924,150.803139 C28.1832031,153.14806 30.6446987,154.942326 33.775279,156.185938 C36.9058594,157.42955 40.5766183,158.051356 44.7875558,158.051356 Z" id="YS" fill="#FF0000" fill-rule="nonzero"></path>
        </g>
        <rect id="Rectangle" fill="#FFFFFF" x="98" y="483" width="12" height="67"></rect>
    </g>
</svg>