<?xml version="1.0" encoding="UTF-8"?>
<svg width="1100px" height="550px" viewBox="0 0 1100 550" version="1.1" xmlns="http://www.w3.org/2000/svg" xmlns:xlink="http://www.w3.org/1999/xlink">
    <title>Artboard</title>
    <g id="Artboard" stroke="none" stroke-width="1" fill="none" fill-rule="evenodd">
        <rect fill="#1A242F" x="0" y="0" width="1100" height="550"></rect>
        <line x1="0" y1="359.091703" x2="1100" y2="359.091703" id="Path-2" stroke="#4A4A4A" stroke-width="20"></line>
        <path d="M0,130.686075 L186.021763,130.686075 C242.478969,130.686075 296.306344,154.547699 334.21862,196.381602 L422.13878,293.396176 C460.051056,335.230079 513.878431,359.091703 570.335637,359.091703 L620.088277,359.091703 L620.088277,359.091703" id="Path-3" stroke="#4A4A4A" stroke-width="20"></path>
        <g id="Group" transform="translate(153.000000, 187.000000) rotate(90.000000) translate(-153.000000, -187.000000) translate(124.000000, 126.000000)">
            <rect id="Rectangle" fill="#FFFFFF" x="0" y="0" width="58" height="122"></rect>
            <path d="M33.1663225,53.4794521 L33.1663225,40.2842198 L45.3642857,18.1534407 L37.438644,18.1534407 L29.5858259,33.2459466 L29.415904,33.2459466 L21.5630859,18.1534407 L13.6374442,18.1534407 L25.8354074,40.2842198 L25.8354074,53.4794521 L33.1663225,53.4794521 Z M29.5190709,104.228462 C32.4643834,104.228462 34.9909598,103.777605 37.0988002,102.87589 C39.2066406,101.974175 40.8229213,100.693005 41.9476423,99.0323804 C43.0723633,97.3717559 43.6347238,95.4112398 43.6347238,93.1508321 L43.6347238,93.1263511 C43.6347238,90.3436831 42.7810686,88.1587583 41.0737584,86.5715767 C39.3664481,84.9843951 36.6760184,83.8195098 33.0024693,83.076921 L29.3005999,82.330252 C27.2858119,81.9140759 25.8091099,81.3652946 24.8704939,80.6839081 C23.9318778,80.0025217 23.4625698,79.1028467 23.4625698,77.9848833 L23.4625698,77.9604024 C23.4625698,77.1198898 23.7032924,76.379341 24.1847377,75.7387562 C24.666183,75.0981713 25.3580078,74.5963118 26.2602121,74.2331777 C27.1624163,73.8700436 28.2365653,73.6884766 29.482659,73.6884766 C30.6963867,73.6884766 31.7685128,73.8680035 32.6990374,74.2270575 C33.6295619,74.5861114 34.3800502,75.0940911 34.9505022,75.7509966 C35.5209542,76.4079021 35.8668666,77.2014929 35.9882394,78.131769 L36.0246512,78.4255405 L42.942899,78.4255405 L42.9186244,77.9726429 C42.8053432,75.9080827 42.1964565,74.1026126 41.0919643,72.5562326 C39.9874721,71.0098526 38.4521066,69.810286 36.4858677,68.9575329 C34.5196289,68.1047798 32.185226,67.6784033 29.482659,67.6784033 C26.9014648,67.6784033 24.6054967,68.1251806 22.5947545,69.0187353 C20.5840123,69.91229 19.0061663,71.1608184 17.8612165,72.7643207 C16.7162667,74.3678229 16.1397461,76.2467359 16.1316546,78.4010595 L16.1316546,78.4255405 C16.1316546,81.0858037 17.0055385,83.2503278 18.7533064,84.9191125 C20.5010742,86.5878973 23.0984515,87.7691032 26.5454381,88.4627301 L30.2473075,89.2093991 C32.4239258,89.6582165 33.9774972,90.2212784 34.9080218,90.8985847 C35.8385463,91.5758909 36.3038086,92.5102472 36.3038086,93.7016535 L36.3038086,93.7261344 C36.3038086,94.6237693 36.0347656,95.4112398 35.4966797,96.0885461 C34.9585938,96.7658524 34.1979911,97.2901528 33.2148717,97.6614472 C32.2317522,98.0327416 31.060505,98.2183888 29.70113,98.2183888 C28.3741211,98.2183888 27.1866908,98.0347817 26.1388393,97.6675674 C25.0909877,97.3003532 24.2393555,96.7842131 23.5839425,96.1191473 C22.9285296,95.4540815 22.5199079,94.668651 22.3580776,93.7628558 L22.3095285,93.4813249 L15.3912807,93.4813249 L15.4155552,93.8852606 C15.553111,96.0477445 16.2125698,97.9021765 17.3939314,99.4485566 C18.575293,100.994937 20.1976423,102.178183 22.2609794,102.998294 C24.3243164,103.818406 26.7436802,104.228462 29.5190709,104.228462 Z" id="YS" fill="#FF0000" fill-rule="nonzero"></path>
        </g>
        <g id="Group-2" transform="translate(153.500000, 429.000000) rotate(90.000000) translate(-153.500000, -429.000000) translate(120.000000, 351.000000)">
            <path d="M33.5,1.29897959 C42.3920663,1.29897959 50.4423214,4.90320157 56.2695599,10.7304401 C62.0967984,16.5576786 65.7010204,24.6079337 65.7010204,33.5 L65.7010204,33.5 L65.7010204,122.5 C65.7010204,131.392066 62.0967984,139.442321 56.2695599,145.26956 C50.4423214,151.096798 42.3920663,154.70102 33.5,154.70102 C24.6079337,154.70102 16.5576786,151.096798 10.7304401,145.26956 C4.90320157,139.442321 1.29897959,131.392066 1.29897959,122.5 L1.29897959,122.5 L1.29897959,33.5 C1.29897959,24.6079337 4.90320157,16.5576786 10.7304401,10.7304401 C16.5576786,4.90320157 24.6079337,1.29897959 33.5,1.29897959 Z" id="Combined-Shape" stroke="#4A4A4A" stroke-width="2.59795918" fill="#000000"></path>
            <ellipse id="Oval" fill="#FFD600" cx="33.5" cy="117.3328" rx="12.8846154" ry="13">
			<animate
            attributeType="XML"
            attributeName="fill"
            values="#2F2F2F;#FFD600"
            dur="1s"
			calcMode="discrete"
            repeatCount="indefinite"/></ellipse>
            <ellipse id="Oval" fill="#00FF3C" cx="33.5" cy="78" rx="12.8846154" ry="13">
			<animate
            attributeType="XML"
            attributeName="fill"
            values="#2F2F2F;#00FF3C"
            dur="1s"
			calcMode="discrete"
            repeatCount="indefinite"/></ellipse>
            <ellipse id="Oval" fill="#FF0000" cx="33.5" cy="38.6672" rx="12.8846154" ry="13">
			<animate
            attributeType="XML"
            attributeName="fill"
            values="#2F2F2F;#FF0000"
            dur="1s"
			calcMode="discrete"
            repeatCount="indefinite"/></ellipse>
        </g>
        <path id="Line-2" d="M214.349841,89 C267.41914,89 318.366558,109.730046 356.349649,146.732006 L357.496672,147.858254 L462.390297,251.667772 C498.812879,287.713917 547.859594,308.091351 599.060954,308.495296 L600.613159,308.501418 L689.311,308.501 L689.311331,292.501418 L728.311331,312.001418 L689.311331,331.501418 L689.311,315.501 L600.613159,315.501418 C547.54386,315.501418 496.596441,294.771372 458.613351,257.769412 L457.466327,256.643164 L352.572703,152.833646 C316.150121,116.787502 267.103405,96.4100667 215.902046,96.0061226 L214.349841,96 L51,96 L51,89 L214.349841,89 Z" fill="#FFFFFF" fill-rule="nonzero"></path>
    </g>
</svg>