<?xml version="1.0" encoding="UTF-8"?>
<svg width="1100px" height="550px" viewBox="0 0 1100 550" version="1.1" xmlns="http://www.w3.org/2000/svg" xmlns:xlink="http://www.w3.org/1999/xlink">
    <title>Artboard</title>
    <g id="Artboard" stroke="none" stroke-width="1" fill="none" fill-rule="evenodd">
        <path d="M97.0037175,304.275093 C109.835612,304.275093 121.452713,309.476246 129.861839,317.885373 C138.270966,326.294499 143.472119,337.9116 143.472119,350.743494 L143.472119,350.743494 L143.472119,477.137546 C143.472119,488.010655 139.737983,498.011727 133.481468,505.927644 C126.802386,514.378203 117.249961,520.453928 106.297916,522.676676 L106.297916,522.676676 L106.29741,602.371747 L87.7100254,602.371747 L87.7095188,522.676676 C76.7574736,520.453928 67.2050487,514.378203 60.525967,505.927644 C54.269452,498.011727 50.535316,488.010655 50.535316,477.137546 L50.535316,477.137546 L50.535316,350.743494 C50.535316,337.9116 55.736469,326.294499 64.1455957,317.885373 C72.5547224,309.476246 84.1718227,304.275093 97.0037175,304.275093 Z" id="Combined-Shape" stroke="#4A4A4A" stroke-width="3.71747212" fill="#000000"></path>
        <circle id="Oval" fill="#FFD600" cx="97.0037175" cy="470.178439" r="18.5873606">
		<animate
            attributeType="XML"
            attributeName="fill"
            values="#2F2F2F;#FFD600"
            dur="1s"
			calcMode="discrete"
            repeatCount="indefinite"/></circle>
        <circle id="Oval" fill="#2F2F2F" cx="97.0037175" cy="413.94052" r="18.5873606"></circle>
        <circle id="Oval" fill="#2F2F2F" cx="97.0037175" cy="357.702602" r="18.5873606"></circle>
        <path d="M253.5,358.858736 C262.128719,358.858736 270.188453,361.16375 277.099217,365.198169 C284.008046,369.231458 289.768542,374.991954 293.801831,381.900783 C297.83625,388.811547 300.141264,396.871281 300.141264,405.5 L300.141264,405.5 L300.141264,475.5 C300.141264,484.128719 297.83625,492.188453 293.801831,499.099217 C289.768542,506.008046 284.008046,511.768542 277.099217,515.801831 C272.555402,518.454454 267.514812,520.359831 262.142225,521.353453 L262.142225,521.353453 L262.141286,602.141264 L243.858735,602.141264 L243.858685,521.157403 C238.859768,520.119812 234.16184,518.289384 229.900783,515.801831 C222.991954,511.768542 217.231458,506.008046 213.198169,499.099217 C209.16375,492.188453 206.858736,484.128719 206.858736,475.5 L206.858736,475.5 L206.858736,405.5 C206.858736,396.871281 209.16375,388.811547 213.198169,381.900783 C217.231458,374.991954 222.991954,369.231458 229.900783,365.198169 C236.811547,361.16375 244.871281,358.858736 253.5,358.858736 Z" id="Combined-Shape" stroke="#4A4A4A" stroke-width="3.71747212" fill="#000000"></path>
        <circle id="Oval" fill="#FFD600" cx="253.003717" cy="470.178439" r="18.5873606">
		<animate
            attributeType="XML"
            attributeName="fill"
            values="#2F2F2F;#FFD600"
            dur="1s"
			calcMode="discrete"
            repeatCount="indefinite"/></circle>
        <circle id="Oval" fill="#2F2F2F" cx="253.003717" cy="413.702602" r="18.5873606"></circle>
    </g>
</svg>