<?xml version="1.0" encoding="UTF-8"?>
<svg width="1100px" height="550px" viewBox="0 0 1100 550" version="1.1" xmlns="http://www.w3.org/2000/svg" xmlns:xlink="http://www.w3.org/1999/xlink">
    <title>Artboard</title>
    <g id="Artboard" stroke="none" stroke-width="1" fill="none" fill-rule="evenodd">
        <path d="M143.795539,229.907063 L143.795539,328.72119 C143.795539,337.356415 141.511881,345.400221 137.504086,352.286582 C133.49918,359.167977 127.773925,364.893232 120.89253,368.898138 C116.548716,371.426196 111.744224,373.268651 106.621116,374.284132 L106.621116,374.284132 L106.62082,601.95539 L88.0334548,601.95539 L88.0331592,374.284132 C82.9100507,373.268651 78.1055595,371.426196 73.7617452,368.898138 C66.8803497,364.893232 61.1550951,359.167977 57.1501893,352.286582 C53.1423939,345.400221 50.8587361,337.356415 50.8587361,328.72119 L50.8587361,328.72119 L50.8587361,229.907063 L143.795539,229.907063 Z" id="Combined-Shape" stroke="#4A4A4A" stroke-width="3.71747212" fill="#000000"></path>
        <circle id="Oval" fill="#00FF3C" cx="97.0037175" cy="325.94052" r="18.5873606"></circle>
        <circle id="Oval" fill="#FFFFFF" cx="97.0037175" cy="269.702602" r="18.5873606"></circle>
        <circle id="Oval" fill="#FFFFFF" cx="97" cy="411" r="38"></circle>
        <polygon id="T" fill="#FF0000" fill-rule="nonzero" points="100.558725 442 100.558725 396.19469 118 396.19469 118 390 76 390 76 396.19469 93.4412752 396.19469 93.4412752 442"></polygon>
    </g>
</svg>