<?xml version="1.0" encoding="UTF-8"?>
<svg width="1100px" height="550px" viewBox="0 0 1100 550" version="1.1" xmlns="http://www.w3.org/2000/svg" xmlns:xlink="http://www.w3.org/1999/xlink">
    <title>Artboard</title>
    <g id="Artboard" stroke="none" stroke-width="1" fill="none" fill-rule="evenodd">
        <path d="M97.0037175,304.275093 C109.835612,304.275093 121.452713,309.476246 129.861839,317.885373 C138.270966,326.294499 143.472119,337.9116 143.472119,350.743494 L143.472119,350.743494 L143.472119,477.137546 C143.472119,488.010655 139.737983,498.011727 133.481468,505.927644 C126.802386,514.378203 117.249961,520.453928 106.297916,522.676676 L106.297916,522.676676 L106.29741,602.371747 L87.7100254,602.371747 L87.7095188,522.676676 C76.7574736,520.453928 67.2050487,514.378203 60.525967,505.927644 C54.269452,498.011727 50.535316,488.010655 50.535316,477.137546 L50.535316,477.137546 L50.535316,350.743494 C50.535316,337.9116 55.736469,326.294499 64.1455957,317.885373 C72.5547224,309.476246 84.1718227,304.275093 97.0037175,304.275093 Z" id="Combined-Shape" stroke="#4A4A4A" stroke-width="3.71747212" fill="#000000"></path>
        <circle id="Oval" fill="#FFD600" cx="97.0037175" cy="470.178439" r="18.5873606"></circle>
        <circle id="Oval" fill="#00FF3C" cx="97.0037175" cy="413.94052" r="18.5873606"></circle>
        <circle id="Oval" fill="#FF0000" cx="97.0037175" cy="357.702602" r="18.5873606"></circle>
        <path d="M400.5,358.858736 C409.128719,358.858736 417.188453,361.16375 424.099217,365.198169 C431.008046,369.231458 436.768542,374.991954 440.801831,381.900783 C444.83625,388.811547 447.141264,396.871281 447.141264,405.5 L447.141264,405.5 L447.141264,475.5 C447.141264,484.128719 444.83625,492.188453 440.801831,499.099217 C436.768542,506.008046 431.008046,511.768542 424.099217,515.801831 C419.555402,518.454454 414.514812,520.359831 409.142225,521.353453 L409.142225,521.353453 L409.141286,602.141264 L390.858735,602.141264 L390.858685,521.157403 C385.859768,520.119812 381.16184,518.289384 376.900783,515.801831 C369.991954,511.768542 364.231458,506.008046 360.198169,499.099217 C356.16375,492.188453 353.858736,484.128719 353.858736,475.5 L353.858736,475.5 L353.858736,405.5 C353.858736,396.871281 356.16375,388.811547 360.198169,381.900783 C364.231458,374.991954 369.991954,369.231458 376.900783,365.198169 C383.811547,361.16375 391.871281,358.858736 400.5,358.858736 Z" id="Combined-Shape" stroke="#4A4A4A" stroke-width="3.71747212" fill="#000000"></path>
        <circle id="Oval" fill="#FFD600" cx="400.003717" cy="470.178439" r="18.5873606"></circle>
        <circle id="Oval" fill="#FF0000" cx="400.003717" cy="413.702602" r="18.5873606"></circle>
        <path d="M249.5,245.858736 C258.128719,245.858736 266.188453,248.16375 273.099217,252.198169 C280.008046,256.231458 285.768542,261.991954 289.801831,268.900783 C293.83625,275.811547 296.141264,283.871281 296.141264,292.5 L296.141264,292.5 L296.141264,483.5 C296.141264,492.128719 293.83625,500.188453 289.801831,507.099217 C285.768542,514.008046 280.008046,519.768542 273.099217,523.801831 C268.555403,526.454454 263.514813,528.35983 258.142227,529.353453 L258.142227,529.353453 L258.141288,602.141264 L239.858735,602.141264 L239.858685,529.157403 C234.859767,528.119812 230.16184,526.289384 225.900783,523.801831 C218.991954,519.768542 213.231458,514.008046 209.198169,507.099217 C205.16375,500.188453 202.858736,492.128719 202.858736,483.5 L202.858736,483.5 L202.858736,292.5 C202.858736,283.871281 205.16375,275.811547 209.198169,268.900783 C213.231458,261.991954 218.991954,256.231458 225.900783,252.198169 C232.811547,248.16375 240.871281,245.858736 249.5,245.858736 Z" id="Combined-Shape" stroke="#4A4A4A" stroke-width="3.71747212" fill="#000000"></path>
        <circle id="Oval" fill="#FFD600" cx="249.003717" cy="470.178439" r="18.5873606"></circle>
        <circle id="Oval" fill="#00FF3C" cx="249.003717" cy="413.94052" r="18.5873606"></circle>
        <circle id="Oval" fill="#FF0000" cx="249.003717" cy="357.702602" r="18.5873606"></circle>
        <circle id="Oval" fill="#0046FF" cx="248.587361" cy="301.587361" r="18.5873606"></circle>
    </g>
</svg>