<?xml version="1.0" encoding="UTF-8"?>
<svg width="1100px" height="550px" viewBox="0 0 1100 550" version="1.1" xmlns="http://www.w3.org/2000/svg" xmlns:xlink="http://www.w3.org/1999/xlink">
    <title>Artboard</title>
    <g id="Artboard" stroke="none" stroke-width="1" fill="none" fill-rule="evenodd">
        <rect fill="#1A242F" x="0" y="0" width="1100" height="550"></rect>
        <path d="M97.0037175,304.275093 C109.835612,304.275093 121.452713,309.476246 129.861839,317.885373 C138.270966,326.294499 143.472119,337.9116 143.472119,350.743494 L143.472119,350.743494 L143.472119,477.137546 C143.472119,488.010655 139.737983,498.011727 133.481468,505.927644 C126.802386,514.378203 117.249961,520.453928 106.297916,522.676676 L106.297916,522.676676 L106.29741,602.371747 L87.7100254,602.371747 L87.7095188,522.676676 C76.7574736,520.453928 67.2050487,514.378203 60.525967,505.927644 C54.269452,498.011727 50.535316,488.010655 50.535316,477.137546 L50.535316,477.137546 L50.535316,350.743494 C50.535316,337.9116 55.736469,326.294499 64.1455957,317.885373 C72.5547224,309.476246 84.1718227,304.275093 97.0037175,304.275093 Z" id="Combined-Shape" stroke="#4A4A4A" stroke-width="3.71747212" fill="#000000"></path>
        <circle id="Oval" fill="#2F2F2F" cx="97.0037175" cy="470.178439" r="18.5873606"></circle>
        <circle id="Oval" fill="#2F2F2F" cx="97.0037175" cy="413.94052" r="18.5873606"></circle>
        <circle id="Oval" fill="#FF0000" cx="97.0037175" cy="357.702602" r="18.5873606"></circle>
        <path d="M263.327138,115.858736 C276.159032,115.858736 287.776133,121.059889 296.185259,129.469016 C304.594386,137.878142 309.795539,149.495243 309.795539,162.327138 L309.795539,162.327138 L309.795539,288.72119 C309.795539,299.594298 306.061403,309.595371 299.804888,317.511287 C293.125805,325.961848 283.573378,332.037573 272.62133,334.260321 L272.62133,334.260321 L272.620822,561.95539 L254.033453,561.95539 L254.032945,334.260321 C243.080897,332.037573 233.52847,325.961848 226.849387,317.511287 C220.592872,309.595371 216.858736,299.594298 216.858736,288.72119 L216.858736,288.72119 L216.858736,162.327138 C216.858736,149.495243 222.059889,137.878142 230.469016,129.469016 C238.878142,121.059889 250.495243,115.858736 263.327138,115.858736 Z" id="Combined-Shape" stroke="#4A4A4A" stroke-width="3.71747212" fill="#000000"></path>
        <circle id="Oval" fill="#2F2F2F" cx="263.327138" cy="169.762082" r="18.5873606"></circle>
        <circle id="Oval" fill="#2F2F2F" cx="263.327138" cy="225.524164" r="18.5873606"></circle>
        <circle id="Oval" fill="#FF0000" cx="263.327138" cy="281.286245" r="18.5873606"></circle>
    </g>
</svg>