<?xml version="1.0" encoding="UTF-8"?>
<svg width="1100px" height="550px" viewBox="0 0 1100 550" version="1.1" xmlns="http://www.w3.org/2000/svg" xmlns:xlink="http://www.w3.org/1999/xlink">
    <title>Artboard</title>
    <g id="Artboard" stroke="none" stroke-width="1" fill="none" fill-rule="evenodd">
        <path d="M97.0037175,156.275093 C109.835612,156.275093 121.452713,161.476246 129.861839,169.885373 C138.270966,178.294499 143.472119,189.9116 143.472119,202.743494 L143.472119,202.743494 L143.472119,329.137546 C143.472119,340.010655 139.737983,350.011727 133.481468,357.927644 C126.802385,366.378205 117.249958,372.45393 106.29791,374.676677 L106.29791,374.676677 L106.297402,602.371747 L87.710033,602.371747 L87.7095249,374.676677 C76.7574772,372.45393 67.2050499,366.378205 60.525967,357.927644 C54.269452,350.011727 50.535316,340.010655 50.535316,329.137546 L50.535316,329.137546 L50.535316,202.743494 C50.535316,189.9116 55.736469,178.294499 64.1455957,169.885373 C72.5547224,161.476246 84.1718227,156.275093 97.0037175,156.275093 Z" id="Combined-Shape" stroke="#4A4A4A" stroke-width="3.71747212" fill="#000000"></path>
        <circle id="Oval" fill="#FFD600" cx="97.0037175" cy="210.178439" r="18.5873606"></circle>
        <circle id="Oval" fill="#00FF3C" cx="97.0037175" cy="265.94052" r="18.5873606"></circle>
        <circle id="Oval" fill="#FF0000" cx="97.0037175" cy="321.702602" r="18.5873606"></circle>
        <path d="M249.420074,100.513011 C262.251969,100.513011 273.869069,105.714164 282.278196,114.123291 C290.687323,122.532418 295.888476,134.149518 295.888476,146.981413 L295.888476,146.981413 L295.888476,329.137546 C295.888476,340.010655 292.15434,350.011727 285.897825,357.927644 C279.218742,366.378205 269.666315,372.45393 258.714267,374.676677 L258.714267,374.676677 L258.713759,602.371747 L240.12639,602.371747 L240.125882,374.676677 C229.173834,372.45393 219.621407,366.378205 212.942324,357.927644 C206.685809,350.011727 202.951673,340.010655 202.951673,329.137546 L202.951673,329.137546 L202.951673,146.981413 C202.951673,134.149518 208.152826,122.532418 216.561953,114.123291 C224.971079,105.714164 236.58818,100.513011 249.420074,100.513011 Z" id="Combined-Shape" stroke="#4A4A4A" stroke-width="3.71747212" fill="#000000"></path>
        <circle id="Oval" fill="#FFD600" cx="249.420074" cy="210.178439" r="18.5873606"></circle>
        <circle id="Oval" fill="#0046FF" cx="249.420074" cy="154.416357" r="18.5873606"></circle>
        <circle id="Oval" fill="#00FF3C" cx="249.420074" cy="265.94052" r="18.5873606"></circle>
        <circle id="Oval" fill="#FF0000" cx="249.420074" cy="321.702602" r="18.5873606"></circle>
        <path d="M401.836431,100.513011 C414.668326,100.513011 426.285426,105.714164 434.694553,114.123291 C443.10368,122.532418 448.304833,134.149518 448.304833,146.981413 L448.304833,146.981413 L448.304833,329.137546 C448.304833,340.010655 444.570697,350.011727 438.314182,357.927644 C431.635099,366.378205 422.082672,372.45393 411.130624,374.676677 L411.130624,374.676677 L411.130116,602.371747 L392.542747,602.371747 L392.542239,374.676677 C381.590191,372.45393 372.037764,366.378205 365.358681,357.927644 C359.102166,350.011727 355.36803,340.010655 355.36803,329.137546 L355.36803,329.137546 L355.36803,146.981413 C355.36803,134.149518 360.569183,122.532418 368.978309,114.123291 C377.387436,105.714164 389.004536,100.513011 401.836431,100.513011 Z" id="Combined-Shape" stroke="#4A4A4A" stroke-width="3.71747212" fill="#000000"></path>
        <circle id="Oval" fill="#FFD600" cx="401.836431" cy="321.702602" r="18.5873606"></circle>
        <circle id="Oval" fill="#FF0000" cx="401.836431" cy="265.94052" r="18.5873606"></circle>
        <circle id="Oval" fill="#00FF3C" cx="401.836431" cy="210.178439" r="18.5873606"></circle>
        <circle id="Oval" fill="#FFD600" cx="401.836431" cy="154.416357" r="18.5873606"></circle>
        <path d="M554.252788,48.4684015 C567.084683,48.4684015 578.701783,53.6695545 587.11091,62.0786812 C595.520037,70.4878079 600.72119,82.1049082 600.72119,94.936803 L600.72119,94.936803 L600.72119,329.137546 C600.72119,340.010655 596.987054,350.011727 590.730539,357.927644 C584.051456,366.378205 574.499028,372.45393 563.546981,374.676677 L563.546981,374.676677 L563.546473,602.371747 L544.959104,602.371747 L544.958596,374.676677 C534.006548,372.45393 524.454121,366.378205 517.775038,357.927644 C511.518523,350.011727 507.784387,340.010655 507.784387,329.137546 L507.784387,329.137546 L507.784387,94.936803 C507.784387,82.1049082 512.98554,70.4878079 521.394666,62.0786812 C529.803793,53.6695545 541.420893,48.4684015 554.252788,48.4684015 Z" id="Combined-Shape" stroke="#4A4A4A" stroke-width="3.71747212" fill="#000000"></path>
        <circle id="Oval" fill="#FFD600" cx="554.252788" cy="321.702602" r="18.5873606"></circle>
        <circle id="Oval" fill="#00FF3C" cx="554.252788" cy="265.94052" r="18.5873606"></circle>
        <circle id="Oval" fill="#FF0000" cx="554.252788" cy="210.178439" r="18.5873606"></circle>
        <circle id="Oval" fill="#FFD600" cx="554.252788" cy="154.416357" r="18.5873606"></circle>
        <circle id="Oval" fill="#0046FF" cx="554.252788" cy="98.6542751" r="18.5873606"></circle>
    </g>
</svg>